<?xml version="1.0" encoding="UTF-8" standalone="no"?>
<!-- Created with Inkscape (http://www.inkscape.org/) -->

<svg
   xmlns:dc="http://purl.org/dc/elements/1.1/"
   xmlns:cc="http://creativecommons.org/ns#"
   xmlns:rdf="http://www.w3.org/1999/02/22-rdf-syntax-ns#"
   xmlns:svg="http://www.w3.org/2000/svg"
   xmlns="http://www.w3.org/2000/svg"
   xmlns:sodipodi="http://sodipodi.sourceforge.net/DTD/sodipodi-0.dtd"
   xmlns:inkscape="http://www.inkscape.org/namespaces/inkscape"
   version="1.1"
   id="svg5695"
   width="645"
   height="645"
   viewBox="0 0 645 645"
   sodipodi:docname="HealthSprite.svg"
   inkscape:version="0.92.1 r15371">
  <metadata
     id="metadata5701">
    <rdf:RDF>
      <cc:Work
         rdf:about="">
        <dc:format>image/svg+xml</dc:format>
        <dc:type
           rdf:resource="http://purl.org/dc/dcmitype/StillImage" />
        <dc:title></dc:title>
      </cc:Work>
    </rdf:RDF>
  </metadata>
  <defs
     id="defs5699" />
  <sodipodi:namedview
     pagecolor="#ffffff"
     bordercolor="#666666"
     borderopacity="1"
     objecttolerance="10"
     gridtolerance="10"
     guidetolerance="10"
     inkscape:pageopacity="0"
     inkscape:pageshadow="2"
     inkscape:window-width="1366"
     inkscape:window-height="706"
     id="namedview5697"
     showgrid="false"
     inkscape:zoom="0.57335945"
     inkscape:cx="703.12434"
     inkscape:cy="118.37613"
     inkscape:window-x="-8"
     inkscape:window-y="-8"
     inkscape:window-maximized="1"
     inkscape:current-layer="svg5695" />
  <g
     id="g5725"
     transform="translate(-802.28903,12.208746)"
     inkscape:export-xdpi="76.271606"
     inkscape:export-ydpi="76.271606">
    <path
       style="fill:#00fe00"
       d="m 1325.2802,676.47375 c -1.65,-0.22433 -7.275,-0.88638 -12.5,-1.47122 -57.341,-6.4183 -116.3128,-31.3784 -163.3158,-69.12426 -13.482,-10.82669 -38.1758,-35.60802 -49.1391,-49.31326 -37.2631,-46.58236 -59.9997,-100.35618 -68.7083,-162.5 -1.8088,-12.9075 -1.8088,-66.0925 0,-79 12.7,-90.62631 56.7462,-166.05375 128.3323,-219.764143 42.2522,-31.701412 93.2758,-52.544403 148.8309,-60.79697 14.5191,-2.156768 55.0542,-3.012257 71.9489,-1.51847 102.8747,9.095946 194.9247,66.723093 248.513,155.579583 24.8691,41.23629 39.9935,87.62015 44.5997,136.77973 1.7213,18.37113 0.7092,58.42055 -1.901,75.22027 -9.3065,59.89814 -30.8687,109.54058 -67.974,156.49616 -9.536,12.06748 -36.7954,39.3102 -49.1866,49.15655 -46.0737,36.61118 -97.1315,58.90691 -155.5,67.90315 -11.3405,1.74789 -19.414,2.21507 -42.5,2.45927 -15.675,0.16581 -29.85,0.11794 -31.5,-0.10639 z"
       id="path5731"
       inkscape:connector-curvature="0" />
    <path
       style="fill:#fe0000"
       d="m 1325.2802,676.47375 c -1.65,-0.22433 -7.275,-0.88638 -12.5,-1.47122 -57.341,-6.4183 -116.3128,-31.3784 -163.3158,-69.12426 -13.482,-10.82669 -38.1758,-35.60802 -49.1391,-49.31326 -37.2631,-46.58236 -59.9997,-100.35618 -68.7083,-162.5 -1.8088,-12.9075 -1.8088,-66.0925 0,-79 12.7,-90.62631 56.7462,-166.05375 128.3323,-219.764143 42.2522,-31.701412 93.2758,-52.544403 148.8309,-60.79697 14.5191,-2.156768 55.0542,-3.012257 71.9489,-1.51847 102.8747,9.095946 194.9247,66.723093 248.513,155.579583 24.8691,41.23629 39.9935,87.62015 44.5997,136.77973 1.7213,18.37113 0.7092,58.42055 -1.901,75.22027 -9.3065,59.89814 -30.8687,109.54058 -67.974,156.49616 -9.536,12.06748 -36.7954,39.3102 -49.1866,49.15655 -46.0737,36.61118 -97.1315,58.90691 -155.5,67.90315 -11.3405,1.74789 -19.414,2.21507 -42.5,2.45927 -15.675,0.16581 -29.85,0.11794 -31.5,-0.10639 z m 75.5,-10.74444 c 48.95,-8.07001 89.3361,-24.03584 128.6806,-50.87134 77.9271,-53.1513 127.5845,-137.28735 136.3799,-231.07269 0.7624,-8.13012 1.0031,-21.77364 0.6614,-37.5 -0.5924,-27.26184 -2.8395,-44.88098 -8.7247,-68.40855 C 1632.0688,175.10041 1555.008,91.17314 1454.865,56.884031 c -16.9798,-5.813897 -35.6611,-10.483649 -54.125,-13.529574 -15.4946,-2.556096 -18.3363,-2.714847 -48.4598,-2.70718 -34.5351,0.0088 -42.4402,0.794285 -70.3445,6.989851 -25.1918,5.593286 -61.2645,19.386833 -82.6308,31.596482 -86.1653,49.23861 -142.4173,129.91239 -158.1643,226.8314 -3.0517,18.78256 -4.2953,56.99979 -2.4916,76.56961 8.2787,89.81953 53.642,170.83739 125.6831,224.46734 34.61,25.76493 70.8472,42.9136 111.8027,52.90877 31.2686,7.6311 44.0635,8.99383 80.6454,8.58919 24.8925,-0.27535 30.462,-0.6387 44,-2.87061 z m -115,-159.1643 v -85.5 h -85 -85 v -66 -66 h 85 85 v -85.5 -85.5 h 66 66 v 85.5 85.5 h 86 86 v 66 66 h -86 -86 v 85.5 85.5 h -66 -66 z"
       id="path5729"
       inkscape:connector-curvature="0" />
    <path
       style="fill:#000000"
       d="m 1325.2802,676.47375 c -1.65,-0.22433 -7.275,-0.88638 -12.5,-1.47122 -57.341,-6.4183 -116.3128,-31.3784 -163.3158,-69.12426 -13.482,-10.82669 -38.1758,-35.60802 -49.1391,-49.31326 -37.2631,-46.58236 -59.9997,-100.35618 -68.7083,-162.5 -1.8088,-12.9075 -1.8088,-66.0925 0,-79 12.7,-90.62631 56.7462,-166.05375 128.3323,-219.764143 42.2522,-31.701412 93.2758,-52.544403 148.8309,-60.79697 14.5191,-2.156768 55.0542,-3.012257 71.9489,-1.51847 102.8747,9.095946 194.9247,66.723093 248.513,155.579583 24.8691,41.23629 39.9935,87.62015 44.5997,136.77973 1.7213,18.37113 0.7092,58.42055 -1.901,75.22027 -9.3065,59.89814 -30.8687,109.54058 -67.974,156.49616 -9.536,12.06748 -36.7954,39.3102 -49.1866,49.15655 -46.0737,36.61118 -97.1315,58.90691 -155.5,67.90315 -11.3405,1.74789 -19.414,2.21507 -42.5,2.45927 -15.675,0.16581 -29.85,0.11794 -31.5,-0.10639 z m 75.5,-10.74444 c 48.95,-8.07001 89.3361,-24.03584 128.6806,-50.87134 77.9271,-53.1513 127.5845,-137.28735 136.3799,-231.07269 0.7624,-8.13012 1.0031,-21.77364 0.6614,-37.5 -0.5924,-27.26184 -2.8395,-44.88098 -8.7247,-68.40855 C 1632.0688,175.10041 1555.008,91.17314 1454.865,56.884031 c -16.9798,-5.813897 -35.6611,-10.483649 -54.125,-13.529574 -15.4946,-2.556096 -18.3363,-2.714847 -48.4598,-2.70718 -34.5351,0.0088 -42.4402,0.794285 -70.3445,6.989851 -25.1918,5.593286 -61.2645,19.386833 -82.6308,31.596482 -86.1653,49.23861 -142.4173,129.91239 -158.1643,226.8314 -3.0517,18.78256 -4.2953,56.99979 -2.4916,76.56961 8.2787,89.81953 53.642,170.83739 125.6831,224.46734 34.61,25.76493 70.8472,42.9136 111.8027,52.90877 31.2686,7.6311 44.0635,8.99383 80.6454,8.58919 24.8925,-0.27535 30.462,-0.6387 44,-2.87061 z m -115,-159.1643 v -85.5 h -85 -85 v -66 -66 h 85 85 v -85.5 -85.5 h 66 66 v 85.5 85.5 h 86 86 v 66 66 h -86 -86 v 85.5 85.5 h -66 -66 z m 127,-5 v -85.5 h 86 86 v -61 -61 h -86 -86 v -85.5 -85.5 h -61 -61 v 85.5 85.5 h -85 -85 v 61 61 h 85 85 v 85.5 85.5 h 61 61 z"
       id="path5727"
       inkscape:connector-curvature="0" />
  </g>
</svg>
