<?xml version="1.0" encoding="UTF-8" standalone="no"?>
<!-- Created with Inkscape (http://www.inkscape.org/) -->

<svg
   xmlns:dc="http://purl.org/dc/elements/1.1/"
   xmlns:cc="http://creativecommons.org/ns#"
   xmlns:rdf="http://www.w3.org/1999/02/22-rdf-syntax-ns#"
   xmlns:svg="http://www.w3.org/2000/svg"
   xmlns="http://www.w3.org/2000/svg"
   xmlns:xlink="http://www.w3.org/1999/xlink"
   xmlns:sodipodi="http://sodipodi.sourceforge.net/DTD/sodipodi-0.dtd"
   xmlns:inkscape="http://www.inkscape.org/namespaces/inkscape"
   width="210mm"
   height="297mm"
   viewBox="0 0 210 297"
   version="1.1"
   id="svg8"
   inkscape:version="0.92.1 r15371"
   sodipodi:docname="Pointer.svg">
  <defs
     id="defs2">
    <linearGradient
       inkscape:collect="always"
       id="linearGradient4597">
      <stop
         style="stop-color:#f9f9f9;stop-opacity:1"
         offset="0"
         id="stop4593" />
      <stop
         id="stop4601"
         offset="0.74993122"
         style="stop-color:#e6e6e6;stop-opacity:1" />
      <stop
         style="stop-color:#b3b3b3;stop-opacity:1"
         offset="1"
         id="stop4595" />
    </linearGradient>
    <inkscape:path-effect
       effect="bspline"
       id="path-effect4591"
       is_visible="true"
       weight="33.333333"
       steps="2"
       helper_size="0"
       apply_no_weight="true"
       apply_with_weight="true"
       only_selected="false" />
    <inkscape:path-effect
       effect="bspline"
       id="path-effect4587"
       is_visible="true"
       weight="33.333333"
       steps="2"
       helper_size="0"
       apply_no_weight="true"
       apply_with_weight="true"
       only_selected="false" />
    <inkscape:path-effect
       effect="bspline"
       id="path-effect4583"
       is_visible="true"
       weight="33.333333"
       steps="2"
       helper_size="0"
       apply_no_weight="true"
       apply_with_weight="true"
       only_selected="false" />
    <inkscape:path-effect
       effect="bspline"
       id="path-effect4577"
       is_visible="true"
       weight="33.333333"
       steps="2"
       helper_size="0"
       apply_no_weight="true"
       apply_with_weight="true"
       only_selected="false" />
    <inkscape:path-effect
       effect="bspline"
       id="path-effect4573"
       is_visible="true"
       weight="33.333333"
       steps="2"
       helper_size="0"
       apply_no_weight="true"
       apply_with_weight="true"
       only_selected="false" />
    <inkscape:path-effect
       effect="bspline"
       id="path-effect4567"
       is_visible="true"
       weight="33.333333"
       steps="2"
       helper_size="0"
       apply_no_weight="true"
       apply_with_weight="true"
       only_selected="false" />
    <inkscape:path-effect
       effect="bspline"
       id="path-effect4563"
       is_visible="true"
       weight="33.333333"
       steps="2"
       helper_size="0"
       apply_no_weight="true"
       apply_with_weight="true"
       only_selected="false" />
    <inkscape:path-effect
       effect="bspline"
       id="path-effect4559"
       is_visible="true"
       weight="33.333333"
       steps="2"
       helper_size="0"
       apply_no_weight="true"
       apply_with_weight="true"
       only_selected="false" />
    <inkscape:path-effect
       effect="bspline"
       id="path-effect4555"
       is_visible="true"
       weight="33.333333"
       steps="2"
       helper_size="0"
       apply_no_weight="true"
       apply_with_weight="true"
       only_selected="false" />
    <inkscape:path-effect
       effect="bspline"
       id="path-effect4549"
       is_visible="true"
       weight="33.333333"
       steps="2"
       helper_size="0"
       apply_no_weight="true"
       apply_with_weight="true"
       only_selected="false" />
    <inkscape:path-effect
       effect="bspline"
       id="path-effect4545"
       is_visible="true"
       weight="33.333333"
       steps="2"
       helper_size="0"
       apply_no_weight="true"
       apply_with_weight="true"
       only_selected="false" />
    <inkscape:path-effect
       effect="bspline"
       id="path-effect4539"
       is_visible="true"
       weight="33.333333"
       steps="2"
       helper_size="0"
       apply_no_weight="true"
       apply_with_weight="true"
       only_selected="false" />
    <inkscape:path-effect
       effect="bspline"
       id="path-effect4535"
       is_visible="true"
       weight="33.333333"
       steps="2"
       helper_size="0"
       apply_no_weight="true"
       apply_with_weight="true"
       only_selected="false" />
    <inkscape:path-effect
       effect="bspline"
       id="path-effect4517"
       is_visible="true"
       weight="33.333333"
       steps="2"
       helper_size="0"
       apply_no_weight="true"
       apply_with_weight="true"
       only_selected="false" />
    <inkscape:path-effect
       effect="bspline"
       id="path-effect4509"
       is_visible="true"
       weight="33.333333"
       steps="2"
       helper_size="0"
       apply_no_weight="true"
       apply_with_weight="true"
       only_selected="false" />
    <linearGradient
       inkscape:collect="always"
       xlink:href="#linearGradient4597"
       id="linearGradient4599"
       x1="159.50595"
       y1="42.244049"
       x2="238.88095"
       y2="260.71429"
       gradientUnits="userSpaceOnUse"
       gradientTransform="matrix(1.2846507,0,0,0.99769729,-45.786433,18.466996)" />
  </defs>
  <sodipodi:namedview
     id="base"
     pagecolor="#ffffff"
     bordercolor="#666666"
     borderopacity="1.0"
     inkscape:pageopacity="0.0"
     inkscape:pageshadow="2"
     inkscape:zoom="0.35"
     inkscape:cx="622.10255"
     inkscape:cy="607.11882"
     inkscape:document-units="mm"
     inkscape:current-layer="layer1"
     showgrid="false"
     showguides="true"
     inkscape:window-width="1366"
     inkscape:window-height="706"
     inkscape:window-x="-8"
     inkscape:window-y="-8"
     inkscape:window-maximized="1" />
  <metadata
     id="metadata5">
    <rdf:RDF>
      <cc:Work
         rdf:about="">
        <dc:format>image/svg+xml</dc:format>
        <dc:type
           rdf:resource="http://purl.org/dc/dcmitype/StillImage" />
        <dc:title />
      </cc:Work>
    </rdf:RDF>
  </metadata>
  <g
     inkscape:label="Layer 1"
     inkscape:groupmode="layer"
     id="layer1">
    <rect
       style="opacity:1;fill:#000080;fill-opacity:1;fill-rule:nonzero;stroke:none;stroke-width:6.53761244;stroke-linecap:butt;stroke-linejoin:round;stroke-miterlimit:4;stroke-dasharray:none;stroke-dashoffset:0;stroke-opacity:1;paint-order:normal"
       id="rect4485"
       width="34.745037"
       height="157.18326"
       x="-127.83845"
       y="-264.37299" />
    <rect
       y="-191.00491"
       x="-90.796776"
       height="73.23185"
       width="34.745037"
       id="rect4487"
       style="opacity:1;fill:#000080;fill-opacity:1;fill-rule:nonzero;stroke:none;stroke-width:4.46237469;stroke-linecap:butt;stroke-linejoin:round;stroke-miterlimit:4;stroke-dasharray:none;stroke-dashoffset:0;stroke-opacity:1;paint-order:normal" />
    <rect
       style="opacity:1;fill:#000080;fill-opacity:1;fill-rule:nonzero;stroke:none;stroke-width:4.2453804;stroke-linecap:butt;stroke-linejoin:round;stroke-miterlimit:4;stroke-dasharray:none;stroke-dashoffset:0;stroke-opacity:1;paint-order:normal"
       id="rect4489"
       width="34.745037"
       height="66.282837"
       x="-53.755123"
       y="-178.76425" />
    <rect
       y="-168.12718"
       x="-16.713436"
       height="60.937447"
       width="34.745037"
       id="rect4491"
       style="opacity:1;fill:#000080;fill-opacity:1;fill-rule:nonzero;stroke:none;stroke-width:4.07059765;stroke-linecap:butt;stroke-linejoin:round;stroke-miterlimit:4;stroke-dasharray:none;stroke-dashoffset:0;stroke-opacity:1;paint-order:normal" />
    <rect
       style="opacity:1;fill:#000080;fill-opacity:1;fill-rule:nonzero;stroke:none;stroke-width:4.07059765;stroke-linecap:butt;stroke-linejoin:round;stroke-miterlimit:4;stroke-dasharray:none;stroke-dashoffset:0;stroke-opacity:1;paint-order:normal"
       id="rect4495"
       width="34.745037"
       height="60.937447"
       x="-90.796776"
       y="-117.77309" />
    <rect
       y="-56.835651"
       x="-90.796776"
       height="38.258877"
       width="34.745037"
       id="rect4497"
       style="opacity:1;fill:#000080;fill-opacity:1;fill-rule:nonzero;stroke:none;stroke-width:3.22538948;stroke-linecap:butt;stroke-linejoin:round;stroke-miterlimit:4;stroke-dasharray:none;stroke-dashoffset:0;stroke-opacity:1;paint-order:normal" />
    <rect
       style="opacity:1;fill:#000080;fill-opacity:1;fill-rule:nonzero;stroke:none;stroke-width:5.68274546;stroke-linecap:butt;stroke-linejoin:round;stroke-miterlimit:4;stroke-dasharray:none;stroke-dashoffset:0;stroke-opacity:1;paint-order:normal"
       id="rect4501"
       width="140.57837"
       height="88.612961"
       x="-132.37416"
       y="-107.18974" />
    <rect
       y="-235.59808"
       x="-73.46125"
       height="171.71344"
       width="37.803764"
       id="rect4493"
       style="opacity:1;fill:#d40000;fill-opacity:1;fill-rule:nonzero;stroke:none;stroke-width:7.12753487;stroke-linecap:butt;stroke-linejoin:round;stroke-miterlimit:4;stroke-dasharray:none;stroke-dashoffset:0;stroke-opacity:1;paint-order:normal"
       transform="matrix(0.73095097,-0.68242998,0.69125231,0.72261348,0,0)" />
    <rect
       style="opacity:1;fill:#000080;fill-opacity:1;fill-rule:nonzero;stroke:none;stroke-width:5.76757193;stroke-linecap:butt;stroke-linejoin:round;stroke-miterlimit:4;stroke-dasharray:none;stroke-dashoffset:0;stroke-opacity:1;paint-order:normal"
       id="rect4503"
       width="109.5333"
       height="75.904549"
       x="-119.87543"
       y="-44.64867" />
    <rect
       style="opacity:1;fill:#ff0000;fill-opacity:1;fill-rule:nonzero;stroke:none;stroke-width:4.34683371;stroke-linecap:butt;stroke-linejoin:round;stroke-miterlimit:4;stroke-dasharray:none;stroke-dashoffset:0;stroke-opacity:1;paint-order:normal"
       id="rect4513"
       width="34.745037"
       height="30.788364"
       x="-127.83845"
       y="-243.20633" />
    <rect
       y="-169.83823"
       x="-90.796776"
       height="43.153175"
       width="34.745037"
       id="rect4519"
       style="opacity:1;fill:#ffff00;fill-opacity:1;fill-rule:nonzero;stroke:none;stroke-width:5.1461935;stroke-linecap:butt;stroke-linejoin:round;stroke-miterlimit:4;stroke-dasharray:none;stroke-dashoffset:0;stroke-opacity:1;paint-order:normal"
       inkscape:transform-center-x="-2.2678571"
       inkscape:transform-center-y="7.4168347" />
    <rect
       inkscape:transform-center-y="5.2916667"
       inkscape:transform-center-x="-2.2678571"
       style="opacity:1;fill:#ffff00;fill-opacity:1;fill-rule:nonzero;stroke:none;stroke-width:4.34683371;stroke-linecap:butt;stroke-linejoin:round;stroke-miterlimit:4;stroke-dasharray:none;stroke-dashoffset:0;stroke-opacity:1;paint-order:normal"
       id="rect4521"
       width="34.745037"
       height="30.788364"
       x="-53.755123"
       y="-157.59756" />
    <rect
       y="-146.96053"
       x="-16.713436"
       height="30.788364"
       width="34.745037"
       id="rect4523"
       style="opacity:1;fill:#ffff00;fill-opacity:1;fill-rule:nonzero;stroke:none;stroke-width:4.34683371;stroke-linecap:butt;stroke-linejoin:round;stroke-miterlimit:4;stroke-dasharray:none;stroke-dashoffset:0;stroke-opacity:1;paint-order:normal"
       inkscape:transform-center-x="-2.2678571"
       inkscape:transform-center-y="5.2916667" />
    <rect
       y="-211.79625"
       x="-73.578796"
       height="35.828926"
       width="37.80032"
       id="rect4529"
       style="opacity:1;fill:#ffff00;fill-opacity:1;fill-rule:nonzero;stroke:none;stroke-width:4.68594408;stroke-linecap:butt;stroke-linejoin:round;stroke-miterlimit:4;stroke-dasharray:none;stroke-dashoffset:0;stroke-opacity:1;paint-order:normal"
       transform="matrix(0.72432763,-0.68945593,0.69095631,0.72289652,0,0)" />
    <rect
       style="opacity:1;fill:#000000;fill-opacity:1;fill-rule:nonzero;stroke:none;stroke-width:4.20510721;stroke-linecap:butt;stroke-linejoin:round;stroke-miterlimit:4;stroke-dasharray:none;stroke-dashoffset:0;stroke-opacity:1;paint-order:normal"
       id="rect4541"
       width="33.675961"
       height="31.003265"
       x="-128.36761"
       y="-113.53964" />
    <path
       style="fill:#000000;stroke:#000000;stroke-width:0.26458332px;stroke-linecap:butt;stroke-linejoin:miter;stroke-opacity:1"
       d="m 659.07921,200.36683 c 0,21.39729 0,53.92908 -2.0831,78.50047 -2.0831,24.57138 -6.2493,41.18214 -27.62128,49.48774 -21.37198,8.3056 -62.87183,8.3056 -89.2358,-1.75905 -26.36397,-10.06465 -39.05254,-30.1936 -52.14239,-51.85829 -13.08986,-21.66469 -25.95821,-43.79414 -34.55048,-58.5558 -8.59228,-14.76165 -12.82733,-22.0143 -8.74243,-29.11883 4.08489,-7.10452 18.28211,-15.36842 26.95319,-15.71267 8.67107,-0.34425 12.7705,6.67615 18.93394,17.54825 6.16343,10.87211 14.3908,25.59575 18.50456,7.5668 4.11375,-18.02894 4.11375,-69.52256 4.11375,-98.833102 0,-29.310541 0,-35.938143 5.87985,-39.465789 5.87984,-3.527645 17.28377,-3.527645 23.07448,-8e-5 5.79071,3.527565 5.79071,10.583281 6.17349,31.252314 0.38279,20.669037 1.14831,54.948977 1.53108,66.958147 0.38278,12.00918 0.38278,1.74647 0.38278,-6.57417 0,-8.32063 0,-16.05325 5.79075,-19.5809 5.79075,-3.52764 17.37287,-3.52764 23.16358,0.10692 5.7907,3.63456 5.7907,10.47628 6.15608,19.74437 0.36538,9.26809 1.16568,21.84084 1.54845,22.72267 0.38278,0.88184 0.38278,-9.38074 0.38278,-18.03982 0,-8.65908 0,-15.71481 5.82702,-19.24246 5.82702,-3.52764 17.3366,-3.52764 23.12731,0.11587 5.79071,3.64352 5.79071,10.46733 5.79071,19.27846 0,8.81114 0,18.77 0.38276,24.78343 0.38276,6.01343 1.14829,7.77727 1.53109,3.52738 0.3828,-4.24988 0.3828,-14.51194 0.3828,-23.17102 0,-8.65908 0,-15.71481 5.88969,-19.24245 5.88969,-3.52764 17.27393,-3.52764 23.06464,-8e-5 5.7907,3.52756 5.7907,10.58327 5.7907,19.24263 0,8.65937 0,18.92177 0,40.31906 z"
       id="path4543"
       inkscape:connector-curvature="0"
       inkscape:path-effect="#path-effect4545"
       inkscape:original-d="m 659.07921,189.23259 c 2.7e-4,32.53153 2.7e-4,65.06332 0,97.59538 -4.16601,16.61076 -8.33222,33.22152 -12.49872,49.83267 -38.57764,-0.35663 -80.07749,-2.6e-4 -120.11663,0 -12.68848,-20.1295 -25.37706,-40.25844 -38.06598,-60.38726 -12.93264,-23.52512 -26.35913,-45.33001 -39.5391,-67.99461 -4.20746,-6.74024 -8.23963,-14.11136 -12.35985,-21.16664 12.38491,-6.99 26.48686,-15.41757 39.72989,-23.12595 4.09949,7.01979 8.19891,14.04019 12.29797,21.06069 8.22782,14.72371 16.45519,29.44735 24.68238,44.17142 -0.71245,-50.78178 2.7e-4,-102.2754 0,-153.41271 -0.35609,-7.483773 2.7e-4,-14.111375 0,-21.166666 11.75969,0.818971 23.16362,-2.65e-4 34.74504,0 2.6e-4,7.05513 2.6e-4,14.110846 0,21.166666 0.76584,34.28224 1.53136,68.56218 2.29664,102.84367 2.6e-4,-10.26313 2.6e-4,-20.52584 0,-30.78836 -0.0526,-6.37875 2.6e-4,-14.11137 0,-21.16666 11.5815,-2.6e-4 23.16362,-2.6e-4 34.74503,0 -1.12162,7.26912 2.6e-4,14.11084 0,21.16666 1.37293,11.43948 1.53134,24.05309 2.29661,36.08004 2.6e-4,-10.26326 2.6e-4,-20.52584 0,-30.78836 2.6e-4,-7.05564 2.6e-4,-14.11137 0,-21.16666 11.65404,0.33817 23.16362,-2.6e-4 34.74504,0 0.7855,7.28703 2.6e-4,14.11084 0,21.16666 0.60736,10.56645 2.6e-4,20.52531 0,30.78836 0.76583,1.76367 1.53136,3.52751 2.29665,5.29166 2.6e-4,-10.26378 2.6e-4,-20.52584 0,-30.78836 2.6e-4,-7.05564 2.6e-4,-14.11137 0,-21.16665 11.77938,0.35608 23.16362,-2.7e-4 34.74503,0 2.7e-4,7.05512 2.7e-4,14.11083 0,21.16665 2.7e-4,10.26291 2.7e-4,20.52531 0,30.78836 z" />
    <path
       style="fill:#000000;stroke:#000000;stroke-width:0.26458332px;stroke-linecap:butt;stroke-linejoin:miter;stroke-opacity:1"
       d="m -362.06208,-87.159871 c 0,21.397289 0,53.929079 -2.0831,78.5004657 -2.0831,24.5713863 -6.2493,41.1821473 -28.35215,49.4877453 -22.10284,8.305598 -62.14096,8.305598 -93.50121,-12.367591 -31.36024,-20.6731896 -54.04123,-62.018909 -68.71139,-87.95133 -14.67015,-25.932421 -20.78741,-35.595274 -26.3756,-44.431279 -5.58818,-8.836 -9.52587,-15.07058 -6.66372,-21.63516 2.86215,-6.56459 14.22602,-13.57337 21.73726,-13.47828 7.51124,0.0951 11.80895,6.90051 20.95336,21.47342 9.14441,14.5729 23.13537,36.913035 30.13094,22.514252 6.99557,-14.398782 6.99557,-65.536192 6.99557,-94.632742 0,-29.09654 0,-36.15213 5.79076,-39.67978 5.79075,-3.52764 17.37287,-3.52764 23.16358,-0.26734 5.7907,3.2603 5.7907,10.85054 6.17348,31.51958 0.38279,20.66904 1.14831,54.94898 1.53108,66.95815 0.38278,12.00918 0.38278,1.74647 0.38278,-6.91261 0,-8.65908 0,-15.71482 5.79076,-19.24246 5.79075,-3.52764 17.37286,-3.52764 23.16357,-8e-5 5.7907,3.52756 5.7907,10.58328 5.7907,19.24264 0,8.65937 0,18.92177 0.38275,24.9352 0.38275,6.01343 1.14827,7.77728 1.53106,3.52739 0.3828,-4.24988 0.3828,-14.51193 0.3828,-22.64544 0,-8.13351 0,-16.24039 5.79076,-19.76803 5.79075,-3.52764 17.37286,-3.52764 23.16357,-8e-5 5.79071,3.52756 5.79071,10.58328 5.79071,19.03804 0,8.45477 0,19.12637 0.40619,25.19378 0.40618,6.06741 1.12486,7.72329 1.50766,3.4734 0.3828,-4.24988 0.3828,-14.51194 0.3828,-23.17102 0,-8.65908 0,-15.71481 5.71152,-19.24246 5.71152,-3.52764 17.4521,-3.52764 23.24281,-0.14244 5.7907,3.38521 5.7907,10.72564 5.7907,19.385 0,8.65937 0,18.92177 0,40.319059 z"
       id="path4547"
       inkscape:connector-curvature="0"
       inkscape:path-effect="#path-effect4549"
       inkscape:original-d="m -362.06208,-98.294112 c 2.7e-4,32.53153 2.7e-4,65.06332 0,97.59538002 -4.16601,16.61075998 -8.33222,33.22151998 -12.49872,49.83266998 -40.03937,-2.6e-4 -80.07749,-2.6e-4 -120.11663,0 -22.68104,-41.34655 -45.36203,-82.69227 -68.04344,-124.03801 -6.68196,-10.50453 -12.77616,-20.18198 -19.16464,-30.272568 -4.57004,-7.71901 -8.72558,-13.816 -13.08877,-20.7236 10.12717,-6.15652 21.45101,-13.23022 32.17612,-19.84494 4.29772,6.80477 8.59543,13.61019 12.89274,20.41568 13.99151,22.34033 27.98247,44.680458 41.9733,67.021088 2.7e-4,-51.137998 2.7e-4,-102.275408 0,-153.412718 2.7e-4,-7.05578 2.7e-4,-14.11137 0,-21.16666 11.58151,-2.7e-4 23.16363,-2.7e-4 34.74504,0 -0.17791,6.5206 2.7e-4,14.11084 0,21.16666 0.76584,34.28225 1.53136,68.56219 2.29664,102.84368 2.6e-4,-10.26313 2.6e-4,-20.52584 0,-30.78836 2.6e-4,-7.05564 2.6e-4,-14.11138 0,-21.16666 11.58151,-2.7e-4 23.16362,-2.7e-4 34.74503,0 2.6e-4,7.05512 2.6e-4,14.11084 0,21.16666 2.6e-4,10.26291 2.6e-4,20.52531 0,30.78836 0.76582,1.76367 1.53134,3.52752 2.29661,5.29168 2.6e-4,-10.26379 2.6e-4,-20.52584 0,-30.78836 0.42915,-6.0045 2.6e-4,-14.11138 0,-21.16666 11.58151,-2.7e-4 23.16362,-2.7e-4 34.74504,0 2.6e-4,7.05512 2.6e-4,14.11084 0,21.16666 -0.10539,9.85371 2.6e-4,20.52531 0,30.78836 1.1419,1.72875 1.53136,3.52751 2.29665,5.291658 2.6e-4,-10.263778 2.6e-4,-20.525838 0,-30.788358 2.6e-4,-7.05564 2.6e-4,-14.11137 0,-21.16666 11.42304,0.35608 23.16362,-2.6e-4 34.74503,0 -0.33638,6.77041 2.7e-4,14.11084 0,21.16666 2.7e-4,10.26291 2.7e-4,20.52531 0,30.788358 z" />
    <rect
       y="-65.831436"
       x="-135.05608"
       height="31.003265"
       width="33.675961"
       id="rect4551"
       style="opacity:1;fill:#000000;fill-opacity:1;fill-rule:nonzero;stroke:none;stroke-width:4.20510721;stroke-linecap:butt;stroke-linejoin:round;stroke-miterlimit:4;stroke-dasharray:none;stroke-dashoffset:0;stroke-opacity:1;paint-order:normal" />
    <path
       style="fill:#1a1a1a;stroke:#000000;stroke-width:0.26458332px;stroke-linecap:butt;stroke-linejoin:miter;stroke-opacity:1"
       d="m -315.3434,266.89063 c -0.75594,21.39729 -2.26785,53.92908 -6.15711,78.61406 -3.88926,24.68498 -9.98677,41.06855 -31.51314,49.37416 -21.52638,8.3056 -57.6778,8.3056 -78.01664,0 -20.33884,-8.3056 -24.50505,-24.91636 -35.61558,-45.28198 -11.11053,-20.36561 -30.08551,-45.71536 -42.53707,-63.12835 -12.45156,-17.41299 -18.83978,-27.50386 -24.21533,-36.0032 -5.37555,-8.49934 -9.73851,-15.40726 -7.08181,-21.84512 2.6567,-6.43787 14.43148,-13.70008 21.98376,-13.54001 7.55227,0.16006 11.76791,6.83552 20.91232,21.40843 9.14441,14.57291 23.13536,36.91304 30.13094,20.2464 6.99557,-16.66664 6.99557,-72.33976 6.99557,-103.12414 0,-30.78438 0,-39.00001 5.79075,-42.52765 5.79076,-3.52765 17.37287,-3.52765 23.16358,0.20195 5.79071,3.72961 5.79071,10.38124 6.17349,33.31822 0.38279,22.93698 1.1483,61.75246 1.53108,76.19157 0.38277,14.43912 0.38277,3.85225 0.38277,-4.89674 0,-8.74899 0,-15.62491 5.30535,-19.15255 5.30535,-3.52764 17.85827,-3.52764 23.64898,-0.09 5.79071,3.43766 5.79071,10.67319 6.17348,20.21454 0.38278,9.54135 1.14829,21.56758 1.53106,22.44941 0.38278,0.88184 0.38278,-9.38074 0.38278,-18.03982 0,-8.65908 0,-15.71482 5.79076,-19.24246 5.79075,-3.52764 17.37286,-3.52764 23.16357,-0.21598 5.79071,3.31167 5.79071,10.79918 6.17349,20.34053 0.38278,9.54135 1.1483,21.56757 1.53109,22.4494 0.38278,0.88183 0.38278,-9.38075 0.38278,-18.03983 0,-8.65908 0,-15.71481 5.43134,-19.24246 5.43133,-3.52764 17.73228,-3.52764 23.52299,-8e-5 5.7907,3.52757 5.7907,10.58328 5.7907,19.24264 0,8.65937 0,18.92177 -0.75595,40.31905 z"
       id="path4557"
       inkscape:connector-curvature="0"
       inkscape:path-effect="#path-effect4559"
       inkscape:original-d="m -314.58745,255.7564 c -1.51164,32.53153 -3.02355,65.06332 -4.53572,97.59538 -6.51429,16.74571 -12.36396,33.22152 -18.54634,49.83267 -36.87052,-0.11731 -73.02194,-2.6e-4 -109.5333,0 -4.16601,-16.61128 -8.33222,-33.22204 -12.49872,-49.83267 -18.1149,-24.07559 -37.02955,-49.47049 -55.54472,-74.20534 -6.38794,-10.0911 -12.77616,-20.18198 -19.16464,-30.27257 -4.36263,-6.90808 -8.72558,-13.816 -13.08876,-20.7236 9.63894,-6.02847 21.45101,-13.23022 32.17612,-19.84494 4.45719,6.88585 8.59542,13.61019 12.89274,20.41568 13.9915,22.34033 27.98246,44.68046 41.9733,67.02109 2.6e-4,-55.67372 2.6e-4,-111.34684 0,-167.01986 0.27974,-5.89574 2.6e-4,-14.11137 0,-21.16666 11.58151,-2.6e-4 23.16362,-2.6e-4 34.74504,0 0.79328,7.45921 2.6e-4,14.11084 0,21.16666 0.76583,38.81813 1.53135,77.63361 2.29663,116.45082 0.15375,-9.93897 2.7e-4,-20.52584 0,-30.78836 0.40573,-7.23546 2.7e-4,-14.11138 0,-21.16666 10.6107,0.19788 23.16362,-2.7e-4 34.74504,0 -0.34062,6.87531 2.6e-4,14.11084 0,21.16666 0.76583,12.02686 1.53134,24.05309 2.29661,36.08004 2.6e-4,-10.26326 2.6e-4,-20.52584 0,-30.78836 2.6e-4,-7.05564 2.6e-4,-14.11138 0,-21.16666 11.58151,-2.7e-4 23.16362,-2.7e-4 34.74504,0 -0.84457,6.62333 2.6e-4,14.11084 0,21.16666 0.76584,12.02686 1.53136,24.05308 2.29665,36.08002 2.6e-4,-10.26326 2.6e-4,-20.52584 0,-30.78836 2.6e-4,-7.05564 2.6e-4,-14.11137 0,-21.16666 10.86267,0.0719 23.16362,-2.6e-4 34.74503,0 2.7e-4,7.05513 2.7e-4,14.11084 0,21.16666 2.7e-4,10.26291 2.7e-4,20.52531 0,30.78836 z" />
    <path
       style="fill:#800000;stroke:#000000;stroke-width:0.26458332px;stroke-linecap:butt;stroke-linejoin:miter;stroke-opacity:1"
       d="m 383.42513,-240.68273 c -1.63788,21.39728 -4.91368,53.92906 -9.64261,78.50046 -4.72894,24.5714 -10.91101,41.18215 -32.25789,49.48775 -21.34688,8.3056 -57.85728,8.3056 -78.19612,0 -20.33884,-8.3056 -24.50506,-24.91636 -27.03516,-35.93036 -2.5301,-11.01399 -3.42408,-16.43118 -16.4329,-32.33342 -13.00882,-15.90225 -37.23875,-41.35109 -52.39669,-57.26632 -15.15793,-15.91522 -20.79699,-21.82747 -19.01093,-29.08346 1.78605,-7.25598 10.99696,-15.85546 18.37957,-17.24291 7.38261,-1.38744 12.93754,4.43724 24.41174,16.49779 11.4742,12.06054 29.63995,31.16933 38.618,18.87361 8.97805,-12.29572 9.15444,-55.58957 9.24264,-82.36786 0.0882,-26.77829 0.0882,-37.04114 0.0882,-45.56118 0,-8.52003 0,-15.85386 5.79075,-19.3815 5.79076,-3.52765 17.37287,-3.52765 23.16358,-0.11302 5.79071,3.41463 5.79071,10.69621 6.17349,33.63319 0.38279,22.93698 1.1483,61.75246 1.53108,76.0295 0.38277,14.27704 0.38277,4.01432 0.38277,-4.48269 0,-8.49701 0,-15.87689 5.79075,-19.40453 5.79076,-3.52764 17.37288,-3.52764 23.16359,-0.15298 5.7907,3.37466 5.7907,10.73618 6.17347,20.27753 0.38278,9.54135 1.14829,21.56758 1.53106,22.1705 0.38278,0.60293 0.38278,-9.10183 0.38278,-17.76091 0,-8.65908 0,-15.71482 5.79075,-19.24246 5.79076,-3.52764 17.37287,-3.52764 23.16358,-0.09 5.79071,3.43765 5.79071,10.67319 6.17349,20.21454 0.38278,9.54135 1.1483,21.56757 1.53109,22.4494 0.38278,0.88183 0.38278,-9.38075 0.38278,-18.03983 0,-8.65908 0,-15.71481 5.8093,-19.24246 5.80929,-3.52764 17.35432,-3.52764 23.14503,-7e-5 5.7907,3.52756 5.7907,10.58327 5.7907,19.24263 0,8.65937 0,18.92177 -1.63788,40.31905 z"
       id="path4565"
       inkscape:connector-curvature="0"
       inkscape:path-effect="#path-effect4567"
       inkscape:original-d="m 385.06301,-251.81696 c -3.27553,32.53153 -6.55132,65.06331 -9.82738,97.59537 -6.18191,16.61077 -12.36397,33.22152 -18.54635,49.83267 -36.51153,-2.6e-4 -73.02193,-2.6e-4 -109.53329,0 -4.16601,-16.61128 -8.33222,-33.22204 -12.49874,-49.83267 -0.8937,-5.41733 -1.78768,-10.83452 -2.68192,-16.25139 -24.90565,-26.59517 -49.35336,-51.83667 -74.03044,-77.75461 -5.63879,-5.91251 -11.27785,-11.82476 -16.91717,-17.73675 9.21115,-8.59973 18.42206,-17.19921 27.63269,-25.79842 5.55487,5.82407 11.1098,11.64875 16.6643,17.47352 17.4799,18.21457 35.55965,37.40511 53.33909,56.10807 0.17666,-43.29414 0.35305,-86.58799 0.52917,-129.88158 2.6e-4,-10.26299 2.6e-4,-20.52584 0,-30.78837 0.40573,-6.77754 2.6e-4,-14.11137 0,-21.16666 11.58151,-2.7e-4 23.16362,-2.7e-4 34.74504,0 0.16334,6.82926 2.6e-4,14.11084 0,21.16666 0.76584,38.81813 1.53135,77.63361 2.29663,116.45082 2.7e-4,-10.26312 2.7e-4,-20.52584 0,-30.78836 -0.22421,-6.7315 2.7e-4,-14.11138 0,-21.16666 11.58151,-2.7e-4 23.16363,-2.7e-4 34.74504,0 -0.0886,6.74932 2.6e-4,14.11084 0,21.16666 0.76583,12.02686 1.53134,24.05309 2.29661,36.08004 0.0278,-10.82108 2.6e-4,-20.52584 0,-30.78836 2.6e-4,-7.05564 2.6e-4,-14.11138 0,-21.16666 11.58151,-2.7e-4 23.16362,-2.7e-4 34.74504,0 -0.21462,6.8753 2.6e-4,14.11084 0,21.16666 0.76584,12.02686 1.53136,24.05308 2.29665,36.08002 2.6e-4,-10.26326 2.6e-4,-20.52584 0,-30.78836 2.6e-4,-7.05564 2.6e-4,-14.11137 0,-21.16666 11.61859,0.82781 23.16362,-2.6e-4 34.74503,0 2.7e-4,7.05513 2.7e-4,14.11084 0,21.16666 2.7e-4,10.26291 2.7e-4,20.52531 0,30.78836 z" />
    <rect
       y="-157.54387"
       x="-127.83845"
       height="30.788364"
       width="34.745037"
       id="rect4569"
       style="opacity:1;fill:#ff0000;fill-opacity:1;fill-rule:nonzero;stroke:none;stroke-width:4.34683371;stroke-linecap:butt;stroke-linejoin:round;stroke-miterlimit:4;stroke-dasharray:none;stroke-dashoffset:0;stroke-opacity:1;paint-order:normal" />
    <path
       style="fill:#808000;stroke:#000000;stroke-width:0.26458332px;stroke-linecap:butt;stroke-linejoin:miter;stroke-opacity:1"
       d="m 609.3154,-34.844019 c -3.27576,32.5315068 -6.55156,65.063296 -11.25093,89.55525 -4.69937,24.491954 -10.94057,41.261595 -31.77397,49.567199 -20.83341,8.3056 -58.37076,8.3056 -78.7096,0 C 467.24206,95.972829 463.07585,79.362069 460.49641,68.049075 457.91697,56.736081 457.12167,51.916891 445.91162,37.950666 434.70157,23.984441 413.1737,1.4671286 399.59067,-12.747207 c -13.58304,-14.214335 -19.2221,-20.126587 -17.43604,-27.382571 1.78606,-7.255984 10.99696,-15.85546 18.37957,-17.242907 7.38261,-1.387448 12.93754,4.437233 23.02987,14.999944 10.09234,10.562711 24.72222,25.863601 32.12537,6.735586 7.40314,-19.128015 7.57953,-72.684635 7.66773,-102.599685 0.0882,-29.91505 0.0882,-37.75271 5.8345,-41.28036 5.7463,-3.52764 17.41731,-3.52764 23.20802,0.013 5.79071,3.54062 5.79071,10.57023 5.79071,33.5072 0,22.93697 0,61.752457 0.39092,75.920365 0.39093,14.167908 1.14019,4.123438 1.52295,-4.247571 0.38276,-8.371008 0.38276,-16.002867 6.17352,-19.53051 5.79075,-3.527643 17.37287,-3.527643 23.16358,-8.1e-5 5.7907,3.527563 5.7907,10.583278 5.7907,19.376003 0,8.792725 0,18.788405 0.39457,24.829067 0.39457,6.040662 1.13645,7.750048 1.51924,3.500163 0.3828,-4.249885 0.3828,-14.511935 0.3828,-23.00895 0,-8.497015 0,-15.876879 5.79075,-19.404522 5.79076,-3.527643 17.37287,-3.527643 23.16358,0.09899 5.79071,3.626636 5.79071,10.484205 5.79071,19.143565 0,8.65936 0,18.92177 0.37764,24.923409 0.37764,6.001639 1.15341,7.789058 1.53621,3.539174 0.3828,-4.249883 0.3828,-14.511943 0.3828,-23.134943 0,-8.623 0,-15.75089 5.62032,-19.278533 5.62031,-3.527643 17.5433,-3.527643 23.33401,0.099 5.7907,3.626638 5.7907,10.484198 5.7907,18.898933 0,8.414735 0,19.166395 0,29.429445"
       id="path4571"
       inkscape:connector-curvature="0"
       inkscape:path-effect="#path-effect4573"
       inkscape:original-d="m 609.3154,-34.844019 c -3.27553,32.5315304 -6.55132,65.06332 -9.82738,97.59538 -6.01032,16.49373 -12.36397,33.22152 -18.54635,49.832669 -35.48458,0.009 -73.02193,-2.6e-4 -109.53329,0 -4.16601,-16.611279 -8.33222,-33.222039 -12.49873,-49.832669 -0.72818,-6.05893 -1.78768,-10.83452 -2.68192,-16.25139 -21.52589,-22.51579 -43.05376,-45.0330996 -64.58104,-67.54926 -5.63879,-5.91251 -11.27785,-11.82476 -16.91717,-17.73675 9.21116,-8.59973 18.42206,-17.19921 27.6327,-25.79842 5.55486,5.82407 11.10979,11.64875 16.66429,17.47352 14.63017,15.30065 29.26005,30.60154 43.88968,45.9027104 0.17666,-53.5569404 0.35305,-107.1135614 0.52917,-160.6699414 0.0278,-6.27372 2.6e-4,-14.11138 0,-21.16667 11.49261,0.5298 23.16362,-2.6e-4 34.74504,0 0.54131,7.08124 2.6e-4,14.11085 0,21.16667 2.6e-4,38.81812 2.6e-4,77.633607 0,116.450811 1.29728,-10.44294 1.53135,-20.52584 2.29663,-30.78836 -0.0982,-6.479515 2.7e-4,-14.111374 0,-21.16666 11.58151,-2.65e-4 23.16363,-2.65e-4 34.74504,0 2.6e-4,7.055125 2.6e-4,14.11084 0,21.16666 0.41534,10.52963 2.6e-4,20.52531 0,30.78836 1.17131,1.65241 1.53134,3.52752 2.29661,5.29168 2.6e-4,-10.26379 2.6e-4,-20.52584 0,-30.78836 0.27974,-6.73151 2.6e-4,-14.111374 0,-21.16666 11.58151,-2.65e-4 23.16362,-2.65e-4 34.74504,0 -0.4666,7.253271 2.6e-4,14.11084 0,21.16666 2.6e-4,10.2629 2.6e-4,20.52531 0,30.78836 0.66733,1.7784 1.53136,3.52751 2.29665,5.29166 2.6e-4,-10.26378 2.6e-4,-20.52584 0,-30.78836 0.15374,-6.98348 2.6e-4,-14.11137 0,-21.166656 11.24063,0.701825 23.16362,-2.65e-4 34.74503,0 -0.4666,7.253276 2.7e-4,14.110836 0,21.166656 0.28935,9.77365 2.7e-4,20.52531 0,30.78836" />
    <rect
       y="-157.59756"
       x="-53.755123"
       height="41.1474"
       width="34.745037"
       id="rect4579"
       style="opacity:1;fill:#ffff00;fill-opacity:1;fill-rule:nonzero;stroke:none;stroke-width:5.02517176;stroke-linecap:butt;stroke-linejoin:round;stroke-miterlimit:4;stroke-dasharray:none;stroke-dashoffset:0;stroke-opacity:1;paint-order:normal"
       inkscape:transform-center-x="-2.2678571"
       inkscape:transform-center-y="7.0720979" />
    <path
       style="fill:#ff0000;stroke:#000000;stroke-width:0.26458332px;stroke-linecap:butt;stroke-linejoin:miter;stroke-opacity:1"
       d="m -76.030186,477.26778 c -1.637884,16.26576 -4.91368,48.79755 -9.556535,73.13765 -4.642855,24.3401 -10.997077,41.41343 -32.019479,49.71903 -21.0224,8.3056 -58.18177,8.3056 -78.52062,0 -20.33884,-8.30559 -24.50505,-24.91635 -27.03515,-35.93035 -2.5301,-11.01399 -3.42408,-16.43118 -10.50825,-26.08081 -7.08418,-9.64962 -20.35964,-23.53306 -30.91516,-34.57367 -10.55551,-11.0406 -19.22357,-20.10934 -26.16914,-27.38224 -6.94556,-7.27289 -12.58462,-13.18514 -11.18871,-20.07689 1.39592,-6.89174 11.3871,-16.2197 18.87414,-17.49765 7.48704,-1.27795 12.83312,4.32774 22.92546,14.89045 10.09233,10.56272 24.72221,25.86361 32.12535,6.73559 7.40315,-19.12801 7.57953,-72.68464 7.66773,-102.99073 0.0882,-30.30608 0.0882,-37.36166 5.87895,-40.88931 5.79075,-3.52764 17.37287,-3.52764 23.16358,-8e-5 5.7907,3.52756 5.7907,10.58328 5.7907,33.52025 0,22.93698 0,61.75246 0.38291,81.1728 0.3829,19.42034 1.14844,19.44381 1.53108,12.0739 0.38264,-7.36992 0.38264,-21.37568 0.38264,-32.18955 0,-10.81387 0,-17.68164 5.79076,-21.20929 5.79075,-3.52765 17.37288,-3.52765 23.16359,0.11994 5.7907,3.6476 5.7907,10.46327 5.7907,21.18351 0,10.72025 0,25.1041 0.38292,32.27573 0.38291,7.17163 1.14843,7.13025 1.53107,2.01978 0.38263,-5.11046 0.38263,-15.45674 0.38263,-23.97811 0,-8.52137 0,-15.85254 5.52915,-19.38019 5.52915,-3.52765 17.63447,-3.52765 23.42518,-0.272 5.7907,3.25566 5.7907,10.85521 5.7907,21.14942 0,10.29422 0,24.19295 0.3829,31.09733 0.38289,6.90439 1.14843,6.99705 1.53109,2.09581 0.38266,-4.90124 0.38266,-15.53196 0.38266,-24.04438 0,-8.51241 0,-15.86147 6.12634,-19.38912 6.126348,-3.52764 17.037288,-3.52764 22.827993,-8e-5 5.790705,3.52757 5.790705,10.58328 5.790705,19.24264 0,8.65936 0,18.92177 0,24.05329 0,5.13153 0,5.13158 -1.637884,21.39733 z"
       id="path4581"
       inkscape:connector-curvature="0"
       inkscape:path-effect="#path-effect4583"
       inkscape:original-d="m -74.392302,461.00203 c -3.27553,32.53153 -6.55133,65.06332 -9.82739,97.59538 -5.75833,16.24174 -12.36396,33.2215 -18.546338,49.83265 -35.86257,-0.1173 -73.02194,-2.6e-4 -109.53331,0 -4.16601,-16.61127 -8.33222,-33.22203 -12.49873,-49.83265 -0.8937,-5.41734 -1.78768,-10.83453 -2.68191,-16.25139 -13.27415,-13.8826 -26.54961,-27.76604 -39.82481,-41.64866 -7.72595,-8.30362 -16.50389,-17.26733 -24.75623,-25.9006 -5.63879,-5.91252 -11.27785,-11.82477 -16.91718,-17.73676 8.43304,-7.86894 18.42206,-17.19921 27.6327,-25.79842 5.52158,6.27399 11.1098,11.64875 16.6643,17.47352 14.63017,15.30066 29.26005,30.60155 43.88968,45.90272 0.17665,-53.55694 0.35304,-107.11357 0.52916,-160.66996 2.7e-4,-7.05578 2.7e-4,-14.11136 0,-21.16665 11.58151,-2.7e-4 23.16363,-2.7e-4 34.74504,0 2.6e-4,7.05512 2.6e-4,14.11084 0,21.16665 2.6e-4,38.81814 2.6e-4,77.63362 0,116.45083 0.76582,0.0232 1.53136,0.0467 2.29663,0.0704 -0.0247,-14.76329 2.7e-4,-28.76905 0,-43.15317 0.50985,-7.24362 2.7e-4,-14.11139 0,-21.16669 11.58151,-2.6e-4 23.16364,-2.6e-4 34.74505,0 -0.29195,7.29519 2.7e-4,14.11086 0,21.16669 2.7e-4,14.38466 2.7e-4,28.76851 0,43.15317 0.76582,-0.0416 1.53134,-0.083 2.29662,-0.12415 0.18969,-10.17956 2.6e-4,-20.52584 0,-30.78836 -0.1666,-6.78022 2.6e-4,-14.11139 0,-21.16669 11.0583,0.097 23.16362,-2.7e-4 34.74503,0 0.18976,6.51131 2.7e-4,14.11086 0,21.16669 -0.25569,13.5326 2.7e-4,27.43133 0,41.1474 0.76583,0.0924 1.53137,0.18507 2.29665,0.278 0.31502,-9.89512 2.7e-4,-20.52584 0,-30.78836 0.58237,-6.76231 2.7e-4,-14.11137 0,-21.16666 12.252688,0.38215 23.163628,-2.7e-4 34.745038,0 2.6e-4,7.05513 2.6e-4,14.11084 0,21.16666 2.6e-4,10.2629 2.6e-4,20.52531 0,30.78836 z" />
    <path
       style="fill:url(#linearGradient4599);fill-opacity:1;stroke:#000000;stroke-width:5.66059303;stroke-linecap:butt;stroke-linejoin:miter;stroke-miterlimit:4;stroke-dasharray:none;stroke-opacity:1"
       d="m 322.74193,179.04503 c -2.1041,16.22829 -6.31236,48.68517 -12.39313,73.21197 -6.08077,24.52679 -14.01106,41.07531 -41.51911,49.3618 -27.50805,8.28649 -74.24166,8.28649 -100.44216,-0.2235 -26.20049,-8.50998 -31.40824,-24.63542 -34.65853,-35.62406 -3.2503,-10.98864 -4.39875,-16.39336 -18.78615,-30.31638 -14.3874,-13.92303 -42.070308,-36.41053 -59.519761,-50.59213 -17.449454,-14.1816 -24.693676,-20.08024 -22.307442,-27.38613 2.386234,-7.30589 14.035383,-15.75241 23.369662,-17.25865 9.334278,-1.50625 16.770119,4.54907 29.884361,15.20858 13.114242,10.65951 31.61029,25.68292 41.00741,28.16028 9.39711,2.47736 9.39711,-7.83326 9.51012,-34.49474 0.11301,-26.66148 0.34018,-69.894544 0.45348,-94.975525 0.1133,-25.080982 0.1133,-32.120325 7.55239,-35.639847 7.4391,-3.519522 22.31808,-3.519522 29.75712,-0.390973 7.43903,3.128549 7.43903,10.949798 7.43903,33.545013 0,22.595214 0,61.899202 0.4919,81.274822 0.4919,19.37562 1.47536,19.39902 1.96692,12.23735 0.49156,-7.16167 0.49156,-21.51775 0.49156,-31.41789 0,-9.90014 0,-18.529755 7.07973,-22.049282 7.07973,-3.519527 22.67743,-3.519527 30.11646,-8e-5 7.43903,3.519447 7.43903,10.558922 7.43903,21.398272 0,10.83934 0,24.9025 0.49191,32.05762 0.49192,7.15511 1.47535,7.11383 1.9669,1.97534 0.49155,-5.13848 0.49155,-15.38136 0.49155,-23.83867 0,-8.4573 0,-15.86048 7.16025,-19.38001 7.16025,-3.51952 22.59691,-3.51952 30.03595,-0.22692 7.43904,3.2926 7.43904,10.78577 7.43904,20.92294 0,10.13718 0,24.27057 0.4919,31.15906 0.49189,6.88848 1.47533,6.98094 1.96691,1.69112 0.49158,-5.28981 0.49158,-15.09634 0.49158,-23.73548 0,-8.63914 0,-15.67862 7.35521,-19.19815 7.35521,-3.51952 22.40195,-3.51952 29.84099,0.49307 7.43903,4.0126 7.43903,10.06576 7.43903,18.70518 0,8.63942 0,18.8782 0,23.99791 0,5.11971 0,5.1198 -2.10411,21.34809 z"
       id="path4589"
       inkscape:connector-curvature="0"
       inkscape:path-effect="#path-effect4591"
       inkscape:original-d="m 324.84604,162.81674 c -4.20791,32.45662 -8.41617,64.9135 -12.62476,97.37064 -8.31979,16.42076 -15.88337,33.14501 -23.82556,49.71791 -47.07408,-0.50758 -93.80769,-2.7e-4 -140.71205,0 -5.43388,-17.04024 -10.70399,-33.14554 -16.0565,-49.71791 -1.14809,-5.40486 -2.29654,-10.80958 -3.44532,-16.21396 C 100.40849,221.71275 72.872813,199.044 45.217777,176.5797 37.973901,170.6808 30.729679,164.78216 23.485109,158.88378 c 11.931309,-8.83094 23.665913,-17.1596 35.498368,-25.73901 6.507501,5.97046 14.272213,11.62193 21.407806,17.43328 19.285957,15.26997 37.588937,30.53108 56.382907,45.79701 3.3e-4,-10.31089 3.3e-4,-20.62151 0,-30.93186 -0.19505,-43.01482 0.45353,-86.245672 0.67979,-129.368115 3.4e-4,-7.039522 3.4e-4,-14.078865 0,-21.117909 14.87819,-2.69e-4 29.75717,-2.69e-4 44.63524,0 -0.19275,6.257098 3.4e-4,14.078347 0,21.117909 -0.87949,38.150867 3.4e-4,77.454855 0,116.182685 0.98381,0.0231 1.96726,0.0466 2.95038,0.0702 3.3e-4,-14.34673 3.3e-4,-28.70281 0,-43.05381 0.42606,-5.44928 3.3e-4,-14.078895 0,-21.117949 14.15946,0.523292 29.75716,-2.59e-4 44.63522,0 3.5e-4,7.038894 3.5e-4,14.078369 0,21.117949 -0.48952,14.63911 3.5e-4,28.70227 0,43.05381 0.98382,-0.0415 1.96725,-0.0828 2.95036,-0.12387 3.3e-4,-10.23569 3.3e-4,-20.47857 0,-30.71746 0.35821,-6.67572 3.3e-4,-14.0789 0,-21.11795 14.3205,0.36341 29.75716,-2.7e-4 44.63524,0 -0.0996,6.5852 3.3e-4,14.07837 0,21.11795 -0.5574,13.23477 3.3e-4,27.36816 0,41.05265 0.98382,0.0922 1.96726,0.18464 2.95039,0.27736 -0.85388,-10.67205 3.4e-4,-20.47858 0,-30.71747 3.4e-4,-7.03939 3.4e-4,-14.07887 0,-21.11792 14.71042,0.38127 29.75716,-2.7e-4 44.63523,0 -0.39633,8.02519 3.5e-4,14.07835 0,21.11792 3.5e-4,10.23927 3.5e-4,20.47805 0,30.71747 z"
       inkscape:export-filename="C:\Users\Blaz\Desktop\pointer.png"
       inkscape:export-xdpi="87.334129"
       inkscape:export-ydpi="87.334129" />
  </g>
</svg>
