<?xml version="1.0" encoding="UTF-8" standalone="no"?>
<!-- Created with Inkscape (http://www.inkscape.org/) -->

<svg
   xmlns:dc="http://purl.org/dc/elements/1.1/"
   xmlns:cc="http://creativecommons.org/ns#"
   xmlns:rdf="http://www.w3.org/1999/02/22-rdf-syntax-ns#"
   xmlns:svg="http://www.w3.org/2000/svg"
   xmlns="http://www.w3.org/2000/svg"
   xmlns:sodipodi="http://sodipodi.sourceforge.net/DTD/sodipodi-0.dtd"
   xmlns:inkscape="http://www.inkscape.org/namespaces/inkscape"
   width="210mm"
   height="297mm"
   viewBox="0 0 210 297"
   version="1.1"
   id="svg8"
   inkscape:version="0.92.1 r15371"
   sodipodi:docname="Shield.svg">
  <defs
     id="defs2">
    <inkscape:path-effect
       only_selected="false"
       apply_with_weight="true"
       apply_no_weight="true"
       helper_size="0"
       steps="2"
       weight="33.333333"
       is_visible="true"
       id="path-effect4530"
       effect="bspline" />
    <inkscape:path-effect
       effect="bspline"
       id="path-effect4526"
       is_visible="true"
       weight="33.333333"
       steps="2"
       helper_size="0"
       apply_no_weight="true"
       apply_with_weight="true"
       only_selected="false" />
    <inkscape:path-effect
       effect="bspline"
       id="path-effect4518"
       is_visible="true"
       weight="33.333333"
       steps="2"
       helper_size="0"
       apply_no_weight="true"
       apply_with_weight="true"
       only_selected="false" />
  </defs>
  <sodipodi:namedview
     id="base"
     pagecolor="#ffffff"
     bordercolor="#666666"
     borderopacity="1.0"
     inkscape:pageopacity="0.0"
     inkscape:pageshadow="2"
     inkscape:zoom="0.7"
     inkscape:cx="512.77042"
     inkscape:cy="550.74267"
     inkscape:document-units="mm"
     inkscape:current-layer="layer1"
     showgrid="false"
     inkscape:window-width="1366"
     inkscape:window-height="706"
     inkscape:window-x="-8"
     inkscape:window-y="-8"
     inkscape:window-maximized="1" />
  <metadata
     id="metadata5">
    <rdf:RDF>
      <cc:Work
         rdf:about="">
        <dc:format>image/svg+xml</dc:format>
        <dc:type
           rdf:resource="http://purl.org/dc/dcmitype/StillImage" />
        <dc:title></dc:title>
      </cc:Work>
    </rdf:RDF>
  </metadata>
  <g
     inkscape:label="Layer 1"
     inkscape:groupmode="layer"
     id="layer1">
    <path
       style="fill:#000080;fill-opacity:1;fill-rule:nonzero;stroke:#120000;stroke-opacity:1;stroke-width:7.55905512;stroke-miterlimit:4;stroke-dasharray:none;stroke-linejoin:round;opacity:1;stroke-dashoffset:0;stroke-linecap:butt;paint-order:normal"
       d="M 243.41894 630.09773 C 174.90539 565.39462 121.62627 505.37686 85.732595 452.46752 C 36.224726 379.49007 9.9223478 299.48791 4.0437195 204 C 3.5188855 195.475 2.7846132 169.15 2.4120033 145.5 L 1.7345309 102.5 L 20.617265 97.767873 C 96.798941 78.676288 177.24151 46.980904 248.3511 8.0378786 C 255.4192 4.1670454 262.31169 1 263.66773 1 C 265.02377 1 272.74078 4.6287883 280.81663 9.063974 C 334.16606 38.362997 397.30913 65.159867 457 83.833269 C 476.39967 89.902169 508.62259 98.878888 518.87314 101.07001 L 524.24628 102.21855 L 523.69274 153.35927 C 523.13839 204.5735 522.64122 214.10634 519.01764 243 C 512.04008 298.63764 496.39757 351.27221 472.87123 398.27536 C 448.04579 447.87397 410.13965 499.1599 352.86263 560.64359 C 335.65873 579.11101 294.30769 620.22752 274.35652 638.70443 L 263.33788 648.90886 L 243.41894 630.09773 z " />
    <path
       style="color:#000000;font-style:normal;font-variant:normal;font-weight:normal;font-stretch:normal;font-size:medium;line-height:normal;font-family:sans-serif;font-variant-ligatures:normal;font-variant-position:normal;font-variant-caps:normal;font-variant-numeric:normal;font-variant-alternates:normal;font-feature-settings:normal;text-indent:0;text-align:start;text-decoration:none;text-decoration-line:none;text-decoration-style:solid;text-decoration-color:#000000;letter-spacing:normal;word-spacing:normal;text-transform:none;writing-mode:lr-tb;direction:ltr;text-orientation:mixed;dominant-baseline:auto;baseline-shift:baseline;text-anchor:start;white-space:normal;shape-padding:0;clip-rule:nonzero;display:inline;overflow:visible;visibility:visible;opacity:1;isolation:auto;mix-blend-mode:normal;color-interpolation:sRGB;color-interpolation-filters:linearRGB;solid-color:#000000;solid-opacity:1;vector-effect:none;fill:#000080;fill-opacity:1;fill-rule:nonzero;stroke:#120000;stroke-width:2;stroke-linecap:butt;stroke-linejoin:round;stroke-miterlimit:4;stroke-dasharray:none;stroke-dashoffset:0;stroke-opacity:1;paint-order:normal;color-rendering:auto;image-rendering:auto;shape-rendering:auto;text-rendering:auto;enable-background:accumulate"
       d="m 103.83702,57.697729 a 1.3230489,1.3230489 0 0 0 -0.65629,0.17415 C 81.122789,70.478072 57.31884,79.74704 32.544218,85.376143 a 1.3230489,1.3230489 0 0 0 -1.029912,1.289844 v 5.411555 a 1.3230489,1.3230489 0 0 0 0,0.01188 c 0.02008,2.236126 0.03897,4.830625 0.05426,8.133348 0.07296,15.76133 0.06514,45.43568 17.751887,75.92457 12.93636,22.3 35.168827,44.84535 54.851437,62.80908 a 1.3230489,1.3230489 0 0 0 1.78386,0 c 19.68251,-17.96367 41.91458,-40.50911 54.85092,-62.80908 15.26103,-26.3073 17.34594,-51.98303 17.67851,-68.6754 a 1.3230489,1.3230489 0 0 0 5.3e-4,-0.0264 V 86.655647 a 1.3230489,1.3230489 0 0 0 -1.02733,-1.289328 C 152.7897,79.711806 129.09068,70.447132 107.12726,57.872396 a 1.3230489,1.3230489 0 0 0 -0.65732,-0.174667 z m 0.33797,2.645834 h 1.95595 c 21.79409,12.437363 45.27544,21.640603 69.70892,27.346134 v 19.744533 c -0.33014,16.52662 -2.38686,41.64048 -17.32142,67.38503 -12.47346,21.50205 -34.07766,43.60015 -53.45462,61.35439 C 85.686737,218.41935 64.082156,196.32133 51.608685,174.81926 34.295452,144.97425 34.287433,115.98688 34.2144,100.21038 34.19911,96.908831 34.18023,94.31498 34.16014,92.077542 v -4.37596 C 58.699828,82.020348 82.286143,72.81257 104.17499,60.343563 Z"
       id="rect4487"
       inkscape:connector-curvature="0" />
    <circle
       r="258.53571"
       cy="103.97158"
       cx="-704.84906"
       id="circle4496"
       style="opacity:1;fill:#fcffea;fill-opacity:1;fill-rule:nonzero;stroke:#7a0000;stroke-width:2.64599991;stroke-linecap:butt;stroke-linejoin:round;stroke-miterlimit:4;stroke-dasharray:none;stroke-dashoffset:0;stroke-opacity:1;paint-order:normal" />
  </g>
</svg>
