<?xml version="1.0" encoding="UTF-8" standalone="no"?>
<!-- Created with Inkscape (http://www.inkscape.org/) -->

<svg
   xmlns:dc="http://purl.org/dc/elements/1.1/"
   xmlns:cc="http://creativecommons.org/ns#"
   xmlns:rdf="http://www.w3.org/1999/02/22-rdf-syntax-ns#"
   xmlns:svg="http://www.w3.org/2000/svg"
   xmlns="http://www.w3.org/2000/svg"
   xmlns:xlink="http://www.w3.org/1999/xlink"
   xmlns:sodipodi="http://sodipodi.sourceforge.net/DTD/sodipodi-0.dtd"
   xmlns:inkscape="http://www.inkscape.org/namespaces/inkscape"
   width="210mm"
   height="297mm"
   viewBox="0 0 210 297"
   version="1.1"
   id="svg8"
   sodipodi:docname="someTexture.svg"
   inkscape:version="0.92.1 r15371">
  <defs
     id="defs2">
    <linearGradient
       inkscape:collect="always"
       id="linearGradient4753">
      <stop
         style="stop-color:#ff0000;stop-opacity:1;"
         offset="0"
         id="stop4749" />
      <stop
         style="stop-color:#ff0000;stop-opacity:0.43718594"
         offset="1"
         id="stop4751" />
    </linearGradient>
    <linearGradient
       inkscape:collect="always"
       id="linearGradient4704">
      <stop
         style="stop-color:#0000ff;stop-opacity:1"
         offset="0"
         id="stop4700" />
      <stop
         style="stop-color:#000080;stop-opacity:1"
         offset="1"
         id="stop4702" />
    </linearGradient>
    <linearGradient
       inkscape:collect="always"
       id="linearGradient4698">
      <stop
         style="stop-color:#0000ff;stop-opacity:1"
         offset="0"
         id="stop4694" />
      <stop
         style="stop-color:#000080;stop-opacity:1"
         offset="1"
         id="stop4696" />
    </linearGradient>
    <linearGradient
       inkscape:collect="always"
       id="linearGradient4692">
      <stop
         style="stop-color:#0000ff;stop-opacity:1"
         offset="0"
         id="stop4688" />
      <stop
         style="stop-color:#000080;stop-opacity:1"
         offset="1"
         id="stop4690" />
    </linearGradient>
    <linearGradient
       inkscape:collect="always"
       id="linearGradient4686">
      <stop
         style="stop-color:#0000ff;stop-opacity:1"
         offset="0"
         id="stop4682" />
      <stop
         style="stop-color:#000080;stop-opacity:1"
         offset="1"
         id="stop4684" />
    </linearGradient>
    <linearGradient
       id="linearGradient4672"
       inkscape:collect="always">
      <stop
         id="stop4668"
         offset="0"
         style="stop-color:#ff5555;stop-opacity:1" />
      <stop
         id="stop4670"
         offset="1"
         style="stop-color:#ff0000;stop-opacity:1" />
    </linearGradient>
    <linearGradient
       id="linearGradient4666"
       inkscape:collect="always">
      <stop
         id="stop4662"
         offset="0"
         style="stop-color:#ff5555;stop-opacity:1" />
      <stop
         id="stop4664"
         offset="1"
         style="stop-color:#ff0000;stop-opacity:1" />
    </linearGradient>
    <linearGradient
       id="linearGradient4660"
       inkscape:collect="always">
      <stop
         id="stop4656"
         offset="0"
         style="stop-color:#ff5555;stop-opacity:1" />
      <stop
         id="stop4658"
         offset="1"
         style="stop-color:#ff0000;stop-opacity:1" />
    </linearGradient>
    <linearGradient
       id="linearGradient4654"
       inkscape:collect="always">
      <stop
         id="stop4650"
         offset="0"
         style="stop-color:#ff5555;stop-opacity:1" />
      <stop
         id="stop4652"
         offset="1"
         style="stop-color:#ff0000;stop-opacity:1" />
    </linearGradient>
    <linearGradient
       id="linearGradient4600"
       inkscape:collect="always">
      <stop
         id="stop4596"
         offset="0"
         style="stop-color:#ffdd55;stop-opacity:1" />
      <stop
         id="stop4598"
         offset="1"
         style="stop-color:#ffcc00;stop-opacity:1" />
    </linearGradient>
    <linearGradient
       id="linearGradient4594"
       inkscape:collect="always">
      <stop
         id="stop4590"
         offset="0"
         style="stop-color:#ffdd55;stop-opacity:1" />
      <stop
         id="stop4592"
         offset="1"
         style="stop-color:#ffcc00;stop-opacity:1" />
    </linearGradient>
    <linearGradient
       id="linearGradient4588"
       inkscape:collect="always">
      <stop
         id="stop4584"
         offset="0"
         style="stop-color:#ffdd55;stop-opacity:1" />
      <stop
         id="stop4586"
         offset="1"
         style="stop-color:#ffcc00;stop-opacity:1" />
    </linearGradient>
    <linearGradient
       inkscape:collect="always"
       id="linearGradient4556">
      <stop
         style="stop-color:#ffdd55;stop-opacity:1"
         offset="0"
         id="stop4552" />
      <stop
         style="stop-color:#ffcc00;stop-opacity:1"
         offset="1"
         id="stop4554" />
    </linearGradient>
    <linearGradient
       inkscape:collect="always"
       id="linearGradient4526">
      <stop
         style="stop-color:#2a7fff;stop-opacity:1;"
         offset="0"
         id="stop4522" />
      <stop
         style="stop-color:#0066ff;stop-opacity:1"
         offset="1"
         id="stop4524" />
    </linearGradient>
    <linearGradient
       inkscape:collect="always"
       id="linearGradient4518">
      <stop
         style="stop-color:#ff9955;stop-opacity:1;"
         offset="0"
         id="stop4514" />
      <stop
         style="stop-color:#ff9955;stop-opacity:0.73604059"
         offset="1"
         id="stop4516" />
    </linearGradient>
    <linearGradient
       inkscape:collect="always"
       xlink:href="#linearGradient4518"
       id="linearGradient4520"
       x1="-84.501587"
       y1="135.61589"
       x2="-68.413689"
       y2="158.28275"
       gradientUnits="userSpaceOnUse" />
    <linearGradient
       inkscape:collect="always"
       xlink:href="#linearGradient4526"
       id="linearGradient4528"
       x1="-78.619049"
       y1="128.42262"
       x2="-62.744049"
       y2="158.28275"
       gradientUnits="userSpaceOnUse" />
    <linearGradient
       inkscape:collect="always"
       xlink:href="#linearGradient4588"
       id="linearGradient4558"
       x1="25.390606"
       y1="73.829941"
       x2="181.20874"
       y2="212.00829"
       gradientUnits="userSpaceOnUse"
       gradientTransform="matrix(0.85846746,0,0,0.85846746,0.87579742,35.002701)" />
    <linearGradient
       inkscape:collect="always"
       xlink:href="#linearGradient4594"
       id="linearGradient4560"
       x1="25.390606"
       y1="73.829941"
       x2="181.20874"
       y2="212.00829"
       gradientUnits="userSpaceOnUse"
       gradientTransform="matrix(0.85846746,0,0,0.85846746,0.87579742,35.002701)" />
    <linearGradient
       inkscape:collect="always"
       xlink:href="#linearGradient4600"
       id="linearGradient4562"
       x1="25.390606"
       y1="73.829941"
       x2="181.20874"
       y2="212.00829"
       gradientUnits="userSpaceOnUse"
       gradientTransform="matrix(0.85846746,0,0,0.85846746,0.87579742,35.002701)" />
    <linearGradient
       inkscape:collect="always"
       xlink:href="#linearGradient4556"
       id="linearGradient4564"
       x1="25.390606"
       y1="73.829941"
       x2="181.20874"
       y2="212.00829"
       gradientUnits="userSpaceOnUse"
       gradientTransform="matrix(0.85846746,0,0,0.85846746,0.87579742,35.002701)" />
    <linearGradient
       inkscape:collect="always"
       xlink:href="#linearGradient4660"
       id="linearGradient4610"
       gradientUnits="userSpaceOnUse"
       x1="-84.501595"
       y1="135.61581"
       x2="34.809044"
       y2="256.58121"
       gradientTransform="matrix(0.87164751,0,0,0.87164751,112.91176,-5.645382)" />
    <linearGradient
       inkscape:collect="always"
       xlink:href="#linearGradient4654"
       id="linearGradient4620"
       gradientUnits="userSpaceOnUse"
       x1="-183.26498"
       y1="135.61581"
       x2="-63.954342"
       y2="256.58121"
       gradientTransform="matrix(0.87164751,0,0,0.87164751,190.30517,0.78021324)" />
    <linearGradient
       inkscape:collect="always"
       xlink:href="#linearGradient4672"
       id="linearGradient4630"
       gradientUnits="userSpaceOnUse"
       x1="-183.26498"
       y1="36.852425"
       x2="-63.954342"
       y2="157.81781"
       gradientTransform="matrix(0.87164751,0,0,0.87164751,198.99862,80.44148)" />
    <linearGradient
       inkscape:collect="always"
       xlink:href="#linearGradient4666"
       id="linearGradient4640"
       gradientUnits="userSpaceOnUse"
       x1="-84.501595"
       y1="36.852425"
       x2="34.809044"
       y2="157.81781"
       gradientTransform="matrix(0.87164751,0,0,0.87164751,112.91176,80.44148)" />
    <linearGradient
       inkscape:collect="always"
       xlink:href="#linearGradient4704"
       id="linearGradient4674"
       x1="44.86277"
       y1="98.856079"
       x2="145.52083"
       y2="218.38095"
       gradientUnits="userSpaceOnUse" />
    <linearGradient
       inkscape:collect="always"
       xlink:href="#linearGradient4698"
       id="linearGradient4676"
       x1="44.86277"
       y1="98.856079"
       x2="145.52083"
       y2="218.38095"
       gradientUnits="userSpaceOnUse" />
    <linearGradient
       inkscape:collect="always"
       xlink:href="#linearGradient4692"
       id="linearGradient4678"
       x1="44.86277"
       y1="98.856079"
       x2="145.52083"
       y2="218.38095"
       gradientUnits="userSpaceOnUse"
       gradientTransform="translate(-8.6934524,6.4255952)" />
    <linearGradient
       inkscape:collect="always"
       xlink:href="#linearGradient4686"
       id="linearGradient4680"
       x1="44.86277"
       y1="98.856079"
       x2="145.52083"
       y2="218.38095"
       gradientUnits="userSpaceOnUse" />
    <linearGradient
       inkscape:collect="always"
       xlink:href="#linearGradient4753"
       id="linearGradient4755"
       x1="168.1994"
       y1="239.54762"
       x2="13.985119"
       y2="83.065475"
       gradientUnits="userSpaceOnUse"
       gradientTransform="matrix(0.98487915,0,0,0.98487915,0.07330912,3.7598257)" />
  </defs>
  <sodipodi:namedview
     id="base"
     pagecolor="#ffffff"
     bordercolor="#666666"
     borderopacity="1.0"
     inkscape:pageopacity="0.0"
     inkscape:pageshadow="2"
     inkscape:zoom="0.7"
     inkscape:cx="410.29561"
     inkscape:cy="474.13501"
     inkscape:document-units="mm"
     inkscape:current-layer="layer1"
     showgrid="false"
     inkscape:window-width="1366"
     inkscape:window-height="706"
     inkscape:window-x="-8"
     inkscape:window-y="-8"
     inkscape:window-maximized="1" />
  <metadata
     id="metadata5">
    <rdf:RDF>
      <cc:Work
         rdf:about="">
        <dc:format>image/svg+xml</dc:format>
        <dc:type
           rdf:resource="http://purl.org/dc/dcmitype/StillImage" />
      </cc:Work>
    </rdf:RDF>
  </metadata>
  <g
     inkscape:label="Layer 1"
     inkscape:groupmode="layer"
     id="layer1">
    <rect
       style="opacity:1;fill:#d40000;fill-opacity:1;fill-rule:nonzero;stroke:none;stroke-width:0.85846746;stroke-linecap:butt;stroke-linejoin:round;stroke-miterlimit:4;stroke-dasharray:none;stroke-dashoffset:0;stroke-opacity:1;paint-order:normal"
       id="rect4485"
       width="169.37871"
       height="169.37871"
       x="6.325532"
       y="77.795769"
       ry="0"
       inkscape:export-xdpi="75.463058"
       inkscape:export-ydpi="75.463058"
       inkscape:export-filename="C:\Users\Blaz\Desktop\Texture3.png" />
    <g
       id="g4532"
       transform="translate(13.607139,-38.553571)">
      <circle
         r="22.536736"
         cy="141.88791"
         cx="-72.844681"
         id="path4494"
         style="opacity:1;fill:url(#linearGradient4528);fill-opacity:1;fill-rule:nonzero;stroke:none;stroke-width:0.68142563;stroke-linecap:butt;stroke-linejoin:round;stroke-miterlimit:4;stroke-dasharray:none;stroke-dashoffset:0;stroke-opacity:1;paint-order:normal" />
      <path
         inkscape:connector-curvature="0"
         id="path4487"
         d="m -78.069389,119.88959 a 22.665515,22.665515 0 0 0 -14.556635,10.73862 22.665515,22.665515 0 0 0 8.296364,30.96149 22.665515,22.665515 0 0 0 30.961631,-8.29588 22.665515,22.665515 0 0 0 2.267062,-5.50634 c -0.06514,-0.0435 -0.130207,-0.0864 -0.197375,-0.13916 -1.489201,-1.16895 -0.249756,-0.28166 -1.080877,-1.21892 -0.05697,-0.0643 -0.148571,-0.0858 -0.222929,-0.12871 l -0.446149,-0.25759 -1.561392,-0.90147 -0.892313,-0.51517 -0.669078,-0.3863 c -0.07435,-0.0429 -0.137226,-0.12356 -0.222929,-0.1287 -0.121198,-0.007 -0.232979,0.11838 -0.351936,0.094 -0.245831,-0.0503 -0.867127,-0.59311 -1.115234,-0.64388 -0.188081,-0.0385 -0.386955,0.004 -0.575035,-0.0344 -0.146643,-0.03 -0.817098,-0.53533 -0.892313,-0.51517 -0.08293,0.0222 -0.043,0.22806 -0.128701,0.22292 -0.171406,-0.0103 -0.283201,-0.20239 -0.44585,-0.2574 -0.257184,-0.087 -0.53725,-0.0886 -0.79827,-0.16325 -0.08255,-0.0236 -0.138813,-0.11149 -0.222928,-0.1287 -0.376154,-0.077 -0.773562,0.008 -1.149722,-0.0693 -0.08411,-0.0172 -0.137219,-0.12357 -0.222922,-0.1287 -0.121198,-0.007 -0.230949,0.0865 -0.352113,0.0943 -0.532439,0.0343 -0.465782,0.0283 -0.797786,-0.16338 -0.07435,-0.0429 -0.137225,-0.12355 -0.222921,-0.1287 -0.121206,-0.007 -0.230922,0.10162 -0.352113,0.0944 -0.0857,-0.005 -0.139993,-0.15092 -0.222929,-0.12871 -0.08294,0.0222 -0.04579,0.20071 -0.128708,0.22293 -0.08292,0.0222 -0.140291,-0.1511 -0.223228,-0.12889 -0.08294,0.0222 -0.08595,0.14888 -0.128878,0.22324 -0.03121,0.0541 -0.389298,0.65779 -0.386293,0.66908 0.02221,0.0829 0.201,0.0459 0.223228,0.12887 0.02222,0.0829 -0.123536,0.13725 -0.128708,0.22293 -0.0073,0.12119 0.101308,0.23073 0.09404,0.35194 -0.02378,0.39649 -0.385169,0.0437 -0.03434,0.57503 0.04729,0.0717 0.2007,0.0458 0.222922,0.12871 0.04715,0.17592 -0.433428,0.49316 -0.386294,0.66908 0.02222,0.0829 0.148572,0.0858 0.222929,0.12871 -0.01152,0.19163 -0.02283,0.38341 -0.03434,0.57504 -0.0325,0.15858 -0.647818,1.12204 -0.772587,1.33816 -0.180332,0.31233 -0.942357,1.72652 -1.03035,1.78461 -0.101321,0.0669 -0.250608,0.0271 -0.351942,0.094 -0.07162,0.0474 -0.05724,0.17591 -0.128878,0.22323 -0.101328,0.0669 -0.250302,0.0273 -0.35163,0.0942 -0.07162,0.0474 -0.04579,0.2007 -0.128707,0.22293 -0.185437,0.0497 -0.389605,-0.084 -0.575035,-0.0343 -0.185436,0.0497 -0.30397,0.24204 -0.480514,0.31745 -0.223317,0.0954 -0.477564,0.1002 -0.703742,0.18856 -0.288332,0.11266 -0.554967,0.27429 -0.83245,0.4115 -0.08586,0.1487 -0.114296,0.35154 -0.257586,0.44615 -0.07166,0.0473 -0.137246,-0.12353 -0.222929,-0.1287 -0.121198,-0.007 -0.250601,0.0271 -0.351935,0.094 -0.07162,0.0473 -0.05717,0.17594 -0.128878,0.22323 -1.000129,0.66031 0.153109,-0.22971 -0.574865,-0.0347 -0.08294,0.0222 -0.04579,0.2007 -0.128707,0.22292 -0.08293,0.0222 -0.137199,-0.12359 -0.222922,-0.1287 -0.121192,-0.007 -0.230908,0.10162 -0.352113,0.0943 -0.07559,-0.005 -0.775367,-0.44765 -0.892007,-0.515 -0.100456,-0.058 -0.621092,-0.31334 -0.669385,-0.38646 -0.06692,-0.10133 -0.02712,-0.25061 -0.09404,-0.35194 -0.09461,-0.14329 -0.351548,-0.1143 -0.446157,-0.25759 -0.06692,-0.10133 -0.02733,-0.25029 -0.09422,-0.35163 -0.04729,-0.0716 -0.201006,-0.0459 -0.223228,-0.12888 -0.02221,-0.0829 0.150929,-0.13999 0.128708,-0.22292 -0.02222,-0.0829 -0.175603,-0.0571 -0.222929,-0.12871 -0.06692,-0.10133 -0.02746,-0.25078 -0.09434,-0.35212 -0.04729,-0.0716 -0.2007,-0.0458 -0.222928,-0.1287 -0.04443,-0.16586 0.302021,-0.2803 0.257585,-0.44615 -0.02221,-0.0829 -0.175603,-0.0571 -0.222921,-0.12871 -0.350819,-0.53134 0.01056,-0.17854 0.03434,-0.57504 0.0048,-0.0763 -0.240666,-0.99155 -0.282785,-1.05537 -0.04729,-0.0716 -0.201007,-0.0459 -0.223235,-0.12888 -0.02222,-0.0829 0.150936,-0.13999 0.128707,-0.22293 -0.02221,-0.0829 -0.2007,-0.0458 -0.222921,-0.1287 -0.02222,-0.0829 0.151106,-0.14029 0.128878,-0.22324 -0.04443,-0.16585 -0.401714,-0.0917 -0.44615,-0.25758 -0.02221,-0.0829 0.150922,-0.13999 0.128701,-0.22292 -0.04443,-0.16586 -0.401714,-0.0917 -0.446157,-0.2576 -0.02221,-0.0829 0.151106,-0.14029 0.128885,-0.22322 -0.02221,-0.0829 -0.175603,-0.0571 -0.222928,-0.12871 -0.06692,-0.10132 -0.0276,-0.25048 -0.09452,-0.35181 -0.04729,-0.0717 -0.2007,-0.0458 -0.222928,-0.12871 -0.02222,-0.0829 0.150936,-0.13998 0.128708,-0.22292 -0.0027,-0.0113 -0.614967,-0.35505 -0.669079,-0.38629 l -0.223228,-0.12889 c -0.07436,-0.0429 -0.200707,-0.0458 -0.222928,-0.1287 -0.02222,-0.0829 0.151106,-0.1403 0.128885,-0.22323 -0.02222,-0.0829 -0.148878,-0.086 -0.223236,-0.12889 l -1.338156,-0.77258 c -0.07435,-0.0429 -0.201007,-0.0459 -0.223235,-0.12888 -0.02221,-0.0829 0.150936,-0.13999 0.128708,-0.22293 -0.04443,-0.16586 -0.351241,-0.11412 -0.44585,-0.25741 -0.06692,-0.10133 -0.02746,-0.25078 -0.09434,-0.35211 -0.06289,-0.0953 -0.6498,-0.31434 -0.669085,-0.38629 -0.02221,-0.0829 0.150929,-0.13999 0.128708,-0.22293 -0.02222,-0.0829 -0.148878,-0.086 -0.223235,-0.12888 -0.105171,-0.0607 -1.110908,-0.62793 -1.115228,-0.64388 -0.02222,-0.0829 0.151106,-0.1403 0.128878,-0.22324 -0.01928,-0.0719 -0.606169,-0.29101 -0.669078,-0.38629 -0.06692,-0.10132 -0.02733,-0.25031 -0.09422,-0.35163 -0.09461,-0.14329 -0.401714,-0.0917 -0.446157,-0.25759 -0.02221,-0.0829 0.150936,-0.13999 0.128708,-0.22292 -0.04443,-0.16586 -0.351548,-0.1143 -0.446157,-0.25759 -0.06692,-0.10133 -0.02746,-0.25079 -0.09435,-0.35211 -0.04729,-0.0717 -0.200693,-0.0458 -0.222921,-0.12871 -0.02222,-0.0829 0.150935,-0.13999 0.128707,-0.22292 -0.02221,-0.0829 -0.175624,-0.057 -0.222928,-0.12871 -0.06692,-0.10132 -0.02746,-0.25079 -0.09434,-0.35211 -0.04729,-0.0717 -0.2007,-0.0458 -0.222928,-0.12871 -0.02221,-0.0829 0.150936,-0.13999 0.128708,-0.22292 -0.195065,-0.72797 -0.389081,0.71547 -0.317279,-0.48082 0.0055,-0.0857 0.176012,-0.15128 0.128708,-0.22292 -0.09461,-0.1433 -0.297449,-0.17174 -0.44615,-0.25759 0.04293,-0.0744 0.150929,-0.14 0.128701,-0.22293 -0.02222,-0.0829 -0.2007,-0.0458 -0.222922,-0.1287 -0.02221,-0.0829 0.123706,-0.13755 0.128878,-0.22323 0.01458,-0.2424 -0.172939,-0.46142 -0.188564,-0.70374 -0.01233,-0.19158 0.02283,-0.38341 0.03434,-0.57504 0.04293,-0.0744 0.12359,-0.13721 0.128708,-0.22293 0.0073,-0.1212 -0.101485,-0.23043 -0.09422,-0.35163 0.01029,-0.1714 0.302028,-0.28029 0.257586,-0.44615 -0.02222,-0.0829 -0.201,-0.0459 -0.223229,-0.12889 -0.04443,-0.16586 0.247297,-0.27475 0.257586,-0.44615 0.01458,-0.24239 -0.236945,-0.46566 -0.188257,-0.70357 2.25e-4,-0.001 0.386354,-0.66883 0.386286,-0.66908 -0.02221,-0.0829 -0.201,-0.0459 -0.223228,-0.12888 -0.02221,-0.0829 0.08595,-0.14887 0.128885,-0.22323 l 0.128701,-0.22292 1.030356,-1.78462 0.772587,-1.33817 c 0.04293,-0.0743 0.04593,-0.20101 0.128878,-0.22322 0.08293,-0.0222 0.140299,0.1511 0.223235,0.12887 0.01417,-0.004 0.467703,-0.81008 0.514994,-0.892 0.109035,-0.18885 0.405994,-0.79546 0.515179,-0.89231 0.09084,-0.0806 0.250301,-0.0273 0.351629,-0.0942 0.09526,-0.0629 0.314526,-0.65012 0.38647,-0.66938 0.08292,-0.0222 0.139993,0.15092 0.222929,0.1287 0.08294,-0.0222 0.08578,-0.14857 0.128701,-0.22293 0.06072,-0.10517 0.627968,-1.11095 0.643886,-1.11523 0.08293,-0.0222 0.140292,0.1511 0.223228,0.12888 0.08294,-0.0222 0.08595,-0.14887 0.128885,-0.22323 0.05799,-0.10045 0.381032,-0.5816 0.386293,-0.66908 0.0073,-0.1212 -0.101791,-0.2306 -0.09453,-0.35181 0.0055,-0.0857 0.151106,-0.14029 0.128885,-0.22322 -0.02221,-0.0829 -0.200701,-0.0458 -0.222929,-0.12871 -0.01928,-0.0719 0.379438,-0.55512 0.386294,-0.66908 0.0073,-0.1212 -0.101308,-0.23073 -0.09404,-0.35194 0.01029,-0.17139 0.301858,-0.27998 0.257415,-0.44584 -0.02221,-0.0829 -0.201007,-0.0459 -0.223228,-0.12889 -0.02944,-0.10984 0.111475,-0.19737 0.197845,-0.29197 z"
         style="opacity:1;fill:url(#linearGradient4520);fill-opacity:1;fill-rule:nonzero;stroke:none;stroke-width:0.68142563;stroke-linecap:butt;stroke-linejoin:round;stroke-miterlimit:4;stroke-dasharray:none;stroke-dashoffset:0;stroke-opacity:1;paint-order:normal" />
    </g>
    <rect
       style="opacity:1;fill:url(#linearGradient4558);fill-opacity:1;fill-rule:nonzero;stroke:none;stroke-width:0.85846746;stroke-linecap:butt;stroke-linejoin:round;stroke-miterlimit:4;stroke-dasharray:none;stroke-dashoffset:0;stroke-opacity:0.7360406;paint-order:normal"
       id="rect4542"
       width="84.593536"
       height="84.593536"
       x="6.3255315"
       y="77.795769"
       ry="3.4416327"
       inkscape:export-xdpi="75.463058"
       inkscape:export-ydpi="75.463058"
       inkscape:export-filename="C:\Users\Blaz\Desktop\Texture3.png" />
    <rect
       ry="3.4416327"
       y="77.795769"
       x="91.110687"
       height="84.593536"
       width="84.593536"
       id="rect4546"
       style="opacity:1;fill:url(#linearGradient4560);fill-opacity:1;fill-rule:nonzero;stroke:none;stroke-width:0.85846746;stroke-linecap:butt;stroke-linejoin:round;stroke-miterlimit:4;stroke-dasharray:none;stroke-dashoffset:0;stroke-opacity:0.7360406;paint-order:normal"
       inkscape:export-xdpi="75.463058"
       inkscape:export-ydpi="75.463058"
       inkscape:export-filename="C:\Users\Blaz\Desktop\Texture3.png" />
    <rect
       style="opacity:1;fill:url(#linearGradient4562);fill-opacity:1;fill-rule:nonzero;stroke:none;stroke-width:0.85846746;stroke-linecap:butt;stroke-linejoin:round;stroke-miterlimit:4;stroke-dasharray:none;stroke-dashoffset:0;stroke-opacity:0.7360406;paint-order:normal"
       id="rect4548"
       width="84.593536"
       height="84.593536"
       x="91.110687"
       y="162.58092"
       ry="3.4416327"
       inkscape:export-xdpi="75.463058"
       inkscape:export-ydpi="75.463058"
       inkscape:export-filename="C:\Users\Blaz\Desktop\Texture3.png" />
    <rect
       ry="3.4416327"
       y="162.58092"
       x="6.325532"
       height="84.593536"
       width="84.593536"
       id="rect4550"
       style="opacity:1;fill:url(#linearGradient4564);fill-opacity:1;fill-rule:nonzero;stroke:none;stroke-width:0.85846746;stroke-linecap:butt;stroke-linejoin:round;stroke-miterlimit:4;stroke-dasharray:none;stroke-dashoffset:0;stroke-opacity:0.7360406;paint-order:normal"
       inkscape:export-xdpi="75.463058"
       inkscape:export-ydpi="75.463058"
       inkscape:export-filename="C:\Users\Blaz\Desktop\Texture3.png" />
    <g
       id="g4765"
       transform="matrix(0.98487915,0,0,0.98487915,8.955348,12.485971)"
       inkscape:export-filename="C:\Users\Blaz\Desktop\Texture3.png"
       inkscape:export-xdpi="75.463058"
       inkscape:export-ydpi="75.463058">
      <circle
         inkscape:export-ydpi="75"
         inkscape:export-xdpi="75"
         style="opacity:1;fill:url(#linearGradient4680);fill-opacity:1;fill-rule:nonzero;stroke:none;stroke-width:0.59396297;stroke-linecap:butt;stroke-linejoin:round;stroke-miterlimit:4;stroke-dasharray:none;stroke-dashoffset:0;stroke-opacity:1;paint-order:normal"
         id="circle4602"
         cx="49.416874"
         cy="118.03086"
         r="19.644089" />
      <path
         inkscape:export-ydpi="75"
         inkscape:export-xdpi="75"
         style="opacity:1;fill:url(#linearGradient4610);fill-opacity:1;fill-rule:nonzero;stroke:none;stroke-width:0.59396297;stroke-linecap:butt;stroke-linejoin:round;stroke-miterlimit:4;stroke-dasharray:none;stroke-dashoffset:0;stroke-opacity:1;paint-order:normal"
         d="m 44.862771,98.856081 a 19.75634,19.75634 0 0 0 -12.688254,9.360289 19.75634,19.75634 0 0 0 7.231505,26.98751 19.75634,19.75634 0 0 0 26.987628,-7.23109 19.75634,19.75634 0 0 0 1.976079,-4.79958 c -0.05678,-0.0379 -0.113494,-0.0753 -0.172041,-0.1213 -1.298058,-1.01891 -0.217699,-0.24551 -0.942144,-1.06247 -0.04966,-0.056 -0.129501,-0.0748 -0.194315,-0.11219 l -0.388885,-0.22453 -1.360983,-0.78576 -0.777783,-0.44905 -0.5832,-0.33672 c -0.06481,-0.0374 -0.119613,-0.1077 -0.194316,-0.11218 -0.105641,-0.006 -0.203075,0.10319 -0.306764,0.0819 -0.214278,-0.0439 -0.755829,-0.51698 -0.972091,-0.56124 -0.16394,-0.0336 -0.337288,0.003 -0.501227,-0.03 -0.127821,-0.0261 -0.712222,-0.46662 -0.777783,-0.44905 -0.07229,0.0194 -0.03748,0.19879 -0.112182,0.19431 -0.149405,-0.009 -0.246851,-0.17641 -0.388624,-0.22436 -0.224174,-0.0758 -0.468292,-0.0772 -0.69581,-0.1423 -0.07195,-0.0206 -0.120996,-0.0972 -0.194314,-0.11218 -0.327874,-0.0671 -0.674274,0.007 -1.002153,-0.0604 -0.07331,-0.015 -0.119606,-0.10771 -0.194309,-0.11218 -0.105642,-0.006 -0.201306,0.0754 -0.306919,0.0822 -0.464099,0.0299 -0.405997,0.0247 -0.695388,-0.14241 -0.06481,-0.0374 -0.119612,-0.10769 -0.194308,-0.11218 -0.105649,-0.006 -0.201283,0.0886 -0.306919,0.0823 -0.0747,-0.004 -0.122024,-0.13155 -0.194315,-0.11219 -0.0723,0.0194 -0.03991,0.17495 -0.112188,0.19432 -0.07228,0.0194 -0.122285,-0.13171 -0.194576,-0.11235 -0.07229,0.0194 -0.07492,0.12977 -0.112337,0.19459 -0.0272,0.0472 -0.33933,0.57336 -0.336711,0.5832 0.01936,0.0723 0.175201,0.04 0.194576,0.11233 0.01937,0.0723 -0.10768,0.11963 -0.112188,0.19432 -0.0064,0.10563 0.08831,0.20111 0.08197,0.30676 -0.02073,0.3456 -0.335732,0.0381 -0.02993,0.50123 0.04122,0.0625 0.174939,0.0399 0.194309,0.11219 0.0411,0.15334 -0.377796,0.42986 -0.336712,0.5832 0.01937,0.0723 0.129502,0.0748 0.194315,0.11219 -0.01004,0.16703 -0.0199,0.3342 -0.02993,0.50123 -0.02833,0.13823 -0.564669,0.97802 -0.673424,1.1664 -0.157186,0.27225 -0.821403,1.50492 -0.898102,1.55555 -0.08832,0.0583 -0.218441,0.0236 -0.306769,0.0819 -0.06243,0.0413 -0.04989,0.15333 -0.112336,0.19458 -0.08832,0.0583 -0.218175,0.0238 -0.306498,0.0821 -0.06243,0.0413 -0.03991,0.17494 -0.112187,0.19431 -0.161635,0.0433 -0.339598,-0.0732 -0.501228,-0.0299 -0.161634,0.0433 -0.264954,0.21097 -0.418838,0.2767 -0.194654,0.0832 -0.416268,0.0873 -0.613415,0.16436 -0.251324,0.0982 -0.483736,0.23908 -0.725603,0.35868 -0.07484,0.12961 -0.09963,0.30642 -0.224525,0.38889 -0.06246,0.0412 -0.11963,-0.10768 -0.194315,-0.11218 -0.105642,-0.006 -0.218436,0.0236 -0.306763,0.0819 -0.06243,0.0412 -0.04983,0.15336 -0.112337,0.19458 -0.871759,0.57556 0.133458,-0.20023 -0.501079,-0.0302 -0.0723,0.0194 -0.03991,0.17494 -0.112187,0.19431 -0.07229,0.0194 -0.119589,-0.10773 -0.19431,-0.11218 -0.105636,-0.006 -0.20127,0.0886 -0.306918,0.0822 -0.06589,-0.004 -0.675847,-0.3902 -0.777516,-0.4489 -0.08756,-0.0506 -0.541373,-0.27313 -0.583468,-0.33686 -0.05833,-0.0883 -0.02364,-0.21844 -0.08197,-0.30677 -0.08247,-0.1249 -0.306426,-0.0996 -0.388892,-0.22453 -0.05833,-0.0883 -0.02382,-0.21816 -0.08213,-0.30649 -0.04122,-0.0624 -0.175206,-0.04 -0.194576,-0.11234 -0.01936,-0.0723 0.131557,-0.12202 0.112188,-0.19431 -0.01937,-0.0723 -0.153064,-0.0498 -0.194315,-0.11219 -0.05833,-0.0883 -0.02394,-0.21859 -0.08223,-0.30692 -0.04122,-0.0624 -0.17494,-0.0399 -0.194315,-0.11218 -0.03873,-0.14458 0.263256,-0.24433 0.224523,-0.38889 -0.01936,-0.0723 -0.153064,-0.0498 -0.194308,-0.11219 -0.305791,-0.46314 0.0092,-0.15562 0.02993,-0.50123 0.0042,-0.0665 -0.209776,-0.86428 -0.246489,-0.91991 -0.04122,-0.0624 -0.175207,-0.04 -0.194582,-0.11234 -0.01937,-0.0723 0.131563,-0.12202 0.112187,-0.19432 -0.01936,-0.0723 -0.174939,-0.0399 -0.194308,-0.11218 -0.01937,-0.0723 0.131711,-0.12228 0.112336,-0.19458 -0.03873,-0.14457 -0.350153,-0.0799 -0.388886,-0.22452 -0.01936,-0.0723 0.131551,-0.12202 0.112182,-0.19431 -0.03873,-0.14457 -0.350153,-0.0799 -0.388891,-0.22454 -0.01936,-0.0723 0.131711,-0.12228 0.112342,-0.19457 -0.01936,-0.0723 -0.153064,-0.0498 -0.194315,-0.11219 -0.05833,-0.0883 -0.02406,-0.21833 -0.08239,-0.30665 -0.04122,-0.0625 -0.17494,-0.0399 -0.194315,-0.11219 -0.01937,-0.0723 0.131563,-0.12201 0.112188,-0.19431 -0.0024,-0.01 -0.536034,-0.30948 -0.583201,-0.33671 l -0.194576,-0.11234 c -0.06481,-0.0374 -0.174945,-0.0399 -0.194314,-0.11218 -0.01937,-0.0723 0.131711,-0.1223 0.112342,-0.19458 -0.01937,-0.0723 -0.129769,-0.075 -0.194583,-0.11235 l -1.166401,-0.67342 c -0.06481,-0.0374 -0.175207,-0.04 -0.194582,-0.11233 -0.01936,-0.0723 0.131563,-0.12203 0.112188,-0.19432 -0.03873,-0.14457 -0.306158,-0.0995 -0.388624,-0.22437 -0.05833,-0.0883 -0.02394,-0.21859 -0.08223,-0.30692 -0.05482,-0.0831 -0.566397,-0.27399 -0.583206,-0.33671 -0.01936,-0.0723 0.131557,-0.12202 0.112188,-0.19431 -0.01937,-0.0723 -0.129769,-0.075 -0.194582,-0.11234 -0.09167,-0.0529 -0.968321,-0.54733 -0.972086,-0.56124 -0.01937,-0.0723 0.131711,-0.12229 0.112336,-0.19458 -0.0168,-0.0627 -0.528366,-0.25366 -0.5832,-0.33671 -0.05833,-0.0883 -0.02382,-0.21818 -0.08213,-0.3065 -0.08247,-0.1249 -0.350153,-0.0799 -0.388891,-0.22453 -0.01936,-0.0723 0.131563,-0.12202 0.112188,-0.1943 -0.03873,-0.14458 -0.306426,-0.0996 -0.388892,-0.22453 -0.05833,-0.0883 -0.02394,-0.2186 -0.08224,-0.30692 -0.04122,-0.0625 -0.174934,-0.0399 -0.194309,-0.11219 -0.01937,-0.0723 0.131563,-0.12202 0.112188,-0.19431 -0.01936,-0.0722 -0.153083,-0.0497 -0.194315,-0.11219 -0.05833,-0.0883 -0.02394,-0.2186 -0.08223,-0.30691 -0.04122,-0.0625 -0.17494,-0.0399 -0.194315,-0.11219 -0.01936,-0.0723 0.131563,-0.12202 0.112188,-0.19431 -0.170028,-0.63453 -0.339141,0.62364 -0.276555,-0.4191 0.0048,-0.0747 0.15342,-0.13187 0.112188,-0.19431 -0.08247,-0.12491 -0.259271,-0.1497 -0.388886,-0.22453 0.03742,-0.0648 0.131557,-0.12203 0.112182,-0.19432 -0.01937,-0.0723 -0.17494,-0.0399 -0.194309,-0.11218 -0.01936,-0.0723 0.107828,-0.11989 0.112336,-0.19457 0.01271,-0.21129 -0.150742,-0.4022 -0.164362,-0.61342 -0.01075,-0.16699 0.0199,-0.3342 0.02993,-0.50123 0.03742,-0.0648 0.107727,-0.1196 0.112188,-0.19432 0.0064,-0.10564 -0.08846,-0.20085 -0.08213,-0.30649 0.009,-0.1494 0.263262,-0.24432 0.224524,-0.38889 -0.01937,-0.0723 -0.175201,-0.04 -0.194577,-0.11235 -0.03873,-0.14457 0.215556,-0.23948 0.224525,-0.38888 0.01271,-0.21128 -0.206533,-0.40589 -0.164094,-0.61327 1.96e-4,-8.7e-4 0.336764,-0.58298 0.336705,-0.5832 -0.01936,-0.0723 -0.175201,-0.04 -0.194576,-0.11234 -0.01936,-0.0723 0.07492,-0.12976 0.112342,-0.19457 l 0.112182,-0.19431 0.898107,-1.55556 0.673424,-1.16641 c 0.03742,-0.0648 0.04003,-0.17521 0.112336,-0.19457 0.07229,-0.0193 0.122291,0.1317 0.194582,0.11233 0.01235,-0.003 0.407672,-0.70611 0.448894,-0.77751 0.09504,-0.16461 0.353883,-0.69336 0.449054,-0.77778 0.07918,-0.0703 0.218174,-0.0238 0.306497,-0.0821 0.08303,-0.0548 0.274155,-0.56668 0.336865,-0.58347 0.07228,-0.0194 0.122025,0.13155 0.194316,0.11219 0.07229,-0.0194 0.07477,-0.12951 0.112182,-0.19432 0.05293,-0.0917 0.547366,-0.96836 0.561241,-0.97209 0.07229,-0.0194 0.122285,0.13171 0.194576,0.11234 0.0723,-0.0194 0.07492,-0.12976 0.112343,-0.19458 0.05055,-0.0876 0.332125,-0.50695 0.336711,-0.5832 0.0064,-0.10564 -0.08873,-0.201 -0.0824,-0.30665 0.0048,-0.0747 0.131711,-0.12229 0.112342,-0.19457 -0.01936,-0.0723 -0.17494,-0.0399 -0.194315,-0.11219 -0.0168,-0.0627 0.330736,-0.48387 0.336712,-0.583206 0.0064,-0.105643 -0.0883,-0.201115 -0.08197,-0.306767 0.009,-0.149392 0.263114,-0.244044 0.224376,-0.388616 -0.01936,-0.07226 -0.175208,-0.04001 -0.194577,-0.112346 -0.02566,-0.09574 0.09717,-0.172037 0.172452,-0.254495 z"
         id="path4604"
         inkscape:connector-curvature="0" />
    </g>
    <g
       id="g4739"
       transform="matrix(0.98487915,0,0,0.98487915,-0.09085207,6.1575322)"
       inkscape:export-filename="C:\Users\Blaz\Desktop\Texture3.png"
       inkscape:export-xdpi="75.463058"
       inkscape:export-ydpi="75.463058">
      <circle
         inkscape:export-ydpi="75"
         inkscape:export-xdpi="75"
         style="opacity:1;fill:url(#linearGradient4678);fill-opacity:1;fill-rule:nonzero;stroke:none;stroke-width:0.59396297;stroke-linecap:butt;stroke-linejoin:round;stroke-miterlimit:4;stroke-dasharray:none;stroke-dashoffset:0;stroke-opacity:1;paint-order:normal"
         id="circle4612"
         cx="126.81029"
         cy="124.45646"
         r="19.644089" />
      <path
         inkscape:export-ydpi="75"
         inkscape:export-xdpi="75"
         style="opacity:1;fill:url(#linearGradient4620);fill-opacity:1;fill-rule:nonzero;stroke:none;stroke-width:0.59396297;stroke-linecap:butt;stroke-linejoin:round;stroke-miterlimit:4;stroke-dasharray:none;stroke-dashoffset:0;stroke-opacity:1;paint-order:normal"
         d="m 122.25618,105.28168 a 19.75634,19.75634 0 0 0 -12.68825,9.36029 19.75634,19.75634 0 0 0 7.2315,26.98751 19.75634,19.75634 0 0 0 26.98763,-7.23109 19.75634,19.75634 0 0 0 1.97608,-4.79958 c -0.0568,-0.0379 -0.1135,-0.0753 -0.17204,-0.1213 -1.29806,-1.01891 -0.2177,-0.24551 -0.94215,-1.06247 -0.0496,-0.056 -0.1295,-0.0748 -0.19431,-0.11219 l -0.38889,-0.22453 -1.36098,-0.78576 -0.77778,-0.44905 -0.5832,-0.33672 c -0.0648,-0.0374 -0.11961,-0.1077 -0.19432,-0.11218 -0.10564,-0.006 -0.20307,0.10319 -0.30676,0.0819 -0.21428,-0.0439 -0.75583,-0.51698 -0.97209,-0.56124 -0.16394,-0.0336 -0.33729,0.003 -0.50123,-0.03 -0.12782,-0.0261 -0.71222,-0.46662 -0.77778,-0.44905 -0.0723,0.0194 -0.0375,0.19879 -0.11218,0.19431 -0.14941,-0.009 -0.24686,-0.17641 -0.38863,-0.22436 -0.22417,-0.0758 -0.46829,-0.0772 -0.69581,-0.1423 -0.0719,-0.0206 -0.12099,-0.0972 -0.19431,-0.11218 -0.32788,-0.0671 -0.67428,0.007 -1.00216,-0.0604 -0.0733,-0.015 -0.1196,-0.10771 -0.19431,-0.11218 -0.10564,-0.006 -0.2013,0.0754 -0.30691,0.0822 -0.4641,0.0299 -0.406,0.0247 -0.69539,-0.14241 -0.0648,-0.0374 -0.11961,-0.10769 -0.19431,-0.11218 -0.10565,-0.006 -0.20128,0.0886 -0.30692,0.0823 -0.0747,-0.004 -0.12202,-0.13155 -0.19431,-0.11219 -0.0723,0.0194 -0.0399,0.17495 -0.11219,0.19432 -0.0723,0.0194 -0.12229,-0.13171 -0.19458,-0.11235 -0.0723,0.0194 -0.0749,0.12977 -0.11233,0.19459 -0.0272,0.0472 -0.33934,0.57336 -0.33672,0.5832 0.0194,0.0723 0.17521,0.04 0.19458,0.11233 0.0194,0.0723 -0.10768,0.11963 -0.11219,0.19432 -0.006,0.10563 0.0883,0.20111 0.082,0.30676 -0.0207,0.3456 -0.33573,0.0381 -0.0299,0.50123 0.0412,0.0625 0.17494,0.0399 0.19431,0.11219 0.0411,0.15334 -0.3778,0.42986 -0.33671,0.5832 0.0194,0.0723 0.1295,0.0748 0.19431,0.11219 -0.01,0.16703 -0.0199,0.3342 -0.0299,0.50123 -0.0283,0.13823 -0.56467,0.97802 -0.67342,1.1664 -0.15719,0.27225 -0.82141,1.50492 -0.89811,1.55555 -0.0883,0.0583 -0.21844,0.0236 -0.30677,0.0819 -0.0624,0.0413 -0.0499,0.15333 -0.11233,0.19458 -0.0883,0.0583 -0.21818,0.0238 -0.3065,0.0821 -0.0624,0.0413 -0.0399,0.17494 -0.11219,0.19431 -0.16163,0.0433 -0.33959,-0.0732 -0.50122,-0.0299 -0.16164,0.0433 -0.26496,0.21097 -0.41884,0.2767 -0.19466,0.0832 -0.41627,0.0873 -0.61342,0.16436 -0.25132,0.0982 -0.48373,0.23908 -0.7256,0.35868 -0.0748,0.12961 -0.0996,0.30642 -0.22452,0.38889 -0.0625,0.0412 -0.11963,-0.10768 -0.19432,-0.11218 -0.10564,-0.006 -0.21844,0.0236 -0.30676,0.0819 -0.0624,0.0412 -0.0498,0.15336 -0.11234,0.19458 -0.87176,0.57556 0.13346,-0.20023 -0.50108,-0.0302 -0.0723,0.0194 -0.0399,0.17494 -0.11219,0.19431 -0.0723,0.0194 -0.11959,-0.10773 -0.19431,-0.11218 -0.10563,-0.006 -0.20127,0.0886 -0.30691,0.0822 -0.0659,-0.004 -0.67585,-0.3902 -0.77752,-0.4489 -0.0876,-0.0506 -0.54137,-0.27313 -0.58347,-0.33686 -0.0583,-0.0883 -0.0236,-0.21844 -0.082,-0.30677 -0.0825,-0.1249 -0.30642,-0.0996 -0.38889,-0.22453 -0.0583,-0.0883 -0.0238,-0.21816 -0.0821,-0.30649 -0.0412,-0.0624 -0.1752,-0.04 -0.19457,-0.11234 -0.0194,-0.0723 0.13156,-0.12202 0.11219,-0.19431 -0.0194,-0.0723 -0.15307,-0.0498 -0.19432,-0.11219 -0.0583,-0.0883 -0.0239,-0.21859 -0.0822,-0.30692 -0.0412,-0.0624 -0.17494,-0.0399 -0.19432,-0.11218 -0.0387,-0.14458 0.26326,-0.24433 0.22453,-0.38889 -0.0194,-0.0723 -0.15307,-0.0498 -0.19431,-0.11219 -0.30579,-0.46314 0.009,-0.15562 0.0299,-0.50123 0.004,-0.0665 -0.20977,-0.86428 -0.24649,-0.91991 -0.0412,-0.0624 -0.1752,-0.04 -0.19458,-0.11234 -0.0194,-0.0723 0.13156,-0.12202 0.11219,-0.19432 -0.0194,-0.0723 -0.17494,-0.0399 -0.19431,-0.11218 -0.0194,-0.0723 0.13171,-0.12228 0.11234,-0.19458 -0.0387,-0.14457 -0.35016,-0.0799 -0.38889,-0.22452 -0.0194,-0.0723 0.13155,-0.12202 0.11218,-0.19431 -0.0387,-0.14457 -0.35015,-0.0799 -0.38889,-0.22454 -0.0194,-0.0723 0.13171,-0.12228 0.11234,-0.19457 -0.0194,-0.0723 -0.15306,-0.0498 -0.19431,-0.11219 -0.0583,-0.0883 -0.0241,-0.21833 -0.0824,-0.30665 -0.0412,-0.0625 -0.17494,-0.0399 -0.19431,-0.11219 -0.0194,-0.0723 0.13156,-0.12201 0.11218,-0.19431 -0.002,-0.01 -0.53603,-0.30948 -0.5832,-0.33671 l -0.19457,-0.11234 c -0.0648,-0.0374 -0.17495,-0.0399 -0.19432,-0.11218 -0.0194,-0.0723 0.13171,-0.1223 0.11234,-0.19458 -0.0194,-0.0723 -0.12977,-0.075 -0.19458,-0.11235 l -1.1664,-0.67342 c -0.0648,-0.0374 -0.17521,-0.04 -0.19458,-0.11233 -0.0194,-0.0723 0.13156,-0.12203 0.11219,-0.19432 -0.0387,-0.14457 -0.30616,-0.0995 -0.38863,-0.22437 -0.0583,-0.0883 -0.0239,-0.21859 -0.0822,-0.30692 -0.0548,-0.0831 -0.5664,-0.27399 -0.58321,-0.33671 -0.0194,-0.0723 0.13156,-0.12202 0.11219,-0.19431 -0.0194,-0.0723 -0.12977,-0.075 -0.19458,-0.11234 -0.0917,-0.0529 -0.96832,-0.54733 -0.97209,-0.56124 -0.0194,-0.0723 0.13172,-0.12229 0.11234,-0.19458 -0.0168,-0.0627 -0.52836,-0.25366 -0.5832,-0.33671 -0.0583,-0.0883 -0.0238,-0.21818 -0.0821,-0.3065 -0.0825,-0.1249 -0.35015,-0.0799 -0.38889,-0.22453 -0.0194,-0.0723 0.13157,-0.12202 0.11219,-0.1943 -0.0387,-0.14458 -0.30643,-0.0996 -0.38889,-0.22453 -0.0583,-0.0883 -0.0239,-0.2186 -0.0822,-0.30692 -0.0412,-0.0625 -0.17493,-0.0399 -0.19431,-0.11219 -0.0194,-0.0723 0.13156,-0.12202 0.11219,-0.19431 -0.0194,-0.0722 -0.15308,-0.0497 -0.19432,-0.11219 -0.0583,-0.0883 -0.0239,-0.2186 -0.0822,-0.30691 -0.0412,-0.0625 -0.17494,-0.0399 -0.19431,-0.11219 -0.0194,-0.0723 0.13156,-0.12202 0.11219,-0.19431 -0.17003,-0.63453 -0.33915,0.62364 -0.27656,-0.4191 0.005,-0.0747 0.15342,-0.13187 0.11219,-0.19431 -0.0825,-0.12491 -0.25927,-0.1497 -0.38889,-0.22453 0.0374,-0.0648 0.13156,-0.12203 0.11218,-0.19432 -0.0194,-0.0723 -0.17494,-0.0399 -0.19431,-0.11218 -0.0194,-0.0723 0.10783,-0.11989 0.11234,-0.19457 0.0127,-0.21129 -0.15074,-0.4022 -0.16436,-0.61342 -0.0108,-0.16699 0.0199,-0.3342 0.0299,-0.50123 0.0374,-0.0648 0.10773,-0.1196 0.11219,-0.19432 0.006,-0.10564 -0.0885,-0.20085 -0.0821,-0.30649 0.009,-0.1494 0.26327,-0.24432 0.22453,-0.38889 -0.0194,-0.0723 -0.1752,-0.04 -0.19458,-0.11235 -0.0387,-0.14457 0.21556,-0.23948 0.22452,-0.38888 0.0127,-0.21128 -0.20653,-0.40589 -0.16409,-0.61327 2e-4,-8.7e-4 0.33677,-0.58298 0.33671,-0.5832 -0.0194,-0.0723 -0.17521,-0.04 -0.19458,-0.11234 -0.0194,-0.0723 0.0749,-0.12976 0.11234,-0.19457 l 0.11218,-0.19431 0.89811,-1.55556 0.67342,-1.16641 c 0.0374,-0.0648 0.04,-0.17521 0.11234,-0.19457 0.0723,-0.0193 0.12229,0.1317 0.19458,0.11233 0.0124,-0.003 0.40768,-0.70611 0.4489,-0.77751 0.095,-0.16461 0.35388,-0.69336 0.44905,-0.77778 0.0792,-0.0703 0.21818,-0.0238 0.3065,-0.0821 0.083,-0.0548 0.27415,-0.56668 0.33686,-0.58347 0.0723,-0.0194 0.12203,0.13155 0.19432,0.11219 0.0723,-0.0194 0.0748,-0.12951 0.11218,-0.19432 0.0529,-0.0917 0.54737,-0.96836 0.56124,-0.97209 0.0723,-0.0194 0.12229,0.13171 0.19458,0.11234 0.0723,-0.0194 0.0749,-0.12976 0.11234,-0.19458 0.0505,-0.0876 0.33213,-0.50695 0.33671,-0.5832 0.006,-0.10564 -0.0887,-0.201 -0.0824,-0.30665 0.005,-0.0747 0.13171,-0.12229 0.11234,-0.19457 -0.0194,-0.0723 -0.17494,-0.0399 -0.19432,-0.11219 -0.0168,-0.0627 0.33074,-0.48387 0.33671,-0.58321 0.006,-0.10564 -0.0883,-0.20112 -0.082,-0.30677 0.009,-0.14939 0.26312,-0.24404 0.22438,-0.38861 -0.0194,-0.0723 -0.17521,-0.04 -0.19458,-0.11235 -0.0257,-0.0957 0.0972,-0.17204 0.17245,-0.25449 z"
         id="path4614"
         inkscape:connector-curvature="0" />
    </g>
    <g
       id="g4773"
       transform="matrix(0.98487915,0,0,0.98487915,-8.6528502,-4.9306086)"
       inkscape:export-filename="C:\Users\Blaz\Desktop\Texture3.png"
       inkscape:export-xdpi="75.463058"
       inkscape:export-ydpi="75.463058">
      <circle
         inkscape:export-ydpi="75"
         inkscape:export-xdpi="75"
         r="19.644089"
         cy="204.11772"
         cx="135.50374"
         id="circle4622"
         style="opacity:1;fill:url(#linearGradient4676);fill-opacity:1;fill-rule:nonzero;stroke:none;stroke-width:0.59396297;stroke-linecap:butt;stroke-linejoin:round;stroke-miterlimit:4;stroke-dasharray:none;stroke-dashoffset:0;stroke-opacity:1;paint-order:normal" />
      <path
         inkscape:export-ydpi="75"
         inkscape:export-xdpi="75"
         inkscape:connector-curvature="0"
         id="path4624"
         d="m 130.94963,184.94294 a 19.75634,19.75634 0 0 0 -12.68825,9.36029 19.75634,19.75634 0 0 0 7.2315,26.98751 19.75634,19.75634 0 0 0 26.98763,-7.23108 19.75634,19.75634 0 0 0 1.97608,-4.79959 c -0.0568,-0.0379 -0.1135,-0.0753 -0.17204,-0.1213 -1.29806,-1.01891 -0.2177,-0.24551 -0.94215,-1.06247 -0.0496,-0.056 -0.1295,-0.0748 -0.19431,-0.11219 l -0.38889,-0.22453 -1.36098,-0.78576 -0.77778,-0.44905 -0.5832,-0.33671 c -0.0648,-0.0374 -0.11961,-0.1077 -0.19432,-0.11218 -0.10564,-0.006 -0.20307,0.10318 -0.30676,0.0819 -0.21428,-0.0438 -0.75583,-0.51698 -0.97209,-0.56124 -0.16394,-0.0335 -0.33729,0.003 -0.50123,-0.03 -0.12782,-0.0262 -0.71222,-0.46662 -0.77778,-0.44905 -0.0723,0.0194 -0.0375,0.19879 -0.11218,0.19431 -0.14941,-0.009 -0.24686,-0.17641 -0.38863,-0.22436 -0.22417,-0.0758 -0.46829,-0.0772 -0.69581,-0.1423 -0.0719,-0.0206 -0.12099,-0.0972 -0.19431,-0.11218 -0.32788,-0.0671 -0.67428,0.007 -1.00216,-0.0604 -0.0733,-0.015 -0.1196,-0.10771 -0.19431,-0.11219 -0.10564,-0.006 -0.2013,0.0754 -0.30691,0.0822 -0.4641,0.0299 -0.406,0.0247 -0.69539,-0.14241 -0.0648,-0.0374 -0.11961,-0.10769 -0.19431,-0.11218 -0.10565,-0.006 -0.20128,0.0886 -0.30692,0.0823 -0.0747,-0.004 -0.12202,-0.13155 -0.19431,-0.11219 -0.0723,0.0194 -0.0399,0.17495 -0.11219,0.19432 -0.0723,0.0194 -0.12229,-0.13171 -0.19458,-0.11235 -0.0723,0.0194 -0.0749,0.12977 -0.11233,0.19459 -0.0272,0.0472 -0.33934,0.57336 -0.33672,0.5832 0.0194,0.0723 0.17521,0.04 0.19458,0.11233 0.0194,0.0723 -0.10768,0.11963 -0.11219,0.19432 -0.006,0.10563 0.0883,0.20111 0.082,0.30677 -0.0207,0.34559 -0.33573,0.0381 -0.0299,0.50122 0.0412,0.0625 0.17494,0.0399 0.19431,0.11219 0.0411,0.15334 -0.3778,0.42986 -0.33671,0.5832 0.0194,0.0723 0.1295,0.0748 0.19431,0.11219 -0.01,0.16703 -0.0199,0.3342 -0.0299,0.50123 -0.0283,0.13823 -0.56467,0.97803 -0.67342,1.16641 -0.15719,0.27224 -0.82141,1.50491 -0.89811,1.55555 -0.0883,0.0583 -0.21844,0.0236 -0.30677,0.0819 -0.0624,0.0413 -0.0499,0.15333 -0.11233,0.19458 -0.0883,0.0583 -0.21818,0.0238 -0.3065,0.0821 -0.0624,0.0413 -0.0399,0.17494 -0.11219,0.19432 -0.16163,0.0433 -0.33959,-0.0732 -0.50122,-0.0299 -0.16164,0.0433 -0.26496,0.21097 -0.41884,0.2767 -0.19466,0.0832 -0.41627,0.0873 -0.61342,0.16436 -0.25132,0.0982 -0.48373,0.23908 -0.7256,0.35868 -0.0748,0.12962 -0.0996,0.30642 -0.22452,0.38889 -0.0625,0.0412 -0.11963,-0.10768 -0.19432,-0.11218 -0.10564,-0.006 -0.21844,0.0236 -0.30676,0.0819 -0.0624,0.0412 -0.0498,0.15336 -0.11234,0.19458 -0.87176,0.57556 0.13346,-0.20023 -0.50108,-0.0302 -0.0723,0.0194 -0.0399,0.17494 -0.11219,0.19431 -0.0723,0.0194 -0.11959,-0.10773 -0.19431,-0.11218 -0.10563,-0.006 -0.20127,0.0886 -0.30691,0.0822 -0.0659,-0.004 -0.67585,-0.3902 -0.77752,-0.4489 -0.0876,-0.0506 -0.54137,-0.27312 -0.58347,-0.33686 -0.0583,-0.0883 -0.0236,-0.21844 -0.082,-0.30677 -0.0825,-0.12489 -0.30642,-0.0996 -0.38889,-0.22452 -0.0583,-0.0883 -0.0238,-0.21817 -0.0821,-0.3065 -0.0412,-0.0624 -0.1752,-0.04 -0.19457,-0.11234 -0.0194,-0.0723 0.13156,-0.12202 0.11219,-0.19431 -0.0194,-0.0723 -0.15307,-0.0498 -0.19432,-0.11219 -0.0583,-0.0883 -0.0239,-0.21859 -0.0822,-0.30692 -0.0412,-0.0624 -0.17494,-0.0399 -0.19432,-0.11218 -0.0387,-0.14457 0.26326,-0.24432 0.22453,-0.38889 -0.0194,-0.0723 -0.15307,-0.0498 -0.19431,-0.11219 -0.30579,-0.46314 0.009,-0.15562 0.0299,-0.50123 0.004,-0.0665 -0.20977,-0.86428 -0.24649,-0.91991 -0.0412,-0.0624 -0.1752,-0.04 -0.19458,-0.11234 -0.0194,-0.0723 0.13156,-0.12202 0.11219,-0.19431 -0.0194,-0.0723 -0.17494,-0.0399 -0.19431,-0.11219 -0.0194,-0.0722 0.13171,-0.12228 0.11234,-0.19458 -0.0387,-0.14456 -0.35016,-0.0799 -0.38889,-0.22452 -0.0194,-0.0723 0.13155,-0.12202 0.11218,-0.19431 -0.0387,-0.14457 -0.35015,-0.0799 -0.38889,-0.22454 -0.0194,-0.0722 0.13171,-0.12228 0.11234,-0.19456 -0.0194,-0.0723 -0.15306,-0.0498 -0.19431,-0.11219 -0.0583,-0.0883 -0.0241,-0.21833 -0.0824,-0.30666 -0.0412,-0.0625 -0.17494,-0.0399 -0.19431,-0.11219 -0.0194,-0.0723 0.13156,-0.12201 0.11218,-0.19431 -0.002,-0.01 -0.53603,-0.30947 -0.5832,-0.3367 l -0.19457,-0.11235 c -0.0648,-0.0374 -0.17495,-0.0399 -0.19432,-0.11218 -0.0194,-0.0723 0.13171,-0.12229 0.11234,-0.19458 -0.0194,-0.0723 -0.12977,-0.075 -0.19458,-0.11235 l -1.1664,-0.67341 c -0.0648,-0.0374 -0.17521,-0.04 -0.19458,-0.11234 -0.0194,-0.0723 0.13156,-0.12202 0.11219,-0.19432 -0.0387,-0.14457 -0.30616,-0.0995 -0.38863,-0.22437 -0.0583,-0.0883 -0.0239,-0.21859 -0.0822,-0.30691 -0.0548,-0.0831 -0.5664,-0.274 -0.58321,-0.33671 -0.0194,-0.0723 0.13156,-0.12203 0.11219,-0.19432 -0.0194,-0.0723 -0.12977,-0.075 -0.19458,-0.11234 -0.0917,-0.0529 -0.96832,-0.54733 -0.97209,-0.56123 -0.0194,-0.0723 0.13172,-0.1223 0.11234,-0.19459 -0.0168,-0.0627 -0.52836,-0.25366 -0.5832,-0.33671 -0.0583,-0.0883 -0.0238,-0.21818 -0.0821,-0.3065 -0.0825,-0.1249 -0.35015,-0.0799 -0.38889,-0.22452 -0.0194,-0.0723 0.13157,-0.12203 0.11219,-0.19431 -0.0387,-0.14457 -0.30643,-0.0996 -0.38889,-0.22453 -0.0583,-0.0883 -0.0239,-0.2186 -0.0822,-0.30692 -0.0412,-0.0625 -0.17493,-0.0399 -0.19431,-0.11219 -0.0194,-0.0723 0.13156,-0.12202 0.11219,-0.1943 -0.0194,-0.0723 -0.15308,-0.0497 -0.19432,-0.11219 -0.0583,-0.0883 -0.0239,-0.2186 -0.0822,-0.30692 -0.0412,-0.0625 -0.17494,-0.0399 -0.19431,-0.11219 -0.0194,-0.0723 0.13156,-0.12202 0.11219,-0.19431 -0.17003,-0.63453 -0.33915,0.62364 -0.27656,-0.4191 0.005,-0.0747 0.15342,-0.13186 0.11219,-0.19431 -0.0825,-0.12491 -0.25927,-0.1497 -0.38889,-0.22453 0.0374,-0.0649 0.13156,-0.12203 0.11218,-0.19431 -0.0194,-0.0723 -0.17494,-0.0399 -0.19431,-0.11218 -0.0194,-0.0723 0.10783,-0.1199 0.11234,-0.19458 0.0127,-0.21129 -0.15074,-0.4022 -0.16436,-0.61342 -0.0108,-0.16699 0.0199,-0.33419 0.0299,-0.50123 0.0374,-0.0649 0.10773,-0.1196 0.11219,-0.19431 0.006,-0.10565 -0.0885,-0.20086 -0.0821,-0.3065 0.009,-0.1494 0.26327,-0.24432 0.22453,-0.38889 -0.0194,-0.0723 -0.1752,-0.04 -0.19458,-0.11234 -0.0387,-0.14458 0.21556,-0.23949 0.22452,-0.38889 0.0127,-0.21128 -0.20653,-0.40589 -0.16409,-0.61326 2e-4,-8.8e-4 0.33677,-0.58299 0.33671,-0.58321 -0.0194,-0.0723 -0.17521,-0.04 -0.19458,-0.11233 -0.0194,-0.0723 0.0749,-0.12977 0.11234,-0.19458 l 0.11218,-0.19431 0.89811,-1.55556 0.67342,-1.16641 c 0.0374,-0.0648 0.04,-0.17521 0.11234,-0.19457 0.0723,-0.0194 0.12229,0.1317 0.19458,0.11233 0.0124,-0.003 0.40768,-0.70611 0.4489,-0.77751 0.095,-0.16461 0.35388,-0.69336 0.44905,-0.77778 0.0792,-0.0703 0.21818,-0.0238 0.3065,-0.0821 0.083,-0.0548 0.27415,-0.56668 0.33686,-0.58346 0.0723,-0.0194 0.12203,0.13155 0.19432,0.11218 0.0723,-0.0194 0.0748,-0.1295 0.11218,-0.19432 0.0529,-0.0917 0.54737,-0.96836 0.56124,-0.97209 0.0723,-0.0194 0.12229,0.13171 0.19458,0.11234 0.0723,-0.0194 0.0749,-0.12976 0.11234,-0.19458 0.0505,-0.0875 0.33213,-0.50695 0.33671,-0.5832 0.006,-0.10564 -0.0887,-0.201 -0.0824,-0.30665 0.005,-0.0747 0.13171,-0.12229 0.11234,-0.19457 -0.0194,-0.0723 -0.17494,-0.0399 -0.19432,-0.11219 -0.0168,-0.0627 0.33074,-0.48387 0.33671,-0.5832 0.006,-0.10565 -0.0883,-0.20112 -0.082,-0.30677 0.009,-0.14939 0.26312,-0.24405 0.22438,-0.38862 -0.0194,-0.0723 -0.17521,-0.04 -0.19458,-0.11234 -0.0257,-0.0957 0.0972,-0.17204 0.17245,-0.2545 z"
         style="opacity:1;fill:url(#linearGradient4630);fill-opacity:1;fill-rule:nonzero;stroke:none;stroke-width:0.59396297;stroke-linecap:butt;stroke-linejoin:round;stroke-miterlimit:4;stroke-dasharray:none;stroke-dashoffset:0;stroke-opacity:1;paint-order:normal" />
    </g>
    <g
       id="g4769"
       transform="matrix(0.98487915,0,0,0.98487915,8.955348,-4.9306083)"
       inkscape:export-filename="C:\Users\Blaz\Desktop\Texture3.png"
       inkscape:export-xdpi="75.463058"
       inkscape:export-ydpi="75.463058">
      <circle
         inkscape:export-ydpi="75"
         inkscape:export-xdpi="75"
         style="opacity:1;fill:url(#linearGradient4674);fill-opacity:1;fill-rule:nonzero;stroke:none;stroke-width:0.59396297;stroke-linecap:butt;stroke-linejoin:round;stroke-miterlimit:4;stroke-dasharray:none;stroke-dashoffset:0;stroke-opacity:1;paint-order:normal"
         id="circle4632"
         cx="49.416874"
         cy="204.11772"
         r="19.644089" />
      <path
         inkscape:export-ydpi="75"
         inkscape:export-xdpi="75"
         style="opacity:1;fill:url(#linearGradient4640);fill-opacity:1;fill-rule:nonzero;stroke:none;stroke-width:0.59396297;stroke-linecap:butt;stroke-linejoin:round;stroke-miterlimit:4;stroke-dasharray:none;stroke-dashoffset:0;stroke-opacity:1;paint-order:normal"
         d="m 44.862771,184.94294 a 19.75634,19.75634 0 0 0 -12.688254,9.36029 19.75634,19.75634 0 0 0 7.231505,26.98751 19.75634,19.75634 0 0 0 26.987628,-7.23108 19.75634,19.75634 0 0 0 1.976079,-4.79959 c -0.05678,-0.0379 -0.113494,-0.0753 -0.172041,-0.1213 -1.298058,-1.01891 -0.217699,-0.24551 -0.942144,-1.06247 -0.04966,-0.056 -0.129501,-0.0748 -0.194315,-0.11219 l -0.388885,-0.22453 -1.360983,-0.78576 -0.777783,-0.44905 -0.5832,-0.33671 c -0.06481,-0.0374 -0.119613,-0.1077 -0.194316,-0.11218 -0.105641,-0.006 -0.203075,0.10318 -0.306764,0.0819 -0.214278,-0.0438 -0.755829,-0.51698 -0.972091,-0.56124 -0.16394,-0.0335 -0.337288,0.003 -0.501227,-0.03 -0.127821,-0.0262 -0.712222,-0.46662 -0.777783,-0.44905 -0.07229,0.0194 -0.03748,0.19879 -0.112182,0.19431 -0.149405,-0.009 -0.246851,-0.17641 -0.388624,-0.22436 -0.224174,-0.0758 -0.468292,-0.0772 -0.69581,-0.1423 -0.07195,-0.0206 -0.120996,-0.0972 -0.194314,-0.11218 -0.327874,-0.0671 -0.674274,0.007 -1.002153,-0.0604 -0.07331,-0.015 -0.119606,-0.10771 -0.194309,-0.11219 -0.105642,-0.006 -0.201306,0.0754 -0.306919,0.0822 -0.464099,0.0299 -0.405997,0.0247 -0.695388,-0.14241 -0.06481,-0.0374 -0.119612,-0.10769 -0.194308,-0.11218 -0.105649,-0.006 -0.201283,0.0886 -0.306919,0.0823 -0.0747,-0.004 -0.122024,-0.13155 -0.194315,-0.11219 -0.0723,0.0194 -0.03991,0.17495 -0.112188,0.19432 -0.07228,0.0194 -0.122285,-0.13171 -0.194576,-0.11235 -0.07229,0.0194 -0.07492,0.12977 -0.112337,0.19459 -0.0272,0.0472 -0.33933,0.57336 -0.336711,0.5832 0.01936,0.0723 0.175201,0.04 0.194576,0.11233 0.01937,0.0723 -0.10768,0.11963 -0.112188,0.19432 -0.0064,0.10563 0.08831,0.20111 0.08197,0.30677 -0.02073,0.34559 -0.335732,0.0381 -0.02993,0.50122 0.04122,0.0625 0.174939,0.0399 0.194309,0.11219 0.0411,0.15334 -0.377796,0.42986 -0.336712,0.5832 0.01937,0.0723 0.129502,0.0748 0.194315,0.11219 -0.01004,0.16703 -0.0199,0.3342 -0.02993,0.50123 -0.02833,0.13823 -0.564669,0.97803 -0.673424,1.16641 -0.157186,0.27224 -0.821403,1.50491 -0.898102,1.55555 -0.08832,0.0583 -0.218441,0.0236 -0.306769,0.0819 -0.06243,0.0413 -0.04989,0.15333 -0.112336,0.19458 -0.08832,0.0583 -0.218175,0.0238 -0.306498,0.0821 -0.06243,0.0413 -0.03991,0.17494 -0.112187,0.19432 -0.161635,0.0433 -0.339598,-0.0732 -0.501228,-0.0299 -0.161634,0.0433 -0.264954,0.21097 -0.418838,0.2767 -0.194654,0.0832 -0.416268,0.0873 -0.613415,0.16436 -0.251324,0.0982 -0.483736,0.23908 -0.725603,0.35868 -0.07484,0.12962 -0.09963,0.30642 -0.224525,0.38889 -0.06246,0.0412 -0.11963,-0.10768 -0.194315,-0.11218 -0.105642,-0.006 -0.218436,0.0236 -0.306763,0.0819 -0.06243,0.0412 -0.04983,0.15336 -0.112337,0.19458 -0.871759,0.57556 0.133458,-0.20023 -0.501079,-0.0302 -0.0723,0.0194 -0.03991,0.17494 -0.112187,0.19431 -0.07229,0.0194 -0.119589,-0.10773 -0.19431,-0.11218 -0.105636,-0.006 -0.20127,0.0886 -0.306918,0.0822 -0.06589,-0.004 -0.675847,-0.3902 -0.777516,-0.4489 -0.08756,-0.0506 -0.541373,-0.27312 -0.583468,-0.33686 -0.05833,-0.0883 -0.02364,-0.21844 -0.08197,-0.30677 -0.08247,-0.12489 -0.306426,-0.0996 -0.388892,-0.22452 -0.05833,-0.0883 -0.02382,-0.21817 -0.08213,-0.3065 -0.04122,-0.0624 -0.175206,-0.04 -0.194576,-0.11234 -0.01936,-0.0723 0.131557,-0.12202 0.112188,-0.19431 -0.01937,-0.0723 -0.153064,-0.0498 -0.194315,-0.11219 -0.05833,-0.0883 -0.02394,-0.21859 -0.08223,-0.30692 -0.04122,-0.0624 -0.17494,-0.0399 -0.194315,-0.11218 -0.03873,-0.14457 0.263256,-0.24432 0.224523,-0.38889 -0.01936,-0.0723 -0.153064,-0.0498 -0.194308,-0.11219 -0.305791,-0.46314 0.0092,-0.15562 0.02993,-0.50123 0.0042,-0.0665 -0.209776,-0.86428 -0.246489,-0.91991 -0.04122,-0.0624 -0.175207,-0.04 -0.194582,-0.11234 -0.01937,-0.0723 0.131563,-0.12202 0.112187,-0.19431 -0.01936,-0.0723 -0.174939,-0.0399 -0.194308,-0.11219 -0.01937,-0.0722 0.131711,-0.12228 0.112336,-0.19458 -0.03873,-0.14456 -0.350153,-0.0799 -0.388886,-0.22452 -0.01936,-0.0723 0.131551,-0.12202 0.112182,-0.19431 -0.03873,-0.14457 -0.350153,-0.0799 -0.388891,-0.22454 -0.01936,-0.0722 0.131711,-0.12228 0.112342,-0.19456 -0.01936,-0.0723 -0.153064,-0.0498 -0.194315,-0.11219 -0.05833,-0.0883 -0.02406,-0.21833 -0.08239,-0.30666 -0.04122,-0.0625 -0.17494,-0.0399 -0.194315,-0.11219 -0.01937,-0.0723 0.131563,-0.12201 0.112188,-0.19431 -0.0024,-0.01 -0.536034,-0.30947 -0.583201,-0.3367 l -0.194576,-0.11235 c -0.06481,-0.0374 -0.174945,-0.0399 -0.194314,-0.11218 -0.01937,-0.0723 0.131711,-0.12229 0.112342,-0.19458 -0.01937,-0.0723 -0.129769,-0.075 -0.194583,-0.11235 l -1.166401,-0.67341 c -0.06481,-0.0374 -0.175207,-0.04 -0.194582,-0.11234 -0.01936,-0.0723 0.131563,-0.12202 0.112188,-0.19432 -0.03873,-0.14457 -0.306158,-0.0995 -0.388624,-0.22437 -0.05833,-0.0883 -0.02394,-0.21859 -0.08223,-0.30691 -0.05482,-0.0831 -0.566397,-0.274 -0.583206,-0.33671 -0.01936,-0.0723 0.131557,-0.12203 0.112188,-0.19432 -0.01937,-0.0723 -0.129769,-0.075 -0.194582,-0.11234 -0.09167,-0.0529 -0.968321,-0.54733 -0.972086,-0.56123 -0.01937,-0.0723 0.131711,-0.1223 0.112336,-0.19459 -0.0168,-0.0627 -0.528366,-0.25366 -0.5832,-0.33671 -0.05833,-0.0883 -0.02382,-0.21818 -0.08213,-0.3065 -0.08247,-0.1249 -0.350153,-0.0799 -0.388891,-0.22452 -0.01936,-0.0723 0.131563,-0.12203 0.112188,-0.19431 -0.03873,-0.14457 -0.306426,-0.0996 -0.388892,-0.22453 -0.05833,-0.0883 -0.02394,-0.2186 -0.08224,-0.30692 -0.04122,-0.0625 -0.174934,-0.0399 -0.194309,-0.11219 -0.01937,-0.0723 0.131563,-0.12202 0.112188,-0.1943 -0.01936,-0.0723 -0.153083,-0.0497 -0.194315,-0.11219 -0.05833,-0.0883 -0.02394,-0.2186 -0.08223,-0.30692 -0.04122,-0.0625 -0.17494,-0.0399 -0.194315,-0.11219 -0.01936,-0.0723 0.131563,-0.12202 0.112188,-0.19431 -0.170028,-0.63453 -0.339141,0.62364 -0.276555,-0.4191 0.0048,-0.0747 0.15342,-0.13186 0.112188,-0.19431 -0.08247,-0.12491 -0.259271,-0.1497 -0.388886,-0.22453 0.03742,-0.0649 0.131557,-0.12203 0.112182,-0.19431 -0.01937,-0.0723 -0.17494,-0.0399 -0.194309,-0.11218 -0.01936,-0.0723 0.107828,-0.1199 0.112336,-0.19458 0.01271,-0.21129 -0.150742,-0.4022 -0.164362,-0.61342 -0.01075,-0.16699 0.0199,-0.33419 0.02993,-0.50123 0.03742,-0.0649 0.107727,-0.1196 0.112188,-0.19431 0.0064,-0.10565 -0.08846,-0.20086 -0.08213,-0.3065 0.009,-0.1494 0.263262,-0.24432 0.224524,-0.38889 -0.01937,-0.0723 -0.175201,-0.04 -0.194577,-0.11234 -0.03873,-0.14458 0.215556,-0.23949 0.224525,-0.38889 0.01271,-0.21128 -0.206533,-0.40589 -0.164094,-0.61326 1.96e-4,-8.8e-4 0.336764,-0.58299 0.336705,-0.58321 -0.01936,-0.0723 -0.175201,-0.04 -0.194576,-0.11233 -0.01936,-0.0723 0.07492,-0.12977 0.112342,-0.19458 l 0.112182,-0.19431 0.898107,-1.55556 0.673424,-1.16641 c 0.03742,-0.0648 0.04003,-0.17521 0.112336,-0.19457 0.07229,-0.0194 0.122291,0.1317 0.194582,0.11233 0.01235,-0.003 0.407672,-0.70611 0.448894,-0.77751 0.09504,-0.16461 0.353883,-0.69336 0.449054,-0.77778 0.07918,-0.0703 0.218174,-0.0238 0.306497,-0.0821 0.08303,-0.0548 0.274155,-0.56668 0.336865,-0.58346 0.07228,-0.0194 0.122025,0.13155 0.194316,0.11218 0.07229,-0.0194 0.07477,-0.1295 0.112182,-0.19432 0.05293,-0.0917 0.547366,-0.96836 0.561241,-0.97209 0.07229,-0.0194 0.122285,0.13171 0.194576,0.11234 0.0723,-0.0194 0.07492,-0.12976 0.112343,-0.19458 0.05055,-0.0875 0.332125,-0.50695 0.336711,-0.5832 0.0064,-0.10564 -0.08873,-0.201 -0.0824,-0.30665 0.0048,-0.0747 0.131711,-0.12229 0.112342,-0.19457 -0.01936,-0.0723 -0.17494,-0.0399 -0.194315,-0.11219 -0.0168,-0.0627 0.330736,-0.48387 0.336712,-0.5832 0.0064,-0.10565 -0.0883,-0.20112 -0.08197,-0.30677 0.009,-0.14939 0.263114,-0.24405 0.224376,-0.38862 -0.01936,-0.0723 -0.175208,-0.04 -0.194577,-0.11234 -0.02566,-0.0957 0.09717,-0.17204 0.172452,-0.2545 z"
         id="path4634"
         inkscape:connector-curvature="0" />
    </g>
    <path
       style="opacity:1;fill:url(#linearGradient4755);fill-opacity:1;fill-rule:nonzero;stroke:#000000;stroke-width:2.95463324;stroke-linecap:butt;stroke-linejoin:round;stroke-miterlimit:4;stroke-dasharray:none;stroke-dashoffset:0;stroke-opacity:1;paint-order:normal"
       d="M 6.325532,77.795767 V 247.17447 H 175.70423 V 77.795767 Z M 31.341465,93.505494 H 150.68882 c 5.15581,0 9.30616,4.15033 9.30616,9.306136 v 119.34699 c 0,5.15579 -4.15035,9.30612 -9.30616,9.30612 H 31.341465 c -5.155813,0 -9.306158,-4.15033 -9.306158,-9.30612 V 102.81163 c 0,-5.155806 4.150345,-9.306136 9.306158,-9.306136 z"
       id="rect4485-8"
       inkscape:connector-curvature="0"
       inkscape:export-filename="C:\Users\Blaz\Desktop\Texture3.png"
       inkscape:export-xdpi="75.463058"
       inkscape:export-ydpi="75.463058" />
  </g>
</svg>
