<?xml version="1.0" encoding="UTF-8" standalone="no"?>
<!-- Created with Inkscape (http://www.inkscape.org/) -->

<svg
   xmlns:dc="http://purl.org/dc/elements/1.1/"
   xmlns:cc="http://creativecommons.org/ns#"
   xmlns:rdf="http://www.w3.org/1999/02/22-rdf-syntax-ns#"
   xmlns:svg="http://www.w3.org/2000/svg"
   xmlns="http://www.w3.org/2000/svg"
   xmlns:xlink="http://www.w3.org/1999/xlink"
   xmlns:sodipodi="http://sodipodi.sourceforge.net/DTD/sodipodi-0.dtd"
   xmlns:inkscape="http://www.inkscape.org/namespaces/inkscape"
   width="210mm"
   height="297mm"
   viewBox="0 0 210 297"
   version="1.1"
   id="svg8"
   sodipodi:docname="Store PopUp.svg"
   inkscape:version="0.92.1 r15371">
  <defs
     id="defs2">
    <linearGradient
       inkscape:collect="always"
       id="linearGradient960">
      <stop
         style="stop-color:#ffffff;stop-opacity:1"
         offset="0"
         id="stop956" />
      <stop
         style="stop-color:#b3b3b3;stop-opacity:1"
         offset="1"
         id="stop958" />
    </linearGradient>
    <linearGradient
       id="linearGradient954"
       inkscape:collect="always">
      <stop
         id="stop950"
         offset="0"
         style="stop-color:#b3b3b3;stop-opacity:1" />
      <stop
         id="stop952"
         offset="1"
         style="stop-color:#808080;stop-opacity:1" />
    </linearGradient>
    <linearGradient
       inkscape:collect="always"
       id="linearGradient944">
      <stop
         style="stop-color:#ffffff;stop-opacity:1"
         offset="0"
         id="stop940" />
      <stop
         style="stop-color:#b3b3b3;stop-opacity:1"
         offset="1"
         id="stop942" />
    </linearGradient>
    <inkscape:path-effect
       effect="bspline"
       id="path-effect127"
       is_visible="true"
       weight="33.333333"
       steps="2"
       helper_size="0"
       apply_no_weight="true"
       apply_with_weight="true"
       only_selected="false" />
    <inkscape:path-effect
       effect="bspline"
       id="path-effect123"
       is_visible="true"
       weight="33.333333"
       steps="2"
       helper_size="0"
       apply_no_weight="true"
       apply_with_weight="true"
       only_selected="false" />
    <inkscape:path-effect
       effect="bspline"
       id="path-effect119"
       is_visible="true"
       weight="33.333333"
       steps="2"
       helper_size="0"
       apply_no_weight="true"
       apply_with_weight="true"
       only_selected="false" />
    <inkscape:path-effect
       effect="bspline"
       id="path-effect115"
       is_visible="true"
       weight="33.333333"
       steps="2"
       helper_size="0"
       apply_no_weight="true"
       apply_with_weight="true"
       only_selected="false" />
    <linearGradient
       inkscape:collect="always"
       id="linearGradient5129">
      <stop
         style="stop-color:#ffffff;stop-opacity:1;"
         offset="0"
         id="stop5125" />
      <stop
         style="stop-color:#cccccc;stop-opacity:1"
         offset="1"
         id="stop5127" />
    </linearGradient>
    <linearGradient
       inkscape:collect="always"
       id="linearGradient5121">
      <stop
         style="stop-color:#ffffff;stop-opacity:1;"
         offset="0"
         id="stop5117" />
      <stop
         style="stop-color:#cccccc;stop-opacity:1"
         offset="1"
         id="stop5119" />
    </linearGradient>
    <linearGradient
       inkscape:collect="always"
       id="linearGradient5113">
      <stop
         style="stop-color:#b3b3b3;stop-opacity:1;"
         offset="0"
         id="stop5109" />
      <stop
         style="stop-color:#808080;stop-opacity:1"
         offset="1"
         id="stop5111" />
    </linearGradient>
    <inkscape:path-effect
       effect="bspline"
       id="path-effect4625"
       is_visible="true"
       weight="33.333333"
       steps="2"
       helper_size="0"
       apply_no_weight="true"
       apply_with_weight="true"
       only_selected="false" />
    <inkscape:path-effect
       effect="bspline"
       id="path-effect4621"
       is_visible="true"
       weight="33.333333"
       steps="2"
       helper_size="0"
       apply_no_weight="true"
       apply_with_weight="true"
       only_selected="false" />
    <inkscape:path-effect
       effect="bspline"
       id="path-effect4617"
       is_visible="true"
       weight="33.333333"
       steps="2"
       helper_size="0"
       apply_no_weight="true"
       apply_with_weight="true"
       only_selected="false" />
    <inkscape:path-effect
       effect="bspline"
       id="path-effect4613"
       is_visible="true"
       weight="33.333333"
       steps="2"
       helper_size="0"
       apply_no_weight="true"
       apply_with_weight="true"
       only_selected="false" />
    <inkscape:path-effect
       effect="bspline"
       id="path-effect4597"
       is_visible="true"
       weight="33.333333"
       steps="2"
       helper_size="0"
       apply_no_weight="true"
       apply_with_weight="true"
       only_selected="false" />
    <inkscape:path-effect
       effect="bspline"
       id="path-effect4593"
       is_visible="true"
       weight="33.333333"
       steps="2"
       helper_size="0"
       apply_no_weight="true"
       apply_with_weight="true"
       only_selected="false" />
    <inkscape:path-effect
       effect="bspline"
       id="path-effect4589"
       is_visible="true"
       weight="33.333333"
       steps="2"
       helper_size="0"
       apply_no_weight="true"
       apply_with_weight="true"
       only_selected="false" />
    <inkscape:path-effect
       effect="bspline"
       id="path-effect4577"
       is_visible="true"
       weight="33.333333"
       steps="2"
       helper_size="0"
       apply_no_weight="true"
       apply_with_weight="true"
       only_selected="false" />
    <inkscape:path-effect
       effect="bspline"
       id="path-effect4573"
       is_visible="true"
       weight="33.333333"
       steps="2"
       helper_size="0"
       apply_no_weight="true"
       apply_with_weight="true"
       only_selected="false" />
    <inkscape:path-effect
       effect="bspline"
       id="path-effect4566"
       is_visible="true"
       weight="33.333333"
       steps="2"
       helper_size="0"
       apply_no_weight="true"
       apply_with_weight="true"
       only_selected="false" />
    <inkscape:path-effect
       effect="bspline"
       id="path-effect4553"
       is_visible="true"
       weight="33.333333"
       steps="2"
       helper_size="0"
       apply_no_weight="true"
       apply_with_weight="true"
       only_selected="false" />
    <inkscape:path-effect
       effect="bspline"
       id="path-effect4546"
       is_visible="true"
       weight="33.333333"
       steps="2"
       helper_size="0"
       apply_no_weight="true"
       apply_with_weight="true"
       only_selected="false" />
    <inkscape:path-effect
       effect="bspline"
       id="path-effect4538"
       is_visible="true"
       weight="33.333333"
       steps="2"
       helper_size="0"
       apply_no_weight="true"
       apply_with_weight="true"
       only_selected="false" />
    <inkscape:path-effect
       effect="bspline"
       id="path-effect4534"
       is_visible="true"
       weight="33.333333"
       steps="2"
       helper_size="0"
       apply_no_weight="true"
       apply_with_weight="true"
       only_selected="false" />
    <inkscape:path-effect
       effect="bspline"
       id="path-effect4572"
       is_visible="true"
       weight="33.333333"
       steps="2"
       helper_size="0"
       apply_no_weight="true"
       apply_with_weight="true"
       only_selected="false" />
    <inkscape:path-effect
       effect="spiro"
       id="path-effect4564"
       is_visible="true" />
    <inkscape:path-effect
       effect="bspline"
       id="path-effect4560"
       is_visible="true"
       weight="33.333333"
       steps="2"
       helper_size="0"
       apply_no_weight="true"
       apply_with_weight="true"
       only_selected="false" />
    <inkscape:path-effect
       effect="bspline"
       id="path-effect4556"
       is_visible="true"
       weight="33.333333"
       steps="2"
       helper_size="0"
       apply_no_weight="true"
       apply_with_weight="true"
       only_selected="false" />
    <inkscape:path-effect
       effect="bspline"
       id="path-effect4552"
       is_visible="true"
       weight="33.333333"
       steps="2"
       helper_size="0"
       apply_no_weight="true"
       apply_with_weight="true"
       only_selected="false" />
    <inkscape:path-effect
       effect="bspline"
       id="path-effect4548"
       is_visible="true"
       weight="33.333333"
       steps="2"
       helper_size="0"
       apply_no_weight="true"
       apply_with_weight="true"
       only_selected="false" />
    <inkscape:path-effect
       effect="bspline"
       id="path-effect4544"
       is_visible="true"
       weight="33.333333"
       steps="2"
       helper_size="0"
       apply_no_weight="true"
       apply_with_weight="true"
       only_selected="false" />
    <inkscape:path-effect
       effect="bspline"
       id="path-effect4540"
       is_visible="true"
       weight="33.333333"
       steps="2"
       helper_size="0"
       apply_no_weight="true"
       apply_with_weight="true"
       only_selected="false" />
    <inkscape:path-effect
       effect="bspline"
       id="path-effect4536"
       is_visible="true"
       weight="33.333333"
       steps="2"
       helper_size="0"
       apply_no_weight="true"
       apply_with_weight="true"
       only_selected="false" />
    <inkscape:path-effect
       effect="bspline"
       id="path-effect4532"
       is_visible="true"
       weight="33.333333"
       steps="2"
       helper_size="0"
       apply_no_weight="true"
       apply_with_weight="true"
       only_selected="false" />
    <inkscape:path-effect
       effect="bspline"
       id="path-effect4528"
       is_visible="true"
       weight="33.333333"
       steps="2"
       helper_size="0"
       apply_no_weight="true"
       apply_with_weight="true"
       only_selected="false" />
    <inkscape:path-effect
       effect="bspline"
       id="path-effect4522"
       is_visible="true"
       weight="33.333333"
       steps="2"
       helper_size="0"
       apply_no_weight="true"
       apply_with_weight="true"
       only_selected="false" />
    <inkscape:path-effect
       effect="bspline"
       id="path-effect4518"
       is_visible="true"
       weight="33.333333"
       steps="2"
       helper_size="0"
       apply_no_weight="true"
       apply_with_weight="true"
       only_selected="false" />
    <inkscape:path-effect
       effect="bspline"
       id="path-effect4512"
       is_visible="true"
       weight="33.333333"
       steps="2"
       helper_size="0"
       apply_no_weight="true"
       apply_with_weight="true"
       only_selected="false" />
    <inkscape:path-effect
       effect="bspline"
       id="path-effect4513"
       is_visible="true"
       weight="33.333333"
       steps="2"
       helper_size="0"
       apply_no_weight="true"
       apply_with_weight="true"
       only_selected="false" />
    <inkscape:path-effect
       effect="bspline"
       id="path-effect4507"
       is_visible="true"
       weight="33.333333"
       steps="2"
       helper_size="0"
       apply_no_weight="true"
       apply_with_weight="true"
       only_selected="false" />
    <inkscape:path-effect
       effect="bspline"
       id="path-effect4489"
       is_visible="true"
       weight="33.333333"
       steps="2"
       helper_size="0"
       apply_no_weight="true"
       apply_with_weight="true"
       only_selected="false" />
    <linearGradient
       inkscape:collect="always"
       xlink:href="#linearGradient5113"
       id="linearGradient5115"
       x1="-84.457169"
       y1="64.47551"
       x2="-84.457169"
       y2="182.60864"
       gradientUnits="userSpaceOnUse"
       gradientTransform="matrix(1,0,0,1.003271,0,-0.0348228)" />
    <linearGradient
       inkscape:collect="always"
       xlink:href="#linearGradient5121"
       id="linearGradient5123"
       x1="28.865108"
       y1="123.80935"
       x2="28.865108"
       y2="209.33559"
       gradientUnits="userSpaceOnUse"
       gradientTransform="matrix(1,0,0,1.003271,0,-0.0348228)" />
    <linearGradient
       inkscape:collect="always"
       xlink:href="#linearGradient5129"
       id="linearGradient5131"
       x1="209.53931"
       y1="191.16125"
       x2="209.53931"
       y2="236.59708"
       gradientUnits="userSpaceOnUse"
       gradientTransform="matrix(1,0,0,1.003271,0,-0.0348228)" />
    <linearGradient
       inkscape:collect="always"
       xlink:href="#linearGradient944"
       id="linearGradient946"
       x1="363.64548"
       y1="130.09401"
       x2="363.64548"
       y2="178.47498"
       gradientUnits="userSpaceOnUse"
       gradientTransform="translate(49.177593,1.0690781)" />
    <linearGradient
       inkscape:collect="always"
       xlink:href="#linearGradient954"
       id="linearGradient948"
       x1="286.51294"
       y1="88.52977"
       x2="286.51294"
       y2="175.12509"
       gradientUnits="userSpaceOnUse"
       gradientTransform="translate(49.177593,1.0690781)" />
    <linearGradient
       inkscape:collect="always"
       xlink:href="#linearGradient960"
       id="linearGradient962"
       x1="486.07739"
       y1="175.29167"
       x2="486.07739"
       y2="204.7738"
       gradientUnits="userSpaceOnUse"
       gradientTransform="translate(49.177593,1.0690781)" />
  </defs>
  <sodipodi:namedview
     id="base"
     pagecolor="#ffffff"
     bordercolor="#666666"
     borderopacity="1.0"
     inkscape:pageopacity="0.0"
     inkscape:pageshadow="2"
     inkscape:zoom="0.24748737"
     inkscape:cx="1512.6649"
     inkscape:cy="308.84469"
     inkscape:document-units="mm"
     inkscape:current-layer="layer1"
     showgrid="false"
     inkscape:window-width="1366"
     inkscape:window-height="706"
     inkscape:window-x="-8"
     inkscape:window-y="-8"
     inkscape:window-maximized="1" />
  <metadata
     id="metadata5">
    <rdf:RDF>
      <cc:Work
         rdf:about="">
        <dc:format>image/svg+xml</dc:format>
        <dc:type
           rdf:resource="http://purl.org/dc/dcmitype/StillImage" />
      </cc:Work>
    </rdf:RDF>
  </metadata>
  <g
     inkscape:label="Layer 1"
     inkscape:groupmode="layer"
     id="layer1">
    <rect
       style="opacity:1;fill:#ffffff;fill-opacity:1;fill-rule:nonzero;stroke:#000000;stroke-width:1;stroke-linecap:butt;stroke-linejoin:round;stroke-miterlimit:4;stroke-dasharray:none;stroke-dashoffset:0;stroke-opacity:1;paint-order:normal"
       id="rect4485"
       width="343.20236"
       height="206.375"
       x="-503.46362"
       y="-4.3210907" />
    <rect
       y="-4.3210907"
       x="-503.46362"
       height="38.052719"
       width="38.052719"
       id="rect4493"
       style="opacity:1;fill:#ffffff;fill-opacity:1;fill-rule:nonzero;stroke:#000000;stroke-width:1;stroke-linecap:butt;stroke-linejoin:round;stroke-miterlimit:4;stroke-dasharray:none;stroke-dashoffset:0;stroke-opacity:1;paint-order:normal" />
    <rect
       style="opacity:1;fill:#ffffff;fill-opacity:1;fill-rule:nonzero;stroke:#000000;stroke-width:1;stroke-linecap:butt;stroke-linejoin:round;stroke-miterlimit:4;stroke-dasharray:none;stroke-dashoffset:0;stroke-opacity:1;paint-order:normal"
       id="rect4495"
       width="38.052719"
       height="38.052719"
       x="-503.46362"
       y="164.00119" />
    <rect
       y="202.05391"
       x="-184.99554"
       height="24.734268"
       width="24.734268"
       id="rect4497"
       style="opacity:1;fill:#ffffff;fill-opacity:1;fill-rule:nonzero;stroke:#000000;stroke-width:1;stroke-linecap:butt;stroke-linejoin:round;stroke-miterlimit:4;stroke-dasharray:none;stroke-dashoffset:0;stroke-opacity:1;paint-order:normal" />
    <rect
       style="opacity:1;fill:#ffffff;fill-opacity:1;fill-rule:nonzero;stroke:#000000;stroke-width:1;stroke-linecap:butt;stroke-linejoin:round;stroke-miterlimit:4;stroke-dasharray:none;stroke-dashoffset:0;stroke-opacity:1;paint-order:normal"
       id="rect4503"
       width="24.734268"
       height="24.734268"
       x="-372.25131"
       y="202.05389" />
    <rect
       y="202.05389"
       x="-396.98557"
       height="24.734268"
       width="24.734268"
       id="rect4509"
       style="opacity:1;fill:#ffffff;fill-opacity:1;fill-rule:nonzero;stroke:#000000;stroke-width:1;stroke-linecap:butt;stroke-linejoin:round;stroke-miterlimit:4;stroke-dasharray:none;stroke-dashoffset:0;stroke-opacity:1;paint-order:normal" />
    <rect
       y="177.31963"
       x="-372.25131"
       height="24.734268"
       width="24.734268"
       id="rect4515"
       style="opacity:1;fill:#ffffff;fill-opacity:1;fill-rule:nonzero;stroke:#000000;stroke-width:1;stroke-linecap:butt;stroke-linejoin:round;stroke-miterlimit:4;stroke-dasharray:none;stroke-dashoffset:0;stroke-opacity:1;paint-order:normal" />
    <rect
       style="opacity:1;fill:#ffffff;fill-opacity:1;fill-rule:nonzero;stroke:#000000;stroke-width:1;stroke-linecap:butt;stroke-linejoin:round;stroke-miterlimit:4;stroke-dasharray:none;stroke-dashoffset:0;stroke-opacity:1;paint-order:normal"
       id="rect4517"
       width="24.734268"
       height="24.734268"
       x="-184.99554"
       y="177.31964" />
    <path
       style="fill:none;stroke:#000000;stroke-width:1;stroke-linecap:butt;stroke-linejoin:miter;stroke-miterlimit:4;stroke-dasharray:none;stroke-opacity:1"
       d="m -465.41089,202.05391 124.9095,-2e-5"
       id="path4523"
       inkscape:connector-curvature="0" />
    <path
       style="fill:none;stroke:#000000;stroke-width:1px;stroke-linecap:butt;stroke-linejoin:miter;stroke-opacity:1"
       d="m -1286.9343,619.84696 -472.099,143.82136"
       inkscape:connector-curvature="0"
       id="path4506" />
    <rect
       y="152.58537"
       x="-184.99554"
       height="24.734268"
       width="24.734268"
       id="rect4514"
       style="opacity:1;fill:#ffffff;fill-opacity:1;fill-rule:nonzero;stroke:#000000;stroke-width:1;stroke-linecap:butt;stroke-linejoin:round;stroke-miterlimit:4;stroke-dasharray:none;stroke-dashoffset:0;stroke-opacity:1;paint-order:normal" />
    <rect
       style="opacity:1;fill:#ffffff;fill-opacity:1;fill-rule:nonzero;stroke:#000000;stroke-width:1;stroke-linecap:butt;stroke-linejoin:round;stroke-miterlimit:4;stroke-dasharray:none;stroke-dashoffset:0;stroke-opacity:1;paint-order:normal"
       id="rect4491"
       width="38.052719"
       height="38.052719"
       x="-198.31398"
       y="-4.3210907"
       ry="7.7485118" />
    <path
       style="fill:#00ff00;stroke:#000000;stroke-width:0.26458332px;stroke-linecap:butt;stroke-linejoin:miter;stroke-opacity:1"
       d="m -748.03459,46.002699 c 0,0 -10e-6,-5.037031 -2.51826,-7.555413 -2.51825,-2.518383 -7.55554,-2.518383 -11.37921,-2.518383 -3.82368,0 -6.43372,0 -10.25758,0 -3.82386,0 -8.86038,0 -11.37903,-2.518781 -2.51865,-2.518781 -2.51865,-7.555545 -2.51865,-11.37908 0,-3.823535 0,-6.433845 0,-10.257195 0,-3.8233505 0,-8.8608905 -2.51825,-11.3792755 -2.51825,-2.518385 -7.55554,-2.518385 -1.21295,-2.518385 6.34258,0 24.06292,0 32.92342,6.3418953 8.8605,6.3418952 8.86051,19.0263252 8.86051,27.8870082 0,8.860683 0,13.897609 0,13.897609 z"
       id="path4544"
       inkscape:connector-curvature="0"
       inkscape:original-d="m -748.03459,51.039995 c 2.6e-4,-5.037296 2.6e-4,-10.074327 -10e-6,-15.111092 -5.0365,-2.64e-4 -10.07379,-2.64e-4 -15.11108,0 -2.61006,-2.64e-4 -5.2201,-2.64e-4 -7.83055,0 -5.03727,-2.64e-4 -10.07379,-2.64e-4 -15.11109,0 2.7e-4,-5.037562 2.7e-4,-10.074326 0,-15.111086 2.7e-4,-2.61031 2.6e-4,-5.22062 0,-7.83054 2.6e-4,-5.0367805 2.6e-4,-10.0743205 0,-15.1110905 -5.0365,-2.6e-4 -10.07379,-2.6e-4 -15.11109,0 17.72247,-2.6e-4 35.44281,-2.6e-4 53.16381,0 2.7e-4,12.6837905 2.7e-4,25.3682205 10e-6,38.0527165 2.6e-4,5.03687 2.6e-4,10.073796 0,15.111092 z"
       inkscape:path-effect="#path-effect4546" />
    <rect
       style="opacity:1;fill:#ff0000;fill-opacity:1;fill-rule:nonzero;stroke:#000000;stroke-width:1;stroke-linecap:butt;stroke-linejoin:round;stroke-miterlimit:4;stroke-dasharray:none;stroke-dashoffset:0;stroke-opacity:1;paint-order:normal"
       id="rect4526"
       width="15.111092"
       height="15.111092"
       x="-198.31398"
       y="18.620537" />
    <rect
       y="33.731628"
       x="-175.37234"
       height="15.111092"
       width="15.111092"
       id="rect4528"
       style="opacity:1;fill:#ff0000;fill-opacity:1;fill-rule:nonzero;stroke:#000000;stroke-width:1;stroke-linecap:butt;stroke-linejoin:round;stroke-miterlimit:4;stroke-dasharray:none;stroke-dashoffset:0;stroke-opacity:1;paint-order:normal" />
    <rect
       style="opacity:1;fill:#ff0000;fill-opacity:1;fill-rule:nonzero;stroke:#000000;stroke-width:1;stroke-linecap:butt;stroke-linejoin:round;stroke-miterlimit:4;stroke-dasharray:none;stroke-dashoffset:0;stroke-opacity:1;paint-order:normal"
       id="rect4530"
       width="15.111092"
       height="15.111092"
       x="-213.42508"
       y="-4.3210907" />
    <rect
       y="-4.3210907"
       x="-228.53616"
       height="15.111092"
       width="15.111092"
       id="rect4540"
       style="opacity:1;fill:#ff0000;fill-opacity:1;fill-rule:nonzero;stroke:#000000;stroke-width:1;stroke-linecap:butt;stroke-linejoin:round;stroke-miterlimit:4;stroke-dasharray:none;stroke-dashoffset:0;stroke-opacity:1;paint-order:normal" />
    <rect
       style="opacity:1;fill:#ff0000;fill-opacity:1;fill-rule:nonzero;stroke:#000000;stroke-width:1;stroke-linecap:butt;stroke-linejoin:round;stroke-miterlimit:4;stroke-dasharray:none;stroke-dashoffset:0;stroke-opacity:1;paint-order:normal"
       id="rect4542"
       width="15.111092"
       height="15.111092"
       x="-175.37234"
       y="48.84272" />
    <path
       style="fill:#0000ff;stroke:#000000;stroke-width:0.26458332px;stroke-linecap:butt;stroke-linejoin:miter;stroke-opacity:1"
       d="m -610.31008,233.66739 c 0,0 0,-5.03703 -2.51825,-7.55542 -2.51825,-2.51838 -7.55555,-2.51838 -11.37922,-2.51838 -3.82368,0 -6.43372,0 -10.25758,0 -3.82386,0 -8.86038,0 -11.37903,-2.51878 -2.51865,-2.51878 -2.51865,-7.55554 -2.51865,-11.33391 0,-3.77837 0,-6.47902 0,-10.30237 0,-3.82335 0,-8.86089 -2.51825,-11.37927 -2.51825,-2.51838 -7.55555,-2.51838 -12.59271,-2.51838 -5.03716,0 -10.07392,0 -9.96971,0 0.10422,0 4.93281,0 9.96971,0 5.0369,0 10.0742,0 18.9345,0 8.8603,0 21.54521,0 27.8872,6.34186 6.34198,6.34185 6.34199,19.02635 6.34199,27.88704 0,8.86068 0,13.89761 0,13.89761 z"
       id="path4551"
       inkscape:connector-curvature="0"
       inkscape:original-d="m -610.31008,238.70469 c 2.6e-4,-5.0373 2.6e-4,-10.07433 0,-15.1111 -5.0365,-2.6e-4 -10.0738,-2.6e-4 -15.11109,0 -2.61006,-2.6e-4 -5.2201,-2.6e-4 -7.83055,0 -5.03727,-2.6e-4 -10.07379,-2.6e-4 -15.11109,0 2.7e-4,-5.03756 2.7e-4,-10.07432 0,-15.11109 -0.16689,-2.51997 2.6e-4,-5.22062 0,-7.83053 2.6e-4,-5.03679 2.6e-4,-10.07433 0,-15.11109 -5.0365,-2.7e-4 -10.0738,-2.7e-4 -15.11109,0 -5.03703,-2.7e-4 -10.07379,-2.7e-4 -15.11109,0 5.24573,0.21342 10.07432,-2.7e-4 15.11109,0 5.03703,-2.7e-4 10.07433,-2.7e-4 15.11109,0 12.68384,-2.7e-4 25.36875,-2.7e-4 38.05272,0 2.7e-4,12.68371 2.7e-4,25.36821 10e-6,38.05271 2.6e-4,5.03687 2.6e-4,10.0738 0,15.1111 z"
       inkscape:path-effect="#path-effect4553" />
    <path
       style="fill:#b3b3b3;stroke:none;stroke-width:0.26499999;stroke-linecap:butt;stroke-linejoin:miter;stroke-miterlimit:4;stroke-dasharray:none;stroke-opacity:1"
       d="m -39.239235,-73.919516 c 33.3920104,-7e-6 66.78377,-1.3e-5 87.601995,-1.7e-5 20.818225,-3e-6 29.063035,-3e-6 33.185275,4.122107 4.12224,4.12211 4.12225,12.36714 8.244902,16.48965 4.122652,4.12251 12.367143,4.12251 38.284063,4.122513 25.91693,4e-6 69.50885,10e-6 95.14245,1.4e-5 25.63361,3e-6 34.44644,3e-6 38.56868,-3.888757 4.12225,-3.88876 4.12225,-12.60102 4.12225,-44.776217 1e-5,-32.175197 1e-5,-88.284417 1e-5,-122.680217 10e-6,-34.3958 0,-47.0801 -6.34185,-53.42209 -6.34186,-6.34199 -19.02637,-6.34199 -69.88558,-6.34199 -50.8592,0 -139.889635,0 -190.747925,0 -50.85829,0 -63.54249,0 -69.88474,6.34212 -6.34225,6.34212 -6.34225,19.0261 -6.34225,47.08026 0,28.05417 0,71.47645 0,99.76383 0,28.287384 0,40.504284 6.04634,46.846539 6.04634,6.342255 19.32239,6.342255 32.00638,6.342255"
       id="path4587"
       inkscape:connector-curvature="0"
       inkscape:path-effect="#path-effect4589"
       inkscape:original-d="m -39.239235,-73.919516 c 33.3920104,-2.7e-4 66.78377,-2.7e-4 100.17527,-2e-5 8.24495,-2.6e-4 16.48976,-2.6e-4 24.73423,0 0,8.24422 0,16.48925 3e-5,24.73427 8.245294,-2.7e-4 16.489785,-2.7e-4 24.734245,0 43.58939,-2.6e-4 87.18131,-2.5e-4 130.77157,2e-5 7.67695,-0.11605 16.48978,-2.7e-4 24.73427,0 -0.0332,-7.77752 2.6e-4,-16.48978 0,-24.73427 2.6e-4,-56.105904 2.6e-4,-112.215124 2e-5,-168.322284 2.6e-4,-12.68444 2.6e-4,-25.36874 -10e-6,-38.05272 -12.68371,-2.6e-4 -25.36822,-2.6e-4 -38.05272,0 -89.03391,-2.6e-4 -178.064345,-2.6e-4 -267.096905,0 -12.68402,-2.6e-4 -25.36822,-2.6e-4 -38.05272,0 2.7e-4,12.68424 2.7e-4,25.36822 0,38.05272 2.7e-4,43.42383 2.7e-4,86.84611 0,130.26956 0.51076,13.151314 2.7e-4,25.368214 0,38.052724 12.09268,-0.42392 25.36873,-2.7e-4 38.05272,0"
       inkscape:export-filename="C:\Users\Blaz\Desktop\test1.png"
       inkscape:export-xdpi="101"
       inkscape:export-ydpi="101" />
    <path
       style="fill:#ffffff;stroke:none;stroke-width:0.24884062px;stroke-linecap:butt;stroke-linejoin:miter;stroke-opacity:1"
       d="m -62.686763,-86.738611 c 6.025137,5.905245 18.075184,5.905245 39.960942,5.905242 21.88575791,-4e-6 53.608585,-10e-6 73.385899,-1.4e-5 19.777314,-3e-6 27.609912,-3e-6 31.526035,-3.838333 3.916123,-3.83833 3.916123,-11.51522 7.55544,-15.353424 3.639316,-3.83821 12.025957,-3.83821 36.647047,-3.83821 24.6211,1e-5 66.03343,1e-5 90.55462,2e-5 24.5212,0 32.55485,0 36.47098,-3.83832 3.91613,-3.83833 3.91613,-11.51523 3.91613,-31.59762 10e-6,-20.0824 10e-6,-51.99044 10e-6,-70.43443 1e-5,-18.44399 0,-23.13399 -2.21618,-25.47884 -2.21618,-2.34485 -7.35392,-2.34485 -10.98641,-2.34485 -3.63249,0 -6.11203,0 -9.74469,0 -3.63267,0 -8.41737,0 -10.81008,-2.34522 -2.39272,-2.34523 -2.39272,-7.03494 -2.39272,-10.59501 0,-3.56008 0,-5.99053 0,-9.55043 0,-3.5599 0,-8.25033 -2.39234,-10.59518 -2.39234,-2.34486 -7.17776,-2.34486 -49.47021,-2.34486 -42.29245,0 -122.083774,0 -167.7640775,0 -45.6803035,0 -58.2152585,0 -64.2403955,5.90511 -6.025138,5.90512 -6.025138,17.71511 -6.025138,43.8362 0,26.12108 0,66.55135 0,92.67206 0,26.1207 0,37.930864 6.025138,43.836109 z"
       id="path4591"
       inkscape:connector-curvature="0"
       inkscape:path-effect="#path-effect4593"
       inkscape:original-d="m -68.711901,-80.833366 c 12.050275,-2.6e-4 24.100322,-2.6e-4 36.150084,0 31.72175391,-2.6e-4 63.444581,-2.6e-4 95.166506,-2e-5 7.832703,-2.5e-4 15.665301,-2.5e-4 23.497547,0 2.47e-4,-7.67666 2.47e-4,-15.35355 0,-23.029964 7.278633,0.14815 15.665274,-2.4e-4 23.497534,0 41.40993,-2.4e-4 82.82226,-2.3e-4 124.23301,2e-5 7.63164,-0.34955 15.66529,-2.5e-4 23.49755,0 2.5e-4,-7.67665 2.5e-4,-15.35355 0,-23.02996 -0.20082,-32.48838 2.5e-4,-64.39642 2e-5,-96.59424 2.5e-4,-4.69016 2.5e-4,-9.38016 -1e-5,-14.06986 -4.43236,-0.41253 -9.5701,-2.5e-4 -14.35552,0 -2.47956,-2.5e-4 -4.9591,-2.5e-4 -7.43903,0 -4.7854,-2.5e-4 -9.5701,-2.5e-4 -14.35553,0 2.5e-4,-4.69045 2.5e-4,-9.38016 0,-14.06986 2.5e-4,-2.43045 2.4e-4,-4.8609 0,-7.29098 2.4e-4,-4.68972 2.4e-4,-9.38015 0,-14.06986 -4.78468,-2.4e-4 -9.5701,-2.4e-4 -14.35554,0 -79.79946,-2.4e-4 -159.590784,-2.4e-4 -239.386537,0 -11.564854,-0.38138 -24.099809,-2.4e-4 -36.150084,0 2.56e-4,11.81023 2.56e-4,23.62022 0,35.4307 2.56e-4,40.43169 2.56e-4,80.86196 0,121.29332 2.56e-4,11.81005 2.56e-4,23.620214 0,35.430704 z"
       inkscape:export-filename="C:\Users\Blaz\Desktop\test1.png"
       inkscape:export-xdpi="101"
       inkscape:export-ydpi="101" />
    <path
       style="fill:#ffffff;stroke:none;stroke-width:0.25135416px;stroke-linecap:butt;stroke-linejoin:miter;stroke-opacity:1"
       d="m 113.27328,-99.943886 c -7.83227,0 -15.664771,0 -19.581161,3.916265 -3.91639,3.916265 -3.9164,11.748525 -3.9164,19.3569 -10e-7,7.608375 1e-5,15.889185 3.63957,19.80557 3.63956,3.916385 12.025721,3.916385 36.646811,3.916388 24.6211,4e-6 66.03342,10e-6 90.65515,1.4e-5 24.62174,3e-6 32.45431,3e-6 36.37044,-3.916262 3.91614,-3.916265 3.91614,-11.749035 3.91614,-19.581425 0,-7.83239 0,-15.66516 -3.91601,-19.581295 -3.91601,-3.916135 -11.74878,-3.916135 -36.37121,-3.916138 -24.62242,-4e-6 -66.03208,-10e-6 -107.44333,-1.7e-5"
       id="path4595"
       inkscape:connector-curvature="0"
       inkscape:path-effect="#path-effect4597"
       inkscape:original-d="m 113.27328,-99.943886 c -7.83227,-2.4e-4 -15.664771,-2.4e-4 -23.497541,0 2.5e-4,7.83253 2.3e-4,15.66479 -3e-5,23.49756 -0.33829,7.38398 0,15.66479 3e-5,23.49756 7.27911,-0.61807 15.665271,-2.6e-4 23.497541,0 41.40992,-2.5e-4 82.82224,-2.4e-4 124.23299,2e-5 7.83272,-2.6e-4 15.66529,-2.6e-4 23.49756,0 2.4e-4,-7.83253 2.4e-4,-15.6653 0,-23.49756 2.4e-4,-7.83252 2.4e-4,-15.66529 0,-23.49756 -7.83202,-2.5e-4 -15.66479,-2.5e-4 -23.49756,0 -41.41208,-2.5e-4 -82.82174,-2.5e-4 -124.23299,-2e-5"
       inkscape:export-filename="C:\Users\Blaz\Desktop\test1.png"
       inkscape:export-xdpi="101"
       inkscape:export-ydpi="101" />
    <text
       xml:space="preserve"
       style="font-style:normal;font-weight:normal;font-size:50.79999924px;line-height:1.25;font-family:sans-serif;letter-spacing:0px;word-spacing:0px;fill:#000000;fill-opacity:1;stroke:none;stroke-width:0.26458332"
       x="76.876434"
       y="-242.88445"
       id="text4605"><tspan
         sodipodi:role="line"
         id="tspan4603"
         x="83.077606"
         y="-242.88445"
         style="font-size:35.27777863px;text-align:center;text-anchor:middle;stroke-width:0.26458332">Premalo </tspan><tspan
         sodipodi:role="line"
         x="83.077606"
         y="-179.38445"
         style="font-size:35.27777863px;text-align:center;text-anchor:middle;stroke-width:0.26458332"
         id="tspan4607">prostora za </tspan><tspan
         sodipodi:role="line"
         x="76.876427"
         y="-115.88445"
         style="font-size:35.27777863px;text-align:center;text-anchor:middle;stroke-width:0.26458332"
         id="tspan4609">ceno in &quot;BUY&quot;</tspan></text>
    <path
       style="fill:url(#linearGradient5115);fill-opacity:1;stroke:none;stroke-width:0.26501569px;stroke-linecap:butt;stroke-linejoin:miter;stroke-opacity:1"
       d="m -82.319053,17.008735 c -6.34225,6.362732 -6.34225,19.088462 -6.34225,47.234393 0,28.145931 0,71.710242 0,99.855752 0,28.14552 0,40.87117 6.224525,47.23417 6.224525,6.363 19.144205,6.363 36.89031,6.363 17.746105,-1e-5 40.5550447,-1e-5 56.081585,-2e-5 15.52654,0 23.77138,0 27.893635,4.1356 4.122255,4.13559 4.122265,12.40758 8.2449,16.54358 4.122635,4.13599 12.367135,4.13599 43.575556,4.13599 31.208422,1e-5 85.383992,1e-5 116.593262,2e-5 31.20928,0 39.45408,0 43.57633,-4.13587 4.12224,-4.13586 4.12225,-12.40785 4.12225,-20.67944 0,-8.27159 -1e-5,-16.54358 -1e-5,-42.16161 1e-5,-25.61804 1e-5,-68.58513 2e-5,-92.59473 0,-24.009599 0,-29.063138 0,-37.952421 0,-8.889284 -10e-6,-21.615682 -6.34186,-27.978414 -6.34186,-6.362732 -19.02637,-6.362732 -69.88558,-6.362732 -50.8592,0 -139.889643,0 -190.747933,0 -50.85829,0 -63.54249,0 -69.88474,6.362732 z"
       id="path4611"
       inkscape:connector-curvature="0"
       inkscape:path-effect="#path-effect4613"
       inkscape:original-d="m -88.661303,10.646003 c 2.7e-4,12.725464 2.7e-4,25.451194 0,38.177188 2.7e-4,43.565868 2.7e-4,87.130179 0,130.695669 2.7e-4,12.72554 2.7e-4,25.45119 0,38.17719 12.44905,-1.14038 25.36873,-2.7e-4 38.05272,0 22.80822,-2.7e-4 45.6171597,-2.7e-4 68.42533,-2e-5 8.24491,-2.6e-4 16.48975,-2.6e-4 24.73425,0 2.7e-4,8.27119 2.7e-4,16.54318 3e-5,24.81517 8.24526,-2.7e-4 16.48976,-2.7e-4 24.73425,0 54.172353,-2.6e-4 108.347923,-2.5e-4 162.521493,2e-5 8.24498,-2.7e-4 16.48978,-2.7e-4 24.73427,0 2.6e-4,-8.27173 2.6e-4,-16.54372 1e-5,-24.81517 2.6e-4,-8.27173 2.6e-4,-16.54372 -1e-5,-24.81518 2.6e-4,-42.96461 2.6e-4,-85.9317 2e-5,-128.897159 2.6e-4,-5.05374 2.6e-4,-10.107279 0,-15.16052 2.6e-4,-12.725326 2.6e-4,-25.451724 -10e-6,-38.177188 -12.68371,-2.66e-4 -25.36822,-2.66e-4 -38.05272,0 -89.03391,-2.66e-4 -178.064353,-2.66e-4 -267.096913,0 -12.68402,-2.66e-4 -25.36822,-2.66e-4 -38.05272,0 z"
       inkscape:export-filename="C:\Users\Blaz\Desktop\PopUp Image 3.png"
       inkscape:export-xdpi="75.785027"
       inkscape:export-ydpi="75.785027" />
    <path
       style="fill:url(#linearGradient5123);fill-opacity:1;stroke:none;stroke-width:0.2479969px;stroke-linecap:butt;stroke-linejoin:miter;stroke-opacity:1"
       d="m -44.019455,209.74933 c 21.668513,0 43.33680191,-10e-6 58.036136,-10e-6 14.699334,0 22.634119,0 26.550302,-3.82099 3.916183,-3.82098 3.916183,-11.42844 7.589139,-15.24062 3.672956,-3.81218 11.992525,-3.81218 41.224826,-3.81218 29.232302,1e-5 81.531762,1e-5 110.826462,2e-5 29.29471,0 37.83626,0 41.75243,-3.88096 3.91618,-3.88095 3.91618,-11.36848 3.91618,-31.17014 10e-6,-19.80166 10e-6,-51.78243 2e-5,-70.101364 0,-18.318934 0,-22.977122 -2.39236,-25.306075 -2.39236,-2.328953 -7.17786,-2.328953 -10.81039,-2.328953 -3.63253,0 -6.1121,0 -9.74481,0 -3.63271,0 -8.41746,0 -10.8102,-2.18232 -2.39274,-2.182319 -2.39274,-7.134226 -2.39274,-10.670161 0,-3.535934 0,-5.949903 0,-9.485665 0,-3.535761 0,-8.194385 -2.39237,-10.523338 -2.39237,-2.328953 -7.17785,-2.328953 -49.6674,-2.328953 -42.48955,0 -121.888552,0 -167.5693825,0 -45.6808305,0 -58.2159315,0 -64.2411385,6.154655 -6.025206,6.154655 -6.025206,17.305392 -6.025206,42.904165 0,25.598772 0,66.445269 0,92.388849 0,25.94358 0,37.67365 6.02533,43.53884 6.02533,5.8652 18.075241,5.8652 30.125172,5.8652"
       id="path4619"
       inkscape:connector-curvature="0"
       inkscape:path-effect="#path-effect4621"
       inkscape:original-d="m -44.019455,209.74933 c 21.668513,-2.4e-4 43.33680191,-2.4e-4 65.004812,-10e-6 7.730658,-0.0625 15.665443,-2.4e-4 23.497809,0 -0.101851,-7.64197 2.56e-4,-15.24943 0,-22.87379 7.345912,-0.1824 15.665481,-2.4e-4 23.497838,0 50.632246,-0.0174 102.931706,-2.3e-4 154.397196,2e-5 7.12392,-0.0174 15.66547,-2.5e-4 23.49782,0 -0.53936,-7.76191 2.5e-4,-15.24944 0,-22.87379 2.5e-4,-31.97897 2.5e-4,-63.95974 2e-5,-95.939247 2.5e-4,-4.658361 2.5e-4,-9.316549 0,-13.974455 -4.78472,-2.44e-4 -9.57022,-2.44e-4 -14.3557,0 -2.47958,-2.44e-4 -4.95915,-2.44e-4 -7.43911,0 -4.78546,-2.44e-4 -9.57021,-2.44e-4 -14.35569,0 -0.84617,-4.364639 2.5e-4,-9.316546 0,-13.974452 2.5e-4,-2.413963 2.4e-4,-4.827932 0,-7.241533 2.4e-4,-4.657922 2.4e-4,-9.316546 0,-13.974452 -4.78474,-2.46e-4 -9.57022,-2.46e-4 -14.35572,0 -80.1936,-0.04924 -159.592602,-2.46e-4 -239.389275,0 -11.564988,0.280315 -24.100089,-2.46e-4 -36.150502,0 -0.191884,12.30931 2.56e-4,23.460047 0,35.190437 0.146672,39.467155 2.56e-4,80.313652 0,120.470842 2.56e-4,11.72997 2.56e-4,23.46004 0,35.19043 12.05066,-2.4e-4 24.100571,-2.4e-4 36.150502,0"
       inkscape:export-filename="C:\Users\Blaz\Desktop\PopUp Image 3.png"
       inkscape:export-xdpi="75.785027"
       inkscape:export-ydpi="75.785027" />
    <path
       style="fill:url(#linearGradient5131);fill-opacity:1;stroke:none;stroke-width:0.25176492px;stroke-linecap:butt;stroke-linejoin:miter;stroke-opacity:1"
       d="m 47.866893,214.47831 c 0,7.85789 0,15.71603 3.82165,19.64522 3.821651,3.9292 11.843622,3.9292 41.398074,3.9292 29.554453,1e-5 81.208323,1e-5 110.916883,2e-5 29.70856,0 37.42162,0 41.33776,-4.15747 3.91613,-4.15747 3.91614,-11.55906 3.91614,-18.83861 0,-7.27955 -1e-5,-16.29487 -3.47095,-20.22381 -3.47095,-3.92895 -12.19385,-3.92895 -41.9982,-3.92895 -29.80436,-1e-5 -80.95844,-1e-5 -110.975107,-2e-5 -30.016667,0 -37.1135,0 -41.029885,3.64062 -3.916384,3.64062 -3.916374,12.07541 -3.916365,19.9338"
       id="path4623"
       inkscape:connector-curvature="0"
       inkscape:path-effect="#path-effect4625"
       inkscape:original-d="m 47.866893,214.47831 c 2.47e-4,7.85789 2.47e-4,15.71603 0,23.57442 7.643301,-0.14949 15.665272,-2.6e-4 23.497538,0 51.276639,-0.38964 102.930509,-2.4e-4 154.395399,2e-5 7.95223,-0.26958 15.66529,-2.6e-4 23.49756,0 0.35911,-8.31494 2.5e-4,-15.71653 1e-5,-23.57442 0.11974,-6.70121 2.5e-4,-15.71653 -1e-5,-23.57442 -6.94189,-0.1642 -15.66479,-2.5e-4 -23.49756,0 -51.77594,0.6764 -102.93002,-2.5e-4 -154.395399,-2e-5 -8.567955,0.0759 -15.664788,-2.4e-4 -23.497566,0 0.341838,7.28124 2.56e-4,15.71603 2.8e-5,23.57442"
       inkscape:export-filename="C:\Users\Blaz\Desktop\PopUp Image 3.png"
       inkscape:export-xdpi="75.785027"
       inkscape:export-ydpi="75.785027" />
    <rect
       y="383.60815"
       x="-407.24658"
       height="138.1001"
       width="343.20236"
       id="rect79"
       style="opacity:1;fill:#ffffff;fill-opacity:1;fill-rule:nonzero;stroke:#000000;stroke-width:0.81802851;stroke-linecap:butt;stroke-linejoin:round;stroke-miterlimit:4;stroke-dasharray:none;stroke-dashoffset:0;stroke-opacity:1;paint-order:normal" />
    <rect
       style="opacity:1;fill:#ffffff;fill-opacity:1;fill-rule:nonzero;stroke:#000000;stroke-width:1;stroke-linecap:butt;stroke-linejoin:round;stroke-miterlimit:4;stroke-dasharray:none;stroke-dashoffset:0;stroke-opacity:1;paint-order:normal"
       id="rect81"
       width="38.052719"
       height="38.052719"
       x="-407.24658"
       y="383.60815" />
    <rect
       y="483.65555"
       x="-407.24658"
       height="38.052719"
       width="38.052719"
       id="rect83"
       style="opacity:1;fill:#ffffff;fill-opacity:1;fill-rule:nonzero;stroke:#000000;stroke-width:1;stroke-linecap:butt;stroke-linejoin:round;stroke-miterlimit:4;stroke-dasharray:none;stroke-dashoffset:0;stroke-opacity:1;paint-order:normal" />
    <rect
       style="opacity:1;fill:#ffffff;fill-opacity:1;fill-rule:nonzero;stroke:#000000;stroke-width:1;stroke-linecap:butt;stroke-linejoin:round;stroke-miterlimit:4;stroke-dasharray:none;stroke-dashoffset:0;stroke-opacity:1;paint-order:normal"
       id="rect85"
       width="24.734268"
       height="24.734268"
       x="-88.778511"
       y="521.70825" />
    <rect
       y="521.70825"
       x="-276.03427"
       height="24.734268"
       width="24.734268"
       id="rect87"
       style="opacity:1;fill:#ffffff;fill-opacity:1;fill-rule:nonzero;stroke:#000000;stroke-width:1;stroke-linecap:butt;stroke-linejoin:round;stroke-miterlimit:4;stroke-dasharray:none;stroke-dashoffset:0;stroke-opacity:1;paint-order:normal" />
    <rect
       style="opacity:1;fill:#ffffff;fill-opacity:1;fill-rule:nonzero;stroke:#000000;stroke-width:1;stroke-linecap:butt;stroke-linejoin:round;stroke-miterlimit:4;stroke-dasharray:none;stroke-dashoffset:0;stroke-opacity:1;paint-order:normal"
       id="rect89"
       width="24.734268"
       height="24.734268"
       x="-300.76852"
       y="521.70825" />
    <rect
       style="opacity:1;fill:#ffffff;fill-opacity:1;fill-rule:nonzero;stroke:#000000;stroke-width:1;stroke-linecap:butt;stroke-linejoin:round;stroke-miterlimit:4;stroke-dasharray:none;stroke-dashoffset:0;stroke-opacity:1;paint-order:normal"
       id="rect91"
       width="24.734268"
       height="24.734268"
       x="-276.03427"
       y="496.97397" />
    <rect
       y="496.974"
       x="-88.778511"
       height="24.734268"
       width="24.734268"
       id="rect93"
       style="opacity:1;fill:#ffffff;fill-opacity:1;fill-rule:nonzero;stroke:#000000;stroke-width:1;stroke-linecap:butt;stroke-linejoin:round;stroke-miterlimit:4;stroke-dasharray:none;stroke-dashoffset:0;stroke-opacity:1;paint-order:normal" />
    <path
       inkscape:connector-curvature="0"
       id="path95"
       d="m -369.19386,521.70826 124.9095,-2e-5"
       style="fill:none;stroke:#000000;stroke-width:1;stroke-linecap:butt;stroke-linejoin:miter;stroke-miterlimit:4;stroke-dasharray:none;stroke-opacity:1" />
    <rect
       style="opacity:1;fill:#ffffff;fill-opacity:1;fill-rule:nonzero;stroke:#000000;stroke-width:1;stroke-linecap:butt;stroke-linejoin:round;stroke-miterlimit:4;stroke-dasharray:none;stroke-dashoffset:0;stroke-opacity:1;paint-order:normal"
       id="rect97"
       width="24.734268"
       height="24.734268"
       x="-88.778511"
       y="472.23972" />
    <rect
       ry="7.7485118"
       y="383.60815"
       x="-102.09695"
       height="38.052719"
       width="38.052719"
       id="rect99"
       style="opacity:1;fill:#ffffff;fill-opacity:1;fill-rule:nonzero;stroke:#000000;stroke-width:1;stroke-linecap:butt;stroke-linejoin:round;stroke-miterlimit:4;stroke-dasharray:none;stroke-dashoffset:0;stroke-opacity:1;paint-order:normal" />
    <rect
       y="406.5498"
       x="-102.09695"
       height="15.111092"
       width="15.111092"
       id="rect101"
       style="opacity:1;fill:#ff0000;fill-opacity:1;fill-rule:nonzero;stroke:#000000;stroke-width:1;stroke-linecap:butt;stroke-linejoin:round;stroke-miterlimit:4;stroke-dasharray:none;stroke-dashoffset:0;stroke-opacity:1;paint-order:normal" />
    <rect
       style="opacity:1;fill:#ff0000;fill-opacity:1;fill-rule:nonzero;stroke:#000000;stroke-width:1;stroke-linecap:butt;stroke-linejoin:round;stroke-miterlimit:4;stroke-dasharray:none;stroke-dashoffset:0;stroke-opacity:1;paint-order:normal"
       id="rect103"
       width="15.111092"
       height="15.111092"
       x="-79.155312"
       y="421.66089" />
    <rect
       y="383.60815"
       x="-117.20805"
       height="15.111092"
       width="15.111092"
       id="rect105"
       style="opacity:1;fill:#ff0000;fill-opacity:1;fill-rule:nonzero;stroke:#000000;stroke-width:1;stroke-linecap:butt;stroke-linejoin:round;stroke-miterlimit:4;stroke-dasharray:none;stroke-dashoffset:0;stroke-opacity:1;paint-order:normal" />
    <rect
       style="opacity:1;fill:#ff0000;fill-opacity:1;fill-rule:nonzero;stroke:#000000;stroke-width:1;stroke-linecap:butt;stroke-linejoin:round;stroke-miterlimit:4;stroke-dasharray:none;stroke-dashoffset:0;stroke-opacity:1;paint-order:normal"
       id="rect107"
       width="15.111092"
       height="15.111092"
       x="-132.31914"
       y="383.60815" />
    <rect
       y="436.77197"
       x="-79.155312"
       height="15.111092"
       width="15.111092"
       id="rect109"
       style="opacity:1;fill:#ff0000;fill-opacity:1;fill-rule:nonzero;stroke:#000000;stroke-width:1;stroke-linecap:butt;stroke-linejoin:round;stroke-miterlimit:4;stroke-dasharray:none;stroke-dashoffset:0;stroke-opacity:1;paint-order:normal" />
    <path
       style="fill:url(#linearGradient948);fill-opacity:1;stroke:none;stroke-width:0.26458332px;stroke-linecap:butt;stroke-linejoin:miter;stroke-opacity:1"
       d="m 368.47004,191.36313 c 22.80872,-1e-5 45.61714,-2e-5 61.1437,-3e-5 15.52656,0 23.7714,0 27.89364,4.12211 4.12225,4.12212 4.12225,12.36715 7.89963,16.48966 3.77738,4.12251 12.71239,4.12251 43.92832,4.12251 31.21593,0 85.37648,0 114.96541,0 29.58892,0 41.07442,0 45.19666,-3.97785 4.12225,-3.97785 4.12225,-12.51193 4.12225,-33.30833 10e-6,-20.79639 2e-5,-54.14659 3e-5,-77.16322 0,-23.016639 0,-35.700999 -6.34186,-42.042984 -6.34186,-6.341985 -19.02638,-6.341985 -68.93435,-6.341985 -49.90796,0 -140.84086,0 -191.35482,0 -50.51395,0 -63.88681,0 -70.22907,6.234155 -6.34226,6.234155 -6.34226,19.134075 -6.34226,35.808839 0,16.674765 0,37.339225 0,53.089325 0,15.75011 0,30.28328 6.93725,36.62552 6.93726,6.34225 18.4315,6.34225 31.11547,6.34225"
       id="path117"
       inkscape:connector-curvature="0"
       inkscape:path-effect="#path-effect119"
       inkscape:original-d="m 368.47004,191.36313 c 22.80872,-2.7e-4 45.61714,0 68.42534,-3e-5 8.24492,-2.6e-4 16.48976,-2.6e-4 24.73425,0 2.7e-4,8.24423 2.7e-4,16.48926 0,24.73428 7.55476,0.24032 16.48977,0 24.73426,0 54.18737,-0.82873 108.34792,0 162.52149,0 5.00428,-0.47241 16.48978,0 24.73427,0 -0.74591,-7.9557 2.7e-4,-16.48978 0,-24.73425 2.7e-4,-33.34832 2.7e-4,-66.69852 3e-5,-100.047399 2.6e-4,-12.68439 2.6e-4,-25.36875 0,-38.05272 -12.68372,-2.6e-4 -25.36824,-2.6e-4 -38.05275,0 -87.13142,0.70819 -178.06432,-2.6e-4 -267.09689,0 -11.99534,-0.71726 -25.3682,-2.6e-4 -38.05272,0 -0.38016,12.46831 2.6e-4,25.36823 0,38.05272 2.6e-4,20.665039 2.6e-4,41.329499 0,61.994679 0.33258,10.83503 2.6e-4,25.3682 0,38.05269 13.87451,-0.0676 25.36875,-2.6e-4 38.05272,0"
       inkscape:export-filename="C:\Users\Blaz\Desktop\PopUp9.png"
       inkscape:export-xdpi="75.726654"
       inkscape:export-ydpi="75.726654" />
    <path
       style="fill:url(#linearGradient946);fill-opacity:1;stroke:none;stroke-width:0.24219981px;stroke-linecap:butt;stroke-linejoin:miter;stroke-opacity:1"
       d="m 380.92332,184.36799 c 16.69078,0 38.14256,-1e-5 52.61126,-2e-5 14.4687,0 22.49178,0 26.36883,-3.67285 3.87706,-3.67285 3.87706,-11.01876 7.75423,-14.6915 3.87717,-3.67274 11.63176,-3.67274 40.48821,-3.67274 28.85646,1e-5 80.80099,2e-5 110.15391,3e-5 29.35293,0 37.10732,0 40.98437,-3.65963 3.87705,-3.65963 3.87705,-11.032 3.87705,-19.97136 0,-8.93936 1e-5,-19.47307 1e-5,-26.98359 0,-7.51052 -1e-5,-11.998359 -2.36847,-14.242129 -2.36846,-2.24377 -7.10614,-2.24377 -10.70237,-2.243765 -3.59623,5e-6 -6.05102,1.5e-5 -9.64743,1.5e-5 -3.59642,0 -8.33337,-1e-5 -10.7022,-2.31895 -2.36883,-2.31894 -2.36883,-6.65679 -2.36883,-10.06339 -10e-6,-3.4066 -10e-6,-5.73229 -10e-6,-9.13871 0,-3.40642 0,-7.89462 -2.26211,-10.13839 -2.26211,-2.24377 -7.2125,-2.24377 -49.52891,-2.24377 -42.31641,0 -120.41936,0 -165.56001,0 -45.14064,0 -57.71807,0 -63.68309,5.23683 -5.96502,5.23683 -5.96502,17.36507 -5.96502,31.809569 0,14.4445 0,33.67945 0,47.87081 0,14.19136 0,26.82223 5.96514,32.47288 5.96514,5.65065 17.89466,5.65066 34.58544,5.65066 z"
       id="path121"
       inkscape:connector-curvature="0"
       inkscape:path-effect="#path-effect123"
       inkscape:original-d="m 376.16206,184.368 c 21.45204,-2.5e-4 42.90382,0 64.35536,-3e-5 7.48586,-1.01266 15.50894,-2.3e-4 23.26305,0 2.5e-4,-7.3457 2.5e-4,-14.69161 0,-22.03709 7.75434,-2.4e-4 15.50893,-2.4e-4 23.26304,0 49.9588,-0.65194 101.90333,-2.4e-4 152.8546,3e-5 7.75458,-2.4e-4 15.50897,-2.4e-4 23.26307,0 -0.36639,-7.31926 2.4e-4,-14.69163 0,-22.0371 2.4e-4,-10.53325 2.4e-4,-21.06696 1e-5,-31.60009 2.5e-4,-4.48791 2.5e-4,-8.975749 -1e-5,-13.463289 -4.73692,0 -9.4746,0 -14.21225,0 -2.45481,-2.1e-4 -4.9096,-2.1e-4 -7.36479,3e-5 -4.73764,0 -9.47459,0 -14.21225,-3e-5 -0.50253,-4.63787 2.5e-4,-8.97572 0,-13.46325 2.4e-4,-2.32567 2.4e-4,-4.65136 -2e-5,-6.97666 2.5e-4,-4.48754 2.5e-4,-8.97574 2e-5,-13.46328 -4.52423,-0.005 -9.47462,-2.3e-4 -14.21229,0 -79.89515,-0.005 -157.9981,-2.3e-4 -236.99754,0 -11.28185,-0.005 -23.85928,-2.3e-4 -35.78932,0 -1.02788,10.47366 2.5e-4,22.6019 0,33.90319 0.3128,17.587709 2.5e-4,36.822659 0,55.234379 -1.36305,9.971 2.5e-4,22.60187 0,33.90316 11.93028,-2.3e-4 23.8598,-2.2e-4 35.78932,3e-5 z"
       inkscape:export-filename="C:\Users\Blaz\Desktop\PopUp9.png"
       inkscape:export-xdpi="75.726654"
       inkscape:export-ydpi="75.726654" />
    <path
       style="fill:url(#linearGradient962);fill-opacity:1;stroke:none;stroke-width:0.24353774px;stroke-linecap:butt;stroke-linejoin:miter;stroke-opacity:1"
       d="m 467.84302,189.77535 c 0,7.42029 0,14.84057 4.2269,18.55083 4.22691,3.71026 11.29625,3.71026 39.67593,3.71026 28.37969,0 81.37812,0 110.4067,0 29.02857,0 37.49251,0 41.37311,-3.71014 3.8806,-3.71014 3.8806,-11.13066 3.8806,-18.23857 0,-7.1079 0,-15.15292 -3.88047,-18.86294 -3.88048,-3.71002 -11.64219,-3.71002 -41.68332,-3.71003 -30.04114,0 -79.71667,-1e-5 -108.89548,-1e-5 -29.17882,-1e-5 -37.34229,-1e-5 -41.22313,3.71013 -3.88084,3.71014 -3.88084,11.13019 -3.88084,18.55047 z"
       id="path125"
       inkscape:connector-curvature="0"
       inkscape:path-effect="#path-effect127"
       inkscape:original-d="m 467.84302,189.77559 c 2.6e-4,7.42005 2.6e-4,14.84033 0,22.26085 8.45381,-1.06665 15.52315,0 23.28435,0 48.99817,-0.74585 101.9966,0 152.99453,0 7.05922,-0.42517 15.52316,0 23.28436,0 2.5e-4,-7.42028 2.5e-4,-14.8408 0,-22.26085 -0.36673,-6.79576 2.5e-4,-14.84078 0,-22.26082 -7.76095,-2.5e-4 -15.52266,-2.5e-4 -23.28436,0 -52.32057,0.62431 -101.9961,0 -152.99453,-3e-5 -7.3592,0.94502 -15.52267,-2.4e-4 -23.28435,0 2.6e-4,7.42028 2.6e-4,14.84033 0,22.26085 z"
       inkscape:export-filename="C:\Users\Blaz\Desktop\PopUp9.png"
       inkscape:export-xdpi="75.726654"
       inkscape:export-ydpi="75.726654" />
  </g>
</svg>
