<?xml version="1.0" encoding="UTF-8" standalone="no"?>
<!-- Created with Inkscape (http://www.inkscape.org/) -->

<svg
   xmlns:dc="http://purl.org/dc/elements/1.1/"
   xmlns:cc="http://creativecommons.org/ns#"
   xmlns:rdf="http://www.w3.org/1999/02/22-rdf-syntax-ns#"
   xmlns:svg="http://www.w3.org/2000/svg"
   xmlns="http://www.w3.org/2000/svg"
   xmlns:xlink="http://www.w3.org/1999/xlink"
   xmlns:sodipodi="http://sodipodi.sourceforge.net/DTD/sodipodi-0.dtd"
   xmlns:inkscape="http://www.inkscape.org/namespaces/inkscape"
   width="210mm"
   height="297mm"
   viewBox="0 0 210 297"
   version="1.1"
   id="svg8"
   sodipodi:docname="Store PopUp 2.svg"
   inkscape:version="0.92.1 r15371">
  <defs
     id="defs2">
    <linearGradient
       inkscape:collect="always"
       id="linearGradient4674">
      <stop
         style="stop-color:#ffffff;stop-opacity:1"
         offset="0"
         id="stop4670" />
      <stop
         style="stop-color:#cccccc;stop-opacity:1"
         offset="1"
         id="stop4672" />
    </linearGradient>
    <linearGradient
       inkscape:collect="always"
       id="linearGradient4662">
      <stop
         style="stop-color:#b3b3b3;stop-opacity:1"
         offset="0"
         id="stop4658" />
      <stop
         style="stop-color:#808080;stop-opacity:1"
         offset="1"
         id="stop4660" />
    </linearGradient>
    <inkscape:path-effect
       only_selected="false"
       apply_with_weight="true"
       apply_no_weight="true"
       helper_size="0"
       steps="2"
       weight="33.333333"
       is_visible="true"
       id="path-effect4642"
       effect="bspline" />
    <inkscape:path-effect
       effect="bspline"
       id="path-effect4630"
       is_visible="true"
       weight="33.333333"
       steps="2"
       helper_size="0"
       apply_no_weight="true"
       apply_with_weight="true"
       only_selected="false" />
    <inkscape:path-effect
       only_selected="false"
       apply_with_weight="true"
       apply_no_weight="true"
       helper_size="0"
       steps="2"
       weight="33.333333"
       is_visible="true"
       id="path-effect4624"
       effect="bspline" />
    <inkscape:path-effect
       only_selected="false"
       apply_with_weight="true"
       apply_no_weight="true"
       helper_size="0"
       steps="2"
       weight="33.333333"
       is_visible="true"
       id="path-effect4618"
       effect="bspline" />
    <inkscape:path-effect
       only_selected="false"
       apply_with_weight="true"
       apply_no_weight="true"
       helper_size="0"
       steps="2"
       weight="33.333333"
       is_visible="true"
       id="path-effect4612"
       effect="bspline" />
    <inkscape:path-effect
       effect="bspline"
       id="path-effect4608"
       is_visible="true"
       weight="33.333333"
       steps="2"
       helper_size="0"
       apply_no_weight="true"
       apply_with_weight="true"
       only_selected="false" />
    <inkscape:path-effect
       effect="bspline"
       id="path-effect4604"
       is_visible="true"
       weight="33.333333"
       steps="2"
       helper_size="0"
       apply_no_weight="true"
       apply_with_weight="true"
       only_selected="false" />
    <inkscape:path-effect
       only_selected="false"
       apply_with_weight="true"
       apply_no_weight="true"
       helper_size="0"
       steps="2"
       weight="33.333333"
       is_visible="true"
       id="path-effect4598"
       effect="bspline" />
    <inkscape:path-effect
       effect="bspline"
       id="path-effect4594"
       is_visible="true"
       weight="33.333333"
       steps="2"
       helper_size="0"
       apply_no_weight="true"
       apply_with_weight="true"
       only_selected="false" />
    <inkscape:path-effect
       effect="bspline"
       id="path-effect4590"
       is_visible="true"
       weight="33.333333"
       steps="2"
       helper_size="0"
       apply_no_weight="true"
       apply_with_weight="true"
       only_selected="false" />
    <linearGradient
       inkscape:collect="always"
       id="linearGradient5129">
      <stop
         style="stop-color:#ffffff;stop-opacity:1;"
         offset="0"
         id="stop5125" />
      <stop
         style="stop-color:#cccccc;stop-opacity:1"
         offset="1"
         id="stop5127" />
    </linearGradient>
    <linearGradient
       inkscape:collect="always"
       id="linearGradient5121">
      <stop
         style="stop-color:#ffffff;stop-opacity:1;"
         offset="0"
         id="stop5117" />
      <stop
         style="stop-color:#cccccc;stop-opacity:1"
         offset="1"
         id="stop5119" />
    </linearGradient>
    <linearGradient
       inkscape:collect="always"
       id="linearGradient5113">
      <stop
         style="stop-color:#b3b3b3;stop-opacity:1;"
         offset="0"
         id="stop5109" />
      <stop
         style="stop-color:#808080;stop-opacity:1"
         offset="1"
         id="stop5111" />
    </linearGradient>
    <inkscape:path-effect
       effect="bspline"
       id="path-effect4625"
       is_visible="true"
       weight="33.333333"
       steps="2"
       helper_size="0"
       apply_no_weight="true"
       apply_with_weight="true"
       only_selected="false" />
    <inkscape:path-effect
       effect="bspline"
       id="path-effect4621"
       is_visible="true"
       weight="33.333333"
       steps="2"
       helper_size="0"
       apply_no_weight="true"
       apply_with_weight="true"
       only_selected="false" />
    <inkscape:path-effect
       effect="bspline"
       id="path-effect4617"
       is_visible="true"
       weight="33.333333"
       steps="2"
       helper_size="0"
       apply_no_weight="true"
       apply_with_weight="true"
       only_selected="false" />
    <inkscape:path-effect
       effect="bspline"
       id="path-effect4613"
       is_visible="true"
       weight="33.333333"
       steps="2"
       helper_size="0"
       apply_no_weight="true"
       apply_with_weight="true"
       only_selected="false" />
    <inkscape:path-effect
       effect="bspline"
       id="path-effect4597"
       is_visible="true"
       weight="33.333333"
       steps="2"
       helper_size="0"
       apply_no_weight="true"
       apply_with_weight="true"
       only_selected="false" />
    <inkscape:path-effect
       effect="bspline"
       id="path-effect4593"
       is_visible="true"
       weight="33.333333"
       steps="2"
       helper_size="0"
       apply_no_weight="true"
       apply_with_weight="true"
       only_selected="false" />
    <inkscape:path-effect
       effect="bspline"
       id="path-effect4589"
       is_visible="true"
       weight="33.333333"
       steps="2"
       helper_size="0"
       apply_no_weight="true"
       apply_with_weight="true"
       only_selected="false" />
    <inkscape:path-effect
       effect="bspline"
       id="path-effect4577"
       is_visible="true"
       weight="33.333333"
       steps="2"
       helper_size="0"
       apply_no_weight="true"
       apply_with_weight="true"
       only_selected="false" />
    <inkscape:path-effect
       effect="bspline"
       id="path-effect4573"
       is_visible="true"
       weight="33.333333"
       steps="2"
       helper_size="0"
       apply_no_weight="true"
       apply_with_weight="true"
       only_selected="false" />
    <inkscape:path-effect
       effect="bspline"
       id="path-effect4566"
       is_visible="true"
       weight="33.333333"
       steps="2"
       helper_size="0"
       apply_no_weight="true"
       apply_with_weight="true"
       only_selected="false" />
    <inkscape:path-effect
       effect="bspline"
       id="path-effect4553"
       is_visible="true"
       weight="33.333333"
       steps="2"
       helper_size="0"
       apply_no_weight="true"
       apply_with_weight="true"
       only_selected="false" />
    <inkscape:path-effect
       effect="bspline"
       id="path-effect4546"
       is_visible="true"
       weight="33.333333"
       steps="2"
       helper_size="0"
       apply_no_weight="true"
       apply_with_weight="true"
       only_selected="false" />
    <inkscape:path-effect
       effect="bspline"
       id="path-effect4538"
       is_visible="true"
       weight="33.333333"
       steps="2"
       helper_size="0"
       apply_no_weight="true"
       apply_with_weight="true"
       only_selected="false" />
    <inkscape:path-effect
       effect="bspline"
       id="path-effect4534"
       is_visible="true"
       weight="33.333333"
       steps="2"
       helper_size="0"
       apply_no_weight="true"
       apply_with_weight="true"
       only_selected="false" />
    <inkscape:path-effect
       effect="bspline"
       id="path-effect4572"
       is_visible="true"
       weight="33.333333"
       steps="2"
       helper_size="0"
       apply_no_weight="true"
       apply_with_weight="true"
       only_selected="false" />
    <inkscape:path-effect
       effect="spiro"
       id="path-effect4564"
       is_visible="true" />
    <inkscape:path-effect
       effect="bspline"
       id="path-effect4560"
       is_visible="true"
       weight="33.333333"
       steps="2"
       helper_size="0"
       apply_no_weight="true"
       apply_with_weight="true"
       only_selected="false" />
    <inkscape:path-effect
       effect="bspline"
       id="path-effect4556"
       is_visible="true"
       weight="33.333333"
       steps="2"
       helper_size="0"
       apply_no_weight="true"
       apply_with_weight="true"
       only_selected="false" />
    <inkscape:path-effect
       effect="bspline"
       id="path-effect4552"
       is_visible="true"
       weight="33.333333"
       steps="2"
       helper_size="0"
       apply_no_weight="true"
       apply_with_weight="true"
       only_selected="false" />
    <inkscape:path-effect
       effect="bspline"
       id="path-effect4548"
       is_visible="true"
       weight="33.333333"
       steps="2"
       helper_size="0"
       apply_no_weight="true"
       apply_with_weight="true"
       only_selected="false" />
    <inkscape:path-effect
       effect="bspline"
       id="path-effect4544"
       is_visible="true"
       weight="33.333333"
       steps="2"
       helper_size="0"
       apply_no_weight="true"
       apply_with_weight="true"
       only_selected="false" />
    <inkscape:path-effect
       effect="bspline"
       id="path-effect4540"
       is_visible="true"
       weight="33.333333"
       steps="2"
       helper_size="0"
       apply_no_weight="true"
       apply_with_weight="true"
       only_selected="false" />
    <inkscape:path-effect
       effect="bspline"
       id="path-effect4536"
       is_visible="true"
       weight="33.333333"
       steps="2"
       helper_size="0"
       apply_no_weight="true"
       apply_with_weight="true"
       only_selected="false" />
    <inkscape:path-effect
       effect="bspline"
       id="path-effect4532"
       is_visible="true"
       weight="33.333333"
       steps="2"
       helper_size="0"
       apply_no_weight="true"
       apply_with_weight="true"
       only_selected="false" />
    <inkscape:path-effect
       effect="bspline"
       id="path-effect4528"
       is_visible="true"
       weight="33.333333"
       steps="2"
       helper_size="0"
       apply_no_weight="true"
       apply_with_weight="true"
       only_selected="false" />
    <inkscape:path-effect
       effect="bspline"
       id="path-effect4522"
       is_visible="true"
       weight="33.333333"
       steps="2"
       helper_size="0"
       apply_no_weight="true"
       apply_with_weight="true"
       only_selected="false" />
    <inkscape:path-effect
       effect="bspline"
       id="path-effect4518"
       is_visible="true"
       weight="33.333333"
       steps="2"
       helper_size="0"
       apply_no_weight="true"
       apply_with_weight="true"
       only_selected="false" />
    <inkscape:path-effect
       effect="bspline"
       id="path-effect4512"
       is_visible="true"
       weight="33.333333"
       steps="2"
       helper_size="0"
       apply_no_weight="true"
       apply_with_weight="true"
       only_selected="false" />
    <inkscape:path-effect
       effect="bspline"
       id="path-effect4513"
       is_visible="true"
       weight="33.333333"
       steps="2"
       helper_size="0"
       apply_no_weight="true"
       apply_with_weight="true"
       only_selected="false" />
    <inkscape:path-effect
       effect="bspline"
       id="path-effect4507"
       is_visible="true"
       weight="33.333333"
       steps="2"
       helper_size="0"
       apply_no_weight="true"
       apply_with_weight="true"
       only_selected="false" />
    <inkscape:path-effect
       effect="bspline"
       id="path-effect4489"
       is_visible="true"
       weight="33.333333"
       steps="2"
       helper_size="0"
       apply_no_weight="true"
       apply_with_weight="true"
       only_selected="false" />
    <linearGradient
       inkscape:collect="always"
       xlink:href="#linearGradient5113"
       id="linearGradient5115"
       x1="-84.457169"
       y1="64.47551"
       x2="-84.457169"
       y2="182.60864"
       gradientUnits="userSpaceOnUse"
       gradientTransform="translate(428.01653,12.013862)" />
    <linearGradient
       inkscape:collect="always"
       xlink:href="#linearGradient5121"
       id="linearGradient5123"
       x1="28.865108"
       y1="123.80935"
       x2="28.865108"
       y2="209.33559"
       gradientUnits="userSpaceOnUse"
       gradientTransform="translate(428.01653,12.013862)" />
    <linearGradient
       inkscape:collect="always"
       xlink:href="#linearGradient5129"
       id="linearGradient5131"
       x1="209.53931"
       y1="191.16125"
       x2="209.53931"
       y2="236.59708"
       gradientUnits="userSpaceOnUse"
       gradientTransform="translate(428.01653,12.013862)" />
    <linearGradient
       inkscape:collect="always"
       xlink:href="#linearGradient5129"
       id="linearGradient4626"
       gradientUnits="userSpaceOnUse"
       gradientTransform="matrix(1,0,0,1.0217279,22.826057,-14.742014)"
       x1="209.53931"
       y1="191.16125"
       x2="209.53931"
       y2="236.59708" />
    <linearGradient
       inkscape:collect="always"
       xlink:href="#linearGradient5129"
       id="linearGradient4632"
       gradientUnits="userSpaceOnUse"
       gradientTransform="matrix(1,0,0,1.0217279,23.582009,36.543859)"
       x1="209.53931"
       y1="191.16125"
       x2="209.53931"
       y2="236.59708" />
    <linearGradient
       inkscape:collect="always"
       xlink:href="#linearGradient4662"
       id="linearGradient4664"
       x1="271.81311"
       y1="75.968102"
       x2="271.81311"
       y2="230.35547"
       gradientUnits="userSpaceOnUse"
       gradientTransform="matrix(1,0,0,1.0217279,0,-0.44712136)" />
    <linearGradient
       inkscape:collect="always"
       xlink:href="#linearGradient4674"
       id="linearGradient4676"
       x1="-13.363477"
       y1="135.03467"
       x2="-13.363477"
       y2="218.95731"
       gradientUnits="userSpaceOnUse"
       gradientTransform="matrix(1,0,0,1.0217279,0,-0.44712136)" />
  </defs>
  <sodipodi:namedview
     id="base"
     pagecolor="#ffffff"
     bordercolor="#666666"
     borderopacity="1.0"
     inkscape:pageopacity="0.0"
     inkscape:pageshadow="2"
     inkscape:zoom="1.979899"
     inkscape:cx="315.00986"
     inkscape:cy="114.9096"
     inkscape:document-units="mm"
     inkscape:current-layer="layer1"
     showgrid="false"
     inkscape:window-width="1366"
     inkscape:window-height="706"
     inkscape:window-x="-8"
     inkscape:window-y="-8"
     inkscape:window-maximized="1" />
  <metadata
     id="metadata5">
    <rdf:RDF>
      <cc:Work
         rdf:about="">
        <dc:format>image/svg+xml</dc:format>
        <dc:type
           rdf:resource="http://purl.org/dc/dcmitype/StillImage" />
        <dc:title />
      </cc:Work>
    </rdf:RDF>
  </metadata>
  <g
     inkscape:label="Layer 1"
     inkscape:groupmode="layer"
     id="layer1">
    <rect
       style="opacity:1;fill:#ffffff;fill-opacity:1;fill-rule:nonzero;stroke:#000000;stroke-width:1;stroke-linecap:butt;stroke-linejoin:round;stroke-miterlimit:4;stroke-dasharray:none;stroke-dashoffset:0;stroke-opacity:1;paint-order:normal"
       id="rect4485"
       width="343.20236"
       height="206.375"
       x="-503.46362"
       y="-4.3210907" />
    <rect
       y="-4.3210907"
       x="-503.46362"
       height="38.052719"
       width="38.052719"
       id="rect4493"
       style="opacity:1;fill:#ffffff;fill-opacity:1;fill-rule:nonzero;stroke:#000000;stroke-width:1;stroke-linecap:butt;stroke-linejoin:round;stroke-miterlimit:4;stroke-dasharray:none;stroke-dashoffset:0;stroke-opacity:1;paint-order:normal" />
    <rect
       style="opacity:1;fill:#ffffff;fill-opacity:1;fill-rule:nonzero;stroke:#000000;stroke-width:1;stroke-linecap:butt;stroke-linejoin:round;stroke-miterlimit:4;stroke-dasharray:none;stroke-dashoffset:0;stroke-opacity:1;paint-order:normal"
       id="rect4495"
       width="38.052719"
       height="38.052719"
       x="-503.46362"
       y="164.00119" />
    <rect
       y="202.05391"
       x="-184.99554"
       height="24.734268"
       width="24.734268"
       id="rect4497"
       style="opacity:1;fill:#ffffff;fill-opacity:1;fill-rule:nonzero;stroke:#000000;stroke-width:1;stroke-linecap:butt;stroke-linejoin:round;stroke-miterlimit:4;stroke-dasharray:none;stroke-dashoffset:0;stroke-opacity:1;paint-order:normal" />
    <rect
       style="opacity:1;fill:#ffffff;fill-opacity:1;fill-rule:nonzero;stroke:#000000;stroke-width:1;stroke-linecap:butt;stroke-linejoin:round;stroke-miterlimit:4;stroke-dasharray:none;stroke-dashoffset:0;stroke-opacity:1;paint-order:normal"
       id="rect4503"
       width="24.734268"
       height="24.734268"
       x="-372.25131"
       y="202.05389" />
    <rect
       y="202.05389"
       x="-396.98557"
       height="24.734268"
       width="24.734268"
       id="rect4509"
       style="opacity:1;fill:#ffffff;fill-opacity:1;fill-rule:nonzero;stroke:#000000;stroke-width:1;stroke-linecap:butt;stroke-linejoin:round;stroke-miterlimit:4;stroke-dasharray:none;stroke-dashoffset:0;stroke-opacity:1;paint-order:normal" />
    <rect
       y="177.31963"
       x="-372.25131"
       height="24.734268"
       width="24.734268"
       id="rect4515"
       style="opacity:1;fill:#ffffff;fill-opacity:1;fill-rule:nonzero;stroke:#000000;stroke-width:1;stroke-linecap:butt;stroke-linejoin:round;stroke-miterlimit:4;stroke-dasharray:none;stroke-dashoffset:0;stroke-opacity:1;paint-order:normal" />
    <rect
       style="opacity:1;fill:#ffffff;fill-opacity:1;fill-rule:nonzero;stroke:#000000;stroke-width:1;stroke-linecap:butt;stroke-linejoin:round;stroke-miterlimit:4;stroke-dasharray:none;stroke-dashoffset:0;stroke-opacity:1;paint-order:normal"
       id="rect4517"
       width="24.734268"
       height="24.734268"
       x="-184.99554"
       y="177.31964" />
    <path
       style="fill:none;stroke:#000000;stroke-width:1;stroke-linecap:butt;stroke-linejoin:miter;stroke-miterlimit:4;stroke-dasharray:none;stroke-opacity:1"
       d="m -465.41089,202.05391 124.9095,-2e-5"
       id="path4523"
       inkscape:connector-curvature="0" />
    <path
       style="fill:none;stroke:#000000;stroke-width:1px;stroke-linecap:butt;stroke-linejoin:miter;stroke-opacity:1"
       d="m -1286.9343,619.84696 -472.099,143.82136"
       inkscape:connector-curvature="0"
       id="path4506" />
    <rect
       y="152.58537"
       x="-184.99554"
       height="24.734268"
       width="24.734268"
       id="rect4514"
       style="opacity:1;fill:#ffffff;fill-opacity:1;fill-rule:nonzero;stroke:#000000;stroke-width:1;stroke-linecap:butt;stroke-linejoin:round;stroke-miterlimit:4;stroke-dasharray:none;stroke-dashoffset:0;stroke-opacity:1;paint-order:normal" />
    <rect
       style="opacity:1;fill:#ffffff;fill-opacity:1;fill-rule:nonzero;stroke:#000000;stroke-width:1;stroke-linecap:butt;stroke-linejoin:round;stroke-miterlimit:4;stroke-dasharray:none;stroke-dashoffset:0;stroke-opacity:1;paint-order:normal"
       id="rect4491"
       width="38.052719"
       height="38.052719"
       x="-198.31398"
       y="-4.3210907"
       ry="7.7485118" />
    <path
       style="fill:#00ff00;stroke:#000000;stroke-width:0.26458332px;stroke-linecap:butt;stroke-linejoin:miter;stroke-opacity:1"
       d="m -748.03459,46.002699 c 0,0 -10e-6,-5.037031 -2.51826,-7.555413 -2.51825,-2.518383 -7.55554,-2.518383 -11.37921,-2.518383 -3.82368,0 -6.43372,0 -10.25758,0 -3.82386,0 -8.86038,0 -11.37903,-2.518781 -2.51865,-2.518781 -2.51865,-7.555545 -2.51865,-11.37908 0,-3.823535 0,-6.433845 0,-10.257195 0,-3.8233505 0,-8.8608905 -2.51825,-11.3792755 -2.51825,-2.518385 -7.55554,-2.518385 -1.21295,-2.518385 6.34258,0 24.06292,0 32.92342,6.3418953 8.8605,6.3418952 8.86051,19.0263252 8.86051,27.8870082 0,8.860683 0,13.897609 0,13.897609 z"
       id="path4544"
       inkscape:connector-curvature="0"
       inkscape:original-d="m -748.03459,51.039995 c 2.6e-4,-5.037296 2.6e-4,-10.074327 -10e-6,-15.111092 -5.0365,-2.64e-4 -10.07379,-2.64e-4 -15.11108,0 -2.61006,-2.64e-4 -5.2201,-2.64e-4 -7.83055,0 -5.03727,-2.64e-4 -10.07379,-2.64e-4 -15.11109,0 2.7e-4,-5.037562 2.7e-4,-10.074326 0,-15.111086 2.7e-4,-2.61031 2.6e-4,-5.22062 0,-7.83054 2.6e-4,-5.0367805 2.6e-4,-10.0743205 0,-15.1110905 -5.0365,-2.6e-4 -10.07379,-2.6e-4 -15.11109,0 17.72247,-2.6e-4 35.44281,-2.6e-4 53.16381,0 2.7e-4,12.6837905 2.7e-4,25.3682205 10e-6,38.0527165 2.6e-4,5.03687 2.6e-4,10.073796 0,15.111092 z"
       inkscape:path-effect="#path-effect4546" />
    <rect
       style="opacity:1;fill:#ff0000;fill-opacity:1;fill-rule:nonzero;stroke:#000000;stroke-width:1;stroke-linecap:butt;stroke-linejoin:round;stroke-miterlimit:4;stroke-dasharray:none;stroke-dashoffset:0;stroke-opacity:1;paint-order:normal"
       id="rect4526"
       width="15.111092"
       height="15.111092"
       x="-198.31398"
       y="18.620537" />
    <rect
       y="33.731628"
       x="-175.37234"
       height="15.111092"
       width="15.111092"
       id="rect4528"
       style="opacity:1;fill:#ff0000;fill-opacity:1;fill-rule:nonzero;stroke:#000000;stroke-width:1;stroke-linecap:butt;stroke-linejoin:round;stroke-miterlimit:4;stroke-dasharray:none;stroke-dashoffset:0;stroke-opacity:1;paint-order:normal" />
    <rect
       style="opacity:1;fill:#ff0000;fill-opacity:1;fill-rule:nonzero;stroke:#000000;stroke-width:1;stroke-linecap:butt;stroke-linejoin:round;stroke-miterlimit:4;stroke-dasharray:none;stroke-dashoffset:0;stroke-opacity:1;paint-order:normal"
       id="rect4530"
       width="15.111092"
       height="15.111092"
       x="-213.42508"
       y="-4.3210907" />
    <path
       style="fill:#0000ff;stroke:#000000;stroke-width:0.26458332px;stroke-linecap:butt;stroke-linejoin:miter;stroke-opacity:1"
       d="m -610.31008,233.66739 c 0,0 0,-5.03703 -2.51825,-7.55542 -2.51825,-2.51838 -7.55555,-2.51838 -11.37922,-2.51838 -3.82368,0 -6.43372,0 -10.25758,0 -3.82386,0 -8.86038,0 -11.37903,-2.51878 -2.51865,-2.51878 -2.51865,-7.55554 -2.51865,-11.33391 0,-3.77837 0,-6.47902 0,-10.30237 0,-3.82335 0,-8.86089 -2.51825,-11.37927 -2.51825,-2.51838 -7.55555,-2.51838 -12.59271,-2.51838 -5.03716,0 -10.07392,0 -9.96971,0 0.10422,0 4.93281,0 9.96971,0 5.0369,0 10.0742,0 18.9345,0 8.8603,0 21.54521,0 27.8872,6.34186 6.34198,6.34185 6.34199,19.02635 6.34199,27.88704 0,8.86068 0,13.89761 0,13.89761 z"
       id="path4551"
       inkscape:connector-curvature="0"
       inkscape:original-d="m -610.31008,238.70469 c 2.6e-4,-5.0373 2.6e-4,-10.07433 0,-15.1111 -5.0365,-2.6e-4 -10.0738,-2.6e-4 -15.11109,0 -2.61006,-2.6e-4 -5.2201,-2.6e-4 -7.83055,0 -5.03727,-2.6e-4 -10.07379,-2.6e-4 -15.11109,0 2.7e-4,-5.03756 2.7e-4,-10.07432 0,-15.11109 -0.16689,-2.51997 2.6e-4,-5.22062 0,-7.83053 2.6e-4,-5.03679 2.6e-4,-10.07433 0,-15.11109 -5.0365,-2.7e-4 -10.0738,-2.7e-4 -15.11109,0 -5.03703,-2.7e-4 -10.07379,-2.7e-4 -15.11109,0 5.24573,0.21342 10.07432,-2.7e-4 15.11109,0 5.03703,-2.7e-4 10.07433,-2.7e-4 15.11109,0 12.68384,-2.7e-4 25.36875,-2.7e-4 38.05272,0 2.7e-4,12.68371 2.7e-4,25.36821 10e-6,38.05271 2.6e-4,5.03687 2.6e-4,10.0738 0,15.1111 z"
       inkscape:path-effect="#path-effect4553" />
    <path
       style="fill:#b3b3b3;stroke:none;stroke-width:0.26499999;stroke-linecap:butt;stroke-linejoin:miter;stroke-miterlimit:4;stroke-dasharray:none;stroke-opacity:1"
       d="m -39.239235,-73.919516 c 33.3920104,-7e-6 66.78377,-1.3e-5 87.601995,-1.7e-5 20.818225,-3e-6 29.063035,-3e-6 33.185275,4.122107 4.12224,4.12211 4.12225,12.36714 8.244902,16.48965 4.122652,4.12251 12.367143,4.12251 38.284063,4.122513 25.91693,4e-6 69.50885,10e-6 95.14245,1.4e-5 25.63361,3e-6 34.44644,3e-6 38.56868,-3.888757 4.12225,-3.88876 4.12225,-12.60102 4.12225,-44.776217 1e-5,-32.175197 1e-5,-88.284417 1e-5,-122.680217 10e-6,-34.3958 0,-47.0801 -6.34185,-53.42209 -6.34186,-6.34199 -19.02637,-6.34199 -69.88558,-6.34199 -50.8592,0 -139.889635,0 -190.747925,0 -50.85829,0 -63.54249,0 -69.88474,6.34212 -6.34225,6.34212 -6.34225,19.0261 -6.34225,47.08026 0,28.05417 0,71.47645 0,99.76383 0,28.287384 0,40.504284 6.04634,46.846539 6.04634,6.342255 19.32239,6.342255 32.00638,6.342255"
       id="path4587"
       inkscape:connector-curvature="0"
       inkscape:path-effect="#path-effect4589"
       inkscape:original-d="m -39.239235,-73.919516 c 33.3920104,-2.7e-4 66.78377,-2.7e-4 100.17527,-2e-5 8.24495,-2.6e-4 16.48976,-2.6e-4 24.73423,0 0,8.24422 0,16.48925 3e-5,24.73427 8.245294,-2.7e-4 16.489785,-2.7e-4 24.734245,0 43.58939,-2.6e-4 87.18131,-2.5e-4 130.77157,2e-5 7.67695,-0.11605 16.48978,-2.7e-4 24.73427,0 -0.0332,-7.77752 2.6e-4,-16.48978 0,-24.73427 2.6e-4,-56.105904 2.6e-4,-112.215124 2e-5,-168.322284 2.6e-4,-12.68444 2.6e-4,-25.36874 -10e-6,-38.05272 -12.68371,-2.6e-4 -25.36822,-2.6e-4 -38.05272,0 -89.03391,-2.6e-4 -178.064345,-2.6e-4 -267.096905,0 -12.68402,-2.6e-4 -25.36822,-2.6e-4 -38.05272,0 2.7e-4,12.68424 2.7e-4,25.36822 0,38.05272 2.7e-4,43.42383 2.7e-4,86.84611 0,130.26956 0.51076,13.151314 2.7e-4,25.368214 0,38.052724 12.09268,-0.42392 25.36873,-2.7e-4 38.05272,0"
       inkscape:export-filename="C:\Users\Blaz\Desktop\test1.png"
       inkscape:export-xdpi="101"
       inkscape:export-ydpi="101" />
    <path
       style="fill:#ffffff;stroke:none;stroke-width:0.24884062px;stroke-linecap:butt;stroke-linejoin:miter;stroke-opacity:1"
       d="m -62.686763,-86.738611 c 6.025137,5.905245 18.075184,5.905245 39.960942,5.905242 21.88575791,-4e-6 53.608585,-10e-6 73.385899,-1.4e-5 19.777314,-3e-6 27.609912,-3e-6 31.526035,-3.838333 3.916123,-3.83833 3.916123,-11.51522 7.55544,-15.353424 3.639316,-3.83821 12.025957,-3.83821 36.647047,-3.83821 24.6211,1e-5 66.03343,1e-5 90.55462,2e-5 24.5212,0 32.55485,0 36.47098,-3.83832 3.91613,-3.83833 3.91613,-11.51523 3.91613,-31.59762 10e-6,-20.0824 10e-6,-51.99044 10e-6,-70.43443 1e-5,-18.44399 0,-23.13399 -2.21618,-25.47884 -2.21618,-2.34485 -7.35392,-2.34485 -10.98641,-2.34485 -3.63249,0 -6.11203,0 -9.74469,0 -3.63267,0 -8.41737,0 -10.81008,-2.34522 -2.39272,-2.34523 -2.39272,-7.03494 -2.39272,-10.59501 0,-3.56008 0,-5.99053 0,-9.55043 0,-3.5599 0,-8.25033 -2.39234,-10.59518 -2.39234,-2.34486 -7.17776,-2.34486 -49.47021,-2.34486 -42.29245,0 -122.083774,0 -167.7640775,0 -45.6803035,0 -58.2152585,0 -64.2403955,5.90511 -6.025138,5.90512 -6.025138,17.71511 -6.025138,43.8362 0,26.12108 0,66.55135 0,92.67206 0,26.1207 0,37.930864 6.025138,43.836109 z"
       id="path4591"
       inkscape:connector-curvature="0"
       inkscape:path-effect="#path-effect4593"
       inkscape:original-d="m -68.711901,-80.833366 c 12.050275,-2.6e-4 24.100322,-2.6e-4 36.150084,0 31.72175391,-2.6e-4 63.444581,-2.6e-4 95.166506,-2e-5 7.832703,-2.5e-4 15.665301,-2.5e-4 23.497547,0 2.47e-4,-7.67666 2.47e-4,-15.35355 0,-23.029964 7.278633,0.14815 15.665274,-2.4e-4 23.497534,0 41.40993,-2.4e-4 82.82226,-2.3e-4 124.23301,2e-5 7.63164,-0.34955 15.66529,-2.5e-4 23.49755,0 2.5e-4,-7.67665 2.5e-4,-15.35355 0,-23.02996 -0.20082,-32.48838 2.5e-4,-64.39642 2e-5,-96.59424 2.5e-4,-4.69016 2.5e-4,-9.38016 -1e-5,-14.06986 -4.43236,-0.41253 -9.5701,-2.5e-4 -14.35552,0 -2.47956,-2.5e-4 -4.9591,-2.5e-4 -7.43903,0 -4.7854,-2.5e-4 -9.5701,-2.5e-4 -14.35553,0 2.5e-4,-4.69045 2.5e-4,-9.38016 0,-14.06986 2.5e-4,-2.43045 2.4e-4,-4.8609 0,-7.29098 2.4e-4,-4.68972 2.4e-4,-9.38015 0,-14.06986 -4.78468,-2.4e-4 -9.5701,-2.4e-4 -14.35554,0 -79.79946,-2.4e-4 -159.590784,-2.4e-4 -239.386537,0 -11.564854,-0.38138 -24.099809,-2.4e-4 -36.150084,0 2.56e-4,11.81023 2.56e-4,23.62022 0,35.4307 2.56e-4,40.43169 2.56e-4,80.86196 0,121.29332 2.56e-4,11.81005 2.56e-4,23.620214 0,35.430704 z"
       inkscape:export-filename="C:\Users\Blaz\Desktop\test1.png"
       inkscape:export-xdpi="101"
       inkscape:export-ydpi="101" />
    <path
       style="fill:#ffffff;stroke:none;stroke-width:0.25135416px;stroke-linecap:butt;stroke-linejoin:miter;stroke-opacity:1"
       d="m 113.27328,-99.943886 c -7.83227,0 -15.664771,0 -19.581161,3.916265 -3.91639,3.916265 -3.9164,11.748525 -3.9164,19.3569 -10e-7,7.608375 1e-5,15.889185 3.63957,19.80557 3.63956,3.916385 12.025721,3.916385 36.646811,3.916388 24.6211,4e-6 66.03342,10e-6 90.65515,1.4e-5 24.62174,3e-6 32.45431,3e-6 36.37044,-3.916262 3.91614,-3.916265 3.91614,-11.749035 3.91614,-19.581425 0,-7.83239 0,-15.66516 -3.91601,-19.581295 -3.91601,-3.916135 -11.74878,-3.916135 -36.37121,-3.916138 -24.62242,-4e-6 -66.03208,-10e-6 -107.44333,-1.7e-5"
       id="path4595"
       inkscape:connector-curvature="0"
       inkscape:path-effect="#path-effect4597"
       inkscape:original-d="m 113.27328,-99.943886 c -7.83227,-2.4e-4 -15.664771,-2.4e-4 -23.497541,0 2.5e-4,7.83253 2.3e-4,15.66479 -3e-5,23.49756 -0.33829,7.38398 0,15.66479 3e-5,23.49756 7.27911,-0.61807 15.665271,-2.6e-4 23.497541,0 41.40992,-2.5e-4 82.82224,-2.4e-4 124.23299,2e-5 7.83272,-2.6e-4 15.66529,-2.6e-4 23.49756,0 2.4e-4,-7.83253 2.4e-4,-15.6653 0,-23.49756 2.4e-4,-7.83252 2.4e-4,-15.66529 0,-23.49756 -7.83202,-2.5e-4 -15.66479,-2.5e-4 -23.49756,0 -41.41208,-2.5e-4 -82.82174,-2.5e-4 -124.23299,-2e-5"
       inkscape:export-filename="C:\Users\Blaz\Desktop\test1.png"
       inkscape:export-xdpi="101"
       inkscape:export-ydpi="101" />
    <text
       xml:space="preserve"
       style="font-style:normal;font-weight:normal;font-size:50.79999924px;line-height:1.25;font-family:sans-serif;letter-spacing:0px;word-spacing:0px;fill:#000000;fill-opacity:1;stroke:none;stroke-width:0.26458332"
       x="76.876434"
       y="-242.88445"
       id="text4605"><tspan
         sodipodi:role="line"
         id="tspan4603"
         x="83.077606"
         y="-242.88445"
         style="font-size:35.27777863px;text-align:center;text-anchor:middle;stroke-width:0.26458332">Premalo </tspan><tspan
         sodipodi:role="line"
         x="83.077606"
         y="-179.38445"
         style="font-size:35.27777863px;text-align:center;text-anchor:middle;stroke-width:0.26458332"
         id="tspan4607">prostora za </tspan><tspan
         sodipodi:role="line"
         x="76.876427"
         y="-115.88445"
         style="font-size:35.27777863px;text-align:center;text-anchor:middle;stroke-width:0.26458332"
         id="tspan4609">ceno in &quot;BUY&quot;</tspan></text>
    <path
       style="fill:url(#linearGradient5115);fill-opacity:1;stroke:none;stroke-width:0.26458332px;stroke-linecap:butt;stroke-linejoin:miter;stroke-opacity:1"
       d="m 345.69748,29.001852 c -6.34225,6.341988 -6.34225,19.026228 -6.34225,47.080393 0,28.054165 0,71.476445 0,99.530195 0,28.05375 0,40.73791 6.22452,47.08017 6.22453,6.34225 19.14421,6.34225 36.89032,6.34225 17.7461,-1e-5 40.55504,-1e-5 56.08158,-2e-5 15.52654,0 23.77138,0 27.89363,4.12212 4.12226,4.12211 4.12227,12.36713 8.2449,16.48964 4.12264,4.12251 12.36714,4.12251 43.57556,4.12251 31.20842,10e-6 85.38399,10e-6 116.59326,2e-5 31.20928,0 39.45408,0 43.57633,-4.12238 4.12224,-4.12238 4.12225,-12.3674 4.12225,-20.61202 0,-8.24463 -10e-6,-16.48965 -10e-6,-42.02416 10e-6,-25.53451 10e-6,-68.36152 2e-5,-92.292839 0,-23.931319 0,-28.968382 0,-37.828683 0,-8.860302 -10e-6,-21.545208 -6.34186,-27.887195 -6.34186,-6.341988 -19.02637,-6.341988 -69.88557,-6.341988 -50.85921,0 -139.88965,0 -190.74794,0 -50.85829,0 -63.54249,0 -69.88474,6.341987 z"
       id="path4611"
       inkscape:connector-curvature="0"
       inkscape:path-effect="#path-effect4613"
       inkscape:original-d="m 339.35523,22.659865 c 2.7e-4,12.683975 2.7e-4,25.368215 0,38.052719 2.7e-4,43.423826 2.7e-4,86.846106 0,130.269556 2.7e-4,12.68405 2.7e-4,25.36821 0,38.05272 12.44905,-1.13666 25.36873,-2.7e-4 38.05272,0 22.80822,-2.7e-4 45.61716,-2.7e-4 68.42533,-2e-5 8.24491,-2.6e-4 16.48975,-2.6e-4 24.73425,0 2.7e-4,8.24423 2.7e-4,16.48925 3e-5,24.73427 8.24526,-2.7e-4 16.48976,-2.7e-4 24.73425,0 54.17235,-2.6e-4 108.34792,-2.5e-4 162.52149,2e-5 8.24498,-2.7e-4 16.48978,-2.7e-4 24.73427,0 2.6e-4,-8.24476 2.6e-4,-16.48978 10e-6,-24.73427 2.6e-4,-8.24476 2.6e-4,-16.48978 -10e-6,-24.73427 2.6e-4,-42.82453 2.6e-4,-85.65154 2e-5,-128.476914 2.6e-4,-5.037264 2.6e-4,-10.074327 0,-15.111092 2.6e-4,-12.683838 2.6e-4,-25.368744 -10e-6,-38.052719 -12.68371,-2.65e-4 -25.36822,-2.65e-4 -38.05272,0 -89.03391,-2.65e-4 -178.06435,-2.65e-4 -267.09691,0 -12.68402,-2.65e-4 -25.36822,-2.65e-4 -38.05272,0 z"
       inkscape:export-filename="C:\Users\Blaz\Desktop\PopUp Image 3.png"
       inkscape:export-xdpi="75.785027"
       inkscape:export-ydpi="75.785027" />
    <path
       style="fill:url(#linearGradient5123);fill-opacity:1;stroke:none;stroke-width:0.2475923px;stroke-linecap:butt;stroke-linejoin:miter;stroke-opacity:1"
       d="m 383.99707,221.11405 c 21.66852,0 43.33681,-1e-5 58.03614,-1e-5 14.69933,0 22.63412,0 26.55031,-3.80853 3.91618,-3.80852 3.91618,-11.39118 7.58914,-15.19093 3.67295,-3.79975 11.99252,-3.79975 41.22482,-3.79975 29.2323,1e-5 81.53176,1e-5 110.82646,2e-5 29.29471,0 37.83626,0 41.75243,-3.8683 3.91618,-3.86831 3.91618,-11.33142 3.91618,-31.06853 10e-6,-19.7371 10e-6,-51.6136 2e-5,-69.872807 0,-18.259207 0,-22.902208 -2.39236,-25.223568 -2.39236,-2.32136 -7.17786,-2.32136 -10.81039,-2.32136 -3.63253,0 -6.1121,0 -9.74481,0 -3.63271,0 -8.41746,0 -10.8102,-2.175204 -2.39274,-2.175204 -2.39274,-7.110967 -2.39274,-10.635373 0,-3.524406 0,-5.930505 0,-9.454739 0,-3.524234 0,-8.167669 -2.39237,-10.489029 -2.39237,-2.32136 -7.17785,-2.32136 -49.6674,-2.32136 -42.48955,0 -121.88855,0 -167.56938,0 -45.68083,0 -58.21593,0 -64.24114,6.134589 -6.02521,6.134589 -6.02521,17.248971 -6.02521,42.764281 0,25.51531 0,66.22864 0,92.08763 0,25.859 0,37.55083 6.02533,43.3969 6.02533,5.84607 18.07524,5.84607 30.12517,5.84607"
       id="path4619"
       inkscape:connector-curvature="0"
       inkscape:path-effect="#path-effect4621"
       inkscape:original-d="m 383.99707,221.11405 c 21.66852,-2.4e-4 43.33681,-2.4e-4 65.00482,-1e-5 7.73065,-0.0623 15.66544,-2.4e-4 23.49781,0 -0.10186,-7.61705 2.5e-4,-15.19971 0,-22.79921 7.34591,-0.18181 15.66548,-2.4e-4 23.49783,0 50.63225,-0.0174 102.93171,-2.3e-4 154.3972,2e-5 7.12392,-0.0174 15.66547,-2.5e-4 23.49782,0 -0.53936,-7.73661 2.5e-4,-15.19972 0,-22.79922 2.5e-4,-31.87471 2.5e-4,-63.75121 2e-5,-95.626451 2.5e-4,-4.643173 2.5e-4,-9.286174 0,-13.928894 -4.78472,-2.43e-4 -9.57022,-2.43e-4 -14.3557,0 -2.47958,-2.43e-4 -4.95915,-2.43e-4 -7.43911,0 -4.78546,-2.43e-4 -9.57021,-2.43e-4 -14.35569,0 -0.84617,-4.350408 2.5e-4,-9.286171 0,-13.928891 2.5e-4,-2.406092 2.4e-4,-4.812191 0,-7.217923 2.4e-4,-4.642736 2.4e-4,-9.286171 0,-13.928891 -4.78474,-2.45e-4 -9.57022,-2.45e-4 -14.35572,0 -80.1936,-0.04908 -159.5926,-2.45e-4 -239.38928,0 -11.56498,0.279401 -24.10008,-2.45e-4 -36.1505,0 -0.19188,12.269178 2.6e-4,23.38356 0,35.075705 0.14667,39.338475 2.6e-4,80.051805 0,120.078065 2.6e-4,11.69173 2.6e-4,23.38356 0,35.0757 12.05066,-2.4e-4 24.10057,-2.4e-4 36.1505,0"
       inkscape:export-filename="C:\Users\Blaz\Desktop\PopUp Image 3.png"
       inkscape:export-xdpi="75.785027"
       inkscape:export-ydpi="75.785027" />
    <path
       style="fill:url(#linearGradient5131);fill-opacity:1;stroke:none;stroke-width:0.25135416px;stroke-linecap:butt;stroke-linejoin:miter;stroke-opacity:1"
       d="m 475.88342,225.82761 c 0,7.83227 0,15.66479 3.82165,19.58117 3.82165,3.91639 11.84362,3.91639 41.39807,3.91639 29.55446,10e-6 81.20833,10e-6 110.91689,2e-5 29.70856,0 37.42162,0 41.33776,-4.14392 3.91613,-4.14391 3.91614,-11.52137 3.91614,-18.77718 0,-7.25582 -10e-6,-16.24175 -3.47095,-20.15788 -3.47095,-3.91614 -12.19385,-3.91614 -41.9982,-3.91614 -29.80436,-1e-5 -80.95844,-1e-5 -110.97511,-2e-5 -30.01666,0 -37.1135,0 -41.02989,3.62875 -3.91638,3.62875 -3.91637,12.03604 -3.91636,19.86881"
       id="path4623"
       inkscape:connector-curvature="0"
       inkscape:path-effect="#path-effect4625"
       inkscape:original-d="m 475.88342,225.82761 c 2.5e-4,7.83227 2.5e-4,15.66479 0,23.49756 7.6433,-0.149 15.66527,-2.6e-4 23.49754,0 51.27664,-0.38837 102.93051,-2.4e-4 154.3954,2e-5 7.95223,-0.2687 15.66529,-2.6e-4 23.49756,0 0.35911,-8.28783 2.5e-4,-15.66529 10e-6,-23.49756 0.11974,-6.67936 2.5e-4,-15.66529 -10e-6,-23.49756 -6.94189,-0.16366 -15.66479,-2.5e-4 -23.49756,0 -51.77594,0.6742 -102.93002,-2.5e-4 -154.3954,-2e-5 -8.56795,0.0757 -15.66479,-2.4e-4 -23.49757,0 0.34184,7.2575 2.6e-4,15.66479 3e-5,23.49756"
       inkscape:export-filename="C:\Users\Blaz\Desktop\PopUp Image 3.png"
       inkscape:export-xdpi="75.785027"
       inkscape:export-ydpi="75.785027" />
    <rect
       style="opacity:1;fill:#ffffff;fill-opacity:1;fill-rule:nonzero;stroke:#000000;stroke-width:1;stroke-linecap:butt;stroke-linejoin:round;stroke-miterlimit:4;stroke-dasharray:none;stroke-dashoffset:0;stroke-opacity:1;paint-order:normal"
       id="rect4580"
       width="24.734268"
       height="24.734268"
       x="-372.25131"
       y="152.58536" />
    <rect
       y="226.78816"
       x="-372.25128"
       height="24.734268"
       width="24.734268"
       id="rect4582"
       style="opacity:1;fill:#ffffff;fill-opacity:1;fill-rule:nonzero;stroke:#000000;stroke-width:1;stroke-linecap:butt;stroke-linejoin:round;stroke-miterlimit:4;stroke-dasharray:none;stroke-dashoffset:0;stroke-opacity:1;paint-order:normal" />
    <rect
       style="opacity:1;fill:#ffffff;fill-opacity:1;fill-rule:nonzero;stroke:#000000;stroke-width:1;stroke-linecap:butt;stroke-linejoin:round;stroke-miterlimit:4;stroke-dasharray:none;stroke-dashoffset:0;stroke-opacity:1;paint-order:normal"
       id="rect4584"
       width="24.734268"
       height="24.734268"
       x="-184.99554"
       y="226.78818" />
    <rect
       y="127.8511"
       x="-184.99554"
       height="24.734268"
       width="24.734268"
       id="rect4586"
       style="opacity:1;fill:#ffffff;fill-opacity:1;fill-rule:nonzero;stroke:#000000;stroke-width:1;stroke-linecap:butt;stroke-linejoin:round;stroke-miterlimit:4;stroke-dasharray:none;stroke-dashoffset:0;stroke-opacity:1;paint-order:normal" />
    <path
       style="fill:url(#linearGradient4664);fill-opacity:1;stroke:none;stroke-width:0.26744229px;stroke-linecap:butt;stroke-linejoin:miter;stroke-opacity:1"
       d="m -66.601184,59.45776 c 0,44.60724 0,88.73309 0,117.39639 0,28.66329 0,41.62305 6.173765,48.10311 6.173765,6.48006 19.194965,6.48006 36.94107,6.48006 17.746105,-1e-5 40.555045,-1e-5 56.081585,-2e-5 15.52654,0 23.77138,0 27.89363,4.21168 4.12225,4.21168 4.12225,12.63585 4.122254,20.05051 4e-6,7.41467 1.6e-5,17.85703 4.122666,22.06911 4.12265,4.21209 12.36714,4.21209 43.540104,4.21209 31.17296,0 85.41944,1e-5 116.88058,1e-5 31.46115,0 39.2022,0 43.32445,-4.3563 4.12224,-4.3563 4.12224,-12.49176 4.12224,-49.57787 1e-5,-37.0861 1e-5,-102.83862 2e-5,-141.988018 0,-39.149397 -10e-6,-52.520706 -6.34186,-59.000491 -6.34186,-6.479785 -19.02636,-6.479785 -69.6762,-6.479785 -50.64985,0 -140.099024,0 -191.083414,0 -50.98439,0 -63.41639,0 -69.75864,6.47992 -6.34225,6.479921 -6.34225,19.439492 -6.34225,32.399604"
       id="path4588"
       inkscape:connector-curvature="0"
       inkscape:path-effect="#path-effect4590"
       inkscape:original-d="m -66.601184,59.45776 c 0.25202,44.60724 2.7e-4,88.73309 0,133.10004 2.7e-4,12.95964 2.7e-4,25.9194 0,38.87952 12.34753,-0.10377 25.36873,-2.8e-4 38.05272,0 22.80822,-2.8e-4 45.61716,-2.8e-4 68.42533,-2e-5 8.24491,-2.7e-4 16.48975,-2.7e-4 24.73425,0 2.7e-4,8.42336 2.7e-4,16.84753 0,25.27169 -0.39613,6.40517 0,16.84753 3e-5,25.2717 8.24529,-2.8e-4 16.48978,-2.8e-4 24.73428,0 54.101424,0.55564 108.347904,-2.7e-4 162.521464,1e-5 8.74873,0.55566 16.48978,-2.7e-4 24.73427,0 -0.5039,-8.7126 2.6e-4,-16.84806 0,-25.27169 2.6e-4,-65.74858 2.6e-4,-131.5011 2e-5,-197.25125 -0.25194,-12.548645 2.6e-4,-25.919954 -10e-6,-38.879524 -12.68371,-2.7e-4 -25.36821,-2.7e-4 -38.05272,0 -88.61518,0.153688 -178.064354,-2.7e-4 -267.096914,0 -12.93622,0.153685 -25.36822,-2.7e-4 -38.05272,0 2.7e-4,12.959841 2.7e-4,25.919412 0,38.879524"
       inkscape:export-filename="C:\Users\Blaz\Desktop\PopUp Image 5.png"
       inkscape:export-xdpi="75.785027"
       inkscape:export-ydpi="75.785027" />
    <path
       style="opacity:1;fill:url(#linearGradient4676);fill-opacity:1;stroke:none;stroke-width:0.25026765px;stroke-linecap:butt;stroke-linejoin:miter;stroke-opacity:1"
       d="m -58.023002,78.999302 c 0,26.420808 0,67.316508 0,93.737368 0,26.42086 0,38.36672 5.913367,44.33982 5.913367,5.9731 18.187204,5.9731 35.046199,5.9731 16.85899456,-1e-5 38.527737,-1e-5 51.78828,-2e-5 13.260543,0 24.072911,0 27.989094,-3.88243 3.916183,-3.88242 3.916183,-11.64753 3.916183,-19.9017 0,-8.25417 0,-15.04043 3.419061,-18.92275 3.419061,-3.88231 12.24642,-3.88231 41.894758,-3.88231 29.64834,1e-5 81.11573,1e-5 110.24116,2e-5 29.12543,0 38.00553,0 41.9217,-3.88244 3.91618,-3.88243 3.91618,-11.64753 3.91618,-27.91058 10e-6,-16.26305 10e-6,-41.10822 2e-5,-56.341943 0,-15.233723 0,-19.057156 -2.39236,-21.428955 -2.39236,-2.371798 -7.17786,-2.371798 -10.81039,-2.371798 -3.63253,0 -6.1121,0 -9.74481,0 -3.63271,0 -8.41746,0 -10.8102,-2.372173 -2.39274,-2.372173 -2.39274,-7.115768 -2.39274,-10.716752 0,-3.600983 0,-6.059362 0,-9.66017 0,-3.600808 0,-8.345133 -2.39237,-10.716932 -2.39237,-2.371798 -7.17786,-2.371798 -49.92133,-2.371798 -42.74346,0 -121.634627,0 -167.557943,0 -45.923316,0 -57.973446,0 -63.998653,5.97297 -6.025206,5.97297 -6.025206,17.918664 -6.025206,44.339473 z"
       id="path4602"
       inkscape:connector-curvature="0"
       inkscape:path-effect="#path-effect4604"
       inkscape:original-d="m -58.023002,64.524684 c 2.56e-4,40.895426 2.56e-4,81.791126 0,122.687066 2.56e-4,11.94578 2.56e-4,23.89164 0,35.83784 11.826734,0.60763 24.100571,-2.5e-4 36.150502,0 21.66805856,-2.5e-4 43.336801,-2.5e-4 65.004812,-2e-5 4.853075,-0.0637 15.665443,-2.4e-4 23.497809,0 2.56e-4,-7.76485 2.56e-4,-15.52996 0,-23.29459 -0.609641,-8.74371 2.56e-4,-15.52997 0,-23.2946 6.838122,0.36334 15.665481,-2.3e-4 23.497838,0 51.464321,-2.2e-4 102.931711,-2.2e-4 154.397201,2e-5 6.78537,0.36334 15.66547,-2.3e-4 23.49782,0 2.5e-4,-7.76487 2.5e-4,-15.52997 0,-23.29459 -1.04716,-24.76148 2.5e-4,-49.60665 2e-5,-74.409586 0.30698,-5.66451 2.5e-4,-9.487943 0,-14.23154 -4.78472,-2.48e-4 -9.57022,-2.48e-4 -14.3557,0 -2.47958,-2.48e-4 -4.95915,-2.48e-4 -7.43911,0 -4.78546,-2.48e-4 -9.57021,-2.48e-4 -14.35569,0 2.5e-4,-4.744346 2.5e-4,-9.487941 0,-14.231536 2.5e-4,-2.458372 2.4e-4,-4.916751 0,-7.374752 2.4e-4,-4.743615 2.4e-4,-9.48794 0,-14.231537 -4.78474,-2.51e-4 -9.57023,-2.51e-4 -14.35573,0 -80.70143,0.285487 -159.592597,-2.51e-4 -239.38927,0 -12.049959,-2.51e-4 -24.100089,-2.51e-4 -36.150502,0 2.56e-4,11.94594 2.56e-4,23.891634 0,35.837825 z"
       inkscape:export-filename="C:\Users\Blaz\Desktop\PopUp Image 5.png"
       inkscape:export-xdpi="75.785027"
       inkscape:export-ydpi="75.785027" />
    <path
       inkscape:export-ydpi="75.785027"
       inkscape:export-xdpi="75.785027"
       inkscape:export-filename="C:\Users\Blaz\Desktop\PopUp Image 5.png"
       inkscape:original-d="m 70.692947,203.71744 c 2.5e-4,8.00245 2.5e-4,16.00515 0,24.00812 7.6433,-0.15224 15.66527,-2.7e-4 23.49754,0 51.276643,-0.39681 102.930513,-2.5e-4 154.395403,2e-5 7.95223,-0.27454 15.66529,-2.7e-4 23.49756,0 0.35911,-8.46791 2.5e-4,-16.00567 10e-6,-24.00811 0.11974,-6.8245 2.5e-4,-16.00567 -10e-6,-24.00812 -6.94189,-0.16721 -15.66479,-2.6e-4 -23.49756,0 -51.77594,0.68885 -102.93002,-2.6e-4 -154.395403,-2e-5 -8.56795,0.0774 -15.66479,-2.5e-4 -23.49757,0 0.34184,7.41519 2.6e-4,16.00516 3e-5,24.00811"
       inkscape:path-effect="#path-effect4624"
       inkscape:connector-curvature="0"
       id="path4622"
       d="m 70.692947,203.71744 c 0,8.00245 0,16.00515 3.82165,20.00664 3.82165,4.00148 11.84362,4.00148 41.398073,4.00148 29.55446,1e-5 81.20833,1e-5 110.91689,2e-5 29.70856,0 37.42162,0 41.33776,-4.23396 3.91613,-4.23395 3.91614,-11.77171 3.91614,-19.18518 0,-7.41347 -10e-6,-16.59464 -3.47095,-20.59586 -3.47095,-4.00123 -12.19385,-4.00123 -41.9982,-4.00123 -29.80436,-1e-5 -80.95844,-1e-5 -110.97511,-2e-5 -30.016663,0 -37.113503,0 -41.029888,3.7076 -3.916386,3.70759 -3.916375,12.29756 -3.916365,20.30051"
       style="fill:url(#linearGradient4626);fill-opacity:1;stroke:none;stroke-width:0.25407016px;stroke-linecap:butt;stroke-linejoin:miter;stroke-opacity:1" />
    <path
       style="fill:url(#linearGradient4632);fill-opacity:1;stroke:none;stroke-width:0.25407016px;stroke-linecap:butt;stroke-linejoin:miter;stroke-opacity:1"
       d="m 71.448899,255.00332 c 0,8.00245 0,16.00515 3.82165,20.00663 3.82165,4.00148 11.84362,4.00148 41.398071,4.00148 29.55446,10e-6 81.20833,10e-6 110.91689,2e-5 29.70856,0 37.42162,0 41.33776,-4.23395 3.91613,-4.23395 3.91614,-11.77171 3.91614,-19.18518 0,-7.41347 -10e-6,-16.59464 -3.47095,-20.59586 -3.47095,-4.00123 -12.19385,-4.00123 -41.9982,-4.00123 -29.80436,-1e-5 -80.95844,-1e-5 -110.97511,-2e-5 -30.016661,0 -37.113501,0 -41.029886,3.7076 -3.916386,3.70759 -3.916375,12.29755 -3.916365,20.30051"
       id="path4628"
       inkscape:connector-curvature="0"
       inkscape:path-effect="#path-effect4630"
       inkscape:original-d="m 71.448899,255.00332 c 2.5e-4,8.00245 2.5e-4,16.00515 0,24.00811 7.6433,-0.15223 15.66527,-2.7e-4 23.49754,0 51.276641,-0.3968 102.930511,-2.5e-4 154.395401,2e-5 7.95223,-0.27454 15.66529,-2.7e-4 23.49756,0 0.35911,-8.4679 2.5e-4,-16.00566 10e-6,-24.00811 0.11974,-6.82449 2.5e-4,-16.00566 -10e-6,-24.00811 -6.94189,-0.16722 -15.66479,-2.6e-4 -23.49756,0 -51.77594,0.68884 -102.93002,-2.6e-4 -154.395401,-2e-5 -8.56795,0.0774 -15.66479,-2.5e-4 -23.49757,0 0.34184,7.41519 2.6e-4,16.00515 3e-5,24.00811"
       inkscape:export-filename="C:\Users\Blaz\Desktop\PopUp Image 5.png"
       inkscape:export-xdpi="75.785027"
       inkscape:export-ydpi="75.785027" />
  </g>
</svg>
