<?xml version="1.0" encoding="UTF-8" standalone="no"?>
<!-- Created with Inkscape (http://www.inkscape.org/) -->

<svg
   xmlns:dc="http://purl.org/dc/elements/1.1/"
   xmlns:cc="http://creativecommons.org/ns#"
   xmlns:rdf="http://www.w3.org/1999/02/22-rdf-syntax-ns#"
   xmlns:svg="http://www.w3.org/2000/svg"
   xmlns="http://www.w3.org/2000/svg"
   xmlns:xlink="http://www.w3.org/1999/xlink"
   xmlns:sodipodi="http://sodipodi.sourceforge.net/DTD/sodipodi-0.dtd"
   xmlns:inkscape="http://www.inkscape.org/namespaces/inkscape"
   width="210mm"
   height="297mm"
   viewBox="0 0 210 297"
   version="1.1"
   id="svg2854"
   inkscape:version="0.92.2 (5c3e80d, 2017-08-06)"
   sodipodi:docname="Replay.svg">
  <defs
     id="defs2848">
    <linearGradient
       inkscape:collect="always"
       xlink:href="#linearGradient4547"
       id="linearGradient4549"
       x1="732.46051"
       y1="825.08081"
       x2="130.75395"
       y2="336.61914"
       gradientUnits="userSpaceOnUse"
       gradientTransform="matrix(-0.13172623,0,0,-0.13172623,141.92886,201.28089)" />
    <linearGradient
       inkscape:collect="always"
       id="linearGradient4547">
      <stop
         style="stop-color:#1a1a1a;stop-opacity:1"
         offset="0"
         id="stop4543" />
      <stop
         style="stop-color:#000000;stop-opacity:1"
         offset="1"
         id="stop4545" />
    </linearGradient>
  </defs>
  <sodipodi:namedview
     id="base"
     pagecolor="#ffffff"
     bordercolor="#666666"
     borderopacity="1.0"
     inkscape:pageopacity="0.0"
     inkscape:pageshadow="2"
     inkscape:zoom="0.70710678"
     inkscape:cx="351.07817"
     inkscape:cy="641.47315"
     inkscape:document-units="mm"
     inkscape:current-layer="layer1"
     showgrid="false"
     inkscape:window-width="1366"
     inkscape:window-height="706"
     inkscape:window-x="-8"
     inkscape:window-y="-8"
     inkscape:window-maximized="1" />
  <metadata
     id="metadata2851">
    <rdf:RDF>
      <cc:Work
         rdf:about="">
        <dc:format>image/svg+xml</dc:format>
        <dc:type
           rdf:resource="http://purl.org/dc/dcmitype/StillImage" />
        <dc:title></dc:title>
      </cc:Work>
    </rdf:RDF>
  </metadata>
  <g
     inkscape:label="Layer 1"
     inkscape:groupmode="layer"
     id="layer1">
    <rect
       inkscape:export-ydpi="96"
       inkscape:export-xdpi="96"
       y="60.683544"
       x="20.70735"
       height="133.96625"
       width="133.96625"
       id="rect1582"
       style="opacity:1;fill:#cccccc;fill-opacity:1;stroke:#000000;stroke-width:1.50042331;stroke-linecap:round;stroke-miterlimit:4;stroke-dasharray:none;stroke-opacity:1"
       inkscape:export-filename="C:\Users\Blaz\Desktop\Replay.png" />
    <path
       style="opacity:1;fill:url(#linearGradient4549);fill-opacity:1;fill-rule:nonzero;stroke:none;stroke-width:1.47430098;stroke-linecap:butt;stroke-linejoin:round;stroke-miterlimit:4;stroke-dasharray:none;stroke-dashoffset:0;stroke-opacity:0.97969546;paint-order:normal"
       d="M 147.91366,189.01184 132.6787,167.95827 a 59.347187,59.347187 0 0 0 16.32171,-40.61 59.347187,59.347187 0 0 0 -59.347014,-59.347313 59.347187,59.347187 0 0 0 -59.347285,59.347313 59.347187,59.347187 0 0 0 19.792869,44.1486 l 9.481473,-9.48147 a 45.92172,45.92172 0 0 1 -15.848827,-34.66713 45.92172,45.92172 0 0 1 45.92177,-45.921796 45.92172,45.92172 0 0 1 45.921494,45.921796 45.92172,45.92172 0 0 1 -10.86975,29.59105 l -15.08752,-20.84978 -7.31313,45.60944 z"
       id="path4497"
       inkscape:connector-curvature="0"
       inkscape:export-filename="C:\Users\Blaz\Desktop\Replay.png"
       inkscape:export-xdpi="96"
       inkscape:export-ydpi="96" />
    <path
       style="fill:#000000;fill-opacity:1;stroke:none;stroke-width:1.87992513;stroke-linecap:butt;stroke-linejoin:miter;stroke-miterlimit:4;stroke-dasharray:none;stroke-opacity:1"
       d="m 70.144504,92.306765 38.460236,31.705705 -38.460236,31.7057 z"
       id="path4500"
       inkscape:connector-curvature="0"
       inkscape:export-filename="C:\Users\Blaz\Desktop\Replay.png"
       inkscape:export-xdpi="96"
       inkscape:export-ydpi="96" />
    <path
       inkscape:export-ydpi="96"
       inkscape:export-xdpi="96"
       inkscape:export-filename="C:\Users\Blaz\Desktop\Replay.png"
       inkscape:connector-curvature="0"
       id="path4488"
       d="m 69.147998,90.313752 38.460242,31.705698 -38.460242,31.7057 z"
       style="fill:#00ff00;fill-opacity:1;stroke:#000000;stroke-width:0.54200488;stroke-linecap:butt;stroke-linejoin:miter;stroke-miterlimit:4;stroke-dasharray:none;stroke-opacity:1" />
    <path
       inkscape:export-ydpi="96"
       inkscape:export-xdpi="96"
       inkscape:export-filename="C:\Users\Blaz\Desktop\Replay.png"
       inkscape:connector-curvature="0"
       id="path4998"
       d="m 144.06222,186.74791 -15.23496,-21.05356 a 59.347187,59.347187 0 0 0 16.32172,-40.61001 59.347187,59.347187 0 0 0 -59.347035,-59.347336 59.347187,59.347187 0 0 0 -59.34725,59.347336 59.347187,59.347187 0 0 0 19.792828,44.14861 l 9.481473,-9.48147 A 45.92172,45.92172 0 0 1 39.880181,125.08434 45.92172,45.92172 0 0 1 85.801945,79.162523 45.92172,45.92172 0 0 1 131.72346,125.08434 45.92172,45.92172 0 0 1 120.85371,154.67539 l -15.08754,-20.84979 -7.313121,45.60945 z"
       style="opacity:1;fill:#008000;fill-opacity:1;fill-rule:nonzero;stroke:none;stroke-width:1.47430098;stroke-linecap:butt;stroke-linejoin:round;stroke-miterlimit:4;stroke-dasharray:none;stroke-dashoffset:0;stroke-opacity:0.97969546;paint-order:normal" />
  </g>
</svg>
