<?xml version="1.0" encoding="UTF-8" standalone="no"?>
<!-- Created with Inkscape (http://www.inkscape.org/) -->

<svg
   xmlns:dc="http://purl.org/dc/elements/1.1/"
   xmlns:cc="http://creativecommons.org/ns#"
   xmlns:rdf="http://www.w3.org/1999/02/22-rdf-syntax-ns#"
   xmlns:svg="http://www.w3.org/2000/svg"
   xmlns="http://www.w3.org/2000/svg"
   xmlns:xlink="http://www.w3.org/1999/xlink"
   xmlns:sodipodi="http://sodipodi.sourceforge.net/DTD/sodipodi-0.dtd"
   xmlns:inkscape="http://www.inkscape.org/namespaces/inkscape"
   width="210mm"
   height="297mm"
   viewBox="0 0 210 297"
   version="1.1"
   id="svg8"
   sodipodi:docname="Some Buttons.svg"
   inkscape:version="0.92.3 (2405546, 2018-03-11)">
  <defs
     id="defs2">
    <linearGradient
       inkscape:collect="always"
       xlink:href="#linearGradient1127"
       id="linearGradient4528"
       x1="-32.683735"
       y1="173.02054"
       x2="109.11564"
       y2="212.43942"
       gradientUnits="userSpaceOnUse" />
    <radialGradient
       inkscape:collect="always"
       xlink:href="#linearGradient1083"
       id="radialGradient1085"
       cx="340.39288"
       cy="416.98212"
       fx="340.39288"
       fy="416.98212"
       r="77.853027"
       gradientUnits="userSpaceOnUse"
       gradientTransform="matrix(-0.97375222,0.97375177,-0.97375167,-0.97375214,571.12289,149.50324)" />
    <linearGradient
       inkscape:collect="always"
       id="linearGradient1083">
      <stop
         style="stop-color:#ffffff;stop-opacity:1"
         offset="0"
         id="stop1079" />
      <stop
         id="stop1097"
         offset="0.28499737"
         style="stop-color:#f5f5f5;stop-opacity:1;" />
      <stop
         id="stop1093"
         offset="0.50710636"
         style="stop-color:#e6e6e6;stop-opacity:1;" />
      <stop
         style="stop-color:#c5c5c5;stop-opacity:1;"
         offset="0.77328455"
         id="stop1095" />
      <stop
         style="stop-color:#999999;stop-opacity:1"
         offset="1"
         id="stop1081" />
    </linearGradient>
    <linearGradient
       inkscape:collect="always"
       xlink:href="#linearGradient1127"
       id="linearGradient1129"
       x1="264.42972"
       y1="367.46722"
       x2="414.08813"
       y2="469.14282"
       gradientUnits="userSpaceOnUse"
       gradientTransform="translate(-506.76533,-342.05792)" />
    <linearGradient
       inkscape:collect="always"
       id="linearGradient1127">
      <stop
         style="stop-color:#666666;stop-opacity:1"
         offset="0"
         id="stop1123" />
      <stop
         style="stop-color:#333333;stop-opacity:1"
         offset="1"
         id="stop1125" />
    </linearGradient>
    <radialGradient
       inkscape:collect="always"
       xlink:href="#linearGradient1083"
       id="radialGradient5173"
       cx="38.903122"
       cy="192.30058"
       fx="38.903122"
       fy="192.30058"
       r="75"
       gradientTransform="matrix(0.6040649,0.79693512,-0.84351258,0.63936993,177.61107,38.346109)"
       gradientUnits="userSpaceOnUse" />
    <radialGradient
       inkscape:collect="always"
       xlink:href="#linearGradient1083"
       id="radialGradient5196"
       gradientUnits="userSpaceOnUse"
       gradientTransform="matrix(-9.5551558,0.88496855,-9.5551504,-0.88496889,6996.3917,528.28637)"
       cx="340.39288"
       cy="416.98212"
       fx="340.39288"
       fy="416.98212"
       r="77.853027" />
    <linearGradient
       inkscape:collect="always"
       xlink:href="#linearGradient1127"
       id="linearGradient5198"
       gradientUnits="userSpaceOnUse"
       gradientTransform="matrix(9.8127178,0,0,0.90882356,-3580.6211,81.54401)"
       x1="264.42972"
       y1="367.46722"
       x2="414.08813"
       y2="469.14282" />
    <radialGradient
       inkscape:collect="always"
       xlink:href="#linearGradient1083"
       id="radialGradient5202"
       gradientUnits="userSpaceOnUse"
       gradientTransform="matrix(-4.4414848,0.90918589,-4.4414822,-0.90918624,2729.8409,799.54887)"
       cx="340.39288"
       cy="416.98212"
       fx="340.39288"
       fy="416.98212"
       r="77.853027" />
    <linearGradient
       inkscape:collect="always"
       xlink:href="#linearGradient1127"
       id="linearGradient5204"
       gradientUnits="userSpaceOnUse"
       gradientTransform="matrix(4.5612063,0,0,0.9336937,-2186.6296,340.58131)"
       x1="264.42972"
       y1="367.46722"
       x2="414.08813"
       y2="469.14282" />
    <radialGradient
       inkscape:collect="always"
       xlink:href="#linearGradient1083"
       id="radialGradient5208"
       gradientUnits="userSpaceOnUse"
       gradientTransform="matrix(-0.97375222,0.97375177,-0.97375167,-0.97375214,114.62654,118.49997)"
       cx="340.39288"
       cy="416.98212"
       fx="340.39288"
       fy="416.98212"
       r="77.853027" />
    <linearGradient
       inkscape:collect="always"
       xlink:href="#linearGradient1127"
       id="linearGradient5210"
       gradientUnits="userSpaceOnUse"
       gradientTransform="translate(-963.26168,-373.06119)"
       x1="264.42972"
       y1="367.46722"
       x2="414.08813"
       y2="469.14282" />
    <radialGradient
       inkscape:collect="always"
       xlink:href="#linearGradient1083"
       id="radialGradient5222"
       gradientUnits="userSpaceOnUse"
       gradientTransform="matrix(-0.97375222,0.97375177,-0.97375167,-0.97375214,344.10866,118.49997)"
       cx="340.39288"
       cy="416.98212"
       fx="340.39288"
       fy="416.98212"
       r="77.853027" />
    <linearGradient
       inkscape:collect="always"
       xlink:href="#linearGradient1127"
       id="linearGradient5224"
       gradientUnits="userSpaceOnUse"
       gradientTransform="translate(-733.77956,-373.06119)"
       x1="264.42972"
       y1="367.46722"
       x2="414.08813"
       y2="469.14282" />
    <radialGradient
       inkscape:collect="always"
       xlink:href="#linearGradient1083"
       id="radialGradient5238"
       gradientUnits="userSpaceOnUse"
       gradientTransform="matrix(-0.97375222,0.97375177,-0.97375167,-0.97375214,-168.19854,151.01514)"
       cx="340.39288"
       cy="416.98212"
       fx="340.39288"
       fy="416.98212"
       r="77.853027" />
    <linearGradient
       inkscape:collect="always"
       xlink:href="#linearGradient1127"
       id="linearGradient5240"
       gradientUnits="userSpaceOnUse"
       gradientTransform="translate(-1246.0868,-340.54602)"
       x1="264.42972"
       y1="367.46722"
       x2="414.08813"
       y2="469.14282" />
    <radialGradient
       inkscape:collect="always"
       xlink:href="#linearGradient1083"
       id="radialGradient5258"
       gradientUnits="userSpaceOnUse"
       gradientTransform="matrix(-0.97375222,0.97375177,-0.97375167,-0.97375214,-470.15919,322.69389)"
       cx="340.39288"
       cy="416.98212"
       fx="340.39288"
       fy="416.98212"
       r="77.853027" />
    <linearGradient
       inkscape:collect="always"
       xlink:href="#linearGradient1127"
       id="linearGradient5260"
       gradientUnits="userSpaceOnUse"
       gradientTransform="translate(-1548.0474,-168.86727)"
       x1="264.42972"
       y1="367.46722"
       x2="414.08813"
       y2="469.14282" />
    <radialGradient
       inkscape:collect="always"
       xlink:href="#linearGradient1083"
       id="radialGradient4056"
       gradientUnits="userSpaceOnUse"
       gradientTransform="matrix(-0.97375222,0.97375177,-0.97375167,-0.97375214,-676.53419,129.92603)"
       cx="340.39288"
       cy="416.98212"
       fx="340.39288"
       fy="416.98212"
       r="77.853027" />
    <linearGradient
       inkscape:collect="always"
       xlink:href="#linearGradient1127"
       id="linearGradient4058"
       gradientUnits="userSpaceOnUse"
       gradientTransform="translate(-1754.4224,-361.63513)"
       x1="264.42972"
       y1="367.46722"
       x2="414.08813"
       y2="469.14282" />
    <radialGradient
       inkscape:collect="always"
       xlink:href="#linearGradient1083"
       id="radialGradient4062"
       gradientUnits="userSpaceOnUse"
       gradientTransform="matrix(-0.97375222,0.97375177,-0.97375167,-0.97375214,-812.60562,338.56889)"
       cx="340.39288"
       cy="416.98212"
       fx="340.39288"
       fy="416.98212"
       r="77.853027" />
    <linearGradient
       inkscape:collect="always"
       xlink:href="#linearGradient1127"
       id="linearGradient4064"
       gradientUnits="userSpaceOnUse"
       gradientTransform="translate(-1890.4938,-152.99227)"
       x1="264.42972"
       y1="367.46722"
       x2="414.08813"
       y2="469.14282" />
    <radialGradient
       inkscape:collect="always"
       xlink:href="#linearGradient1083"
       id="radialGradient866"
       gradientUnits="userSpaceOnUse"
       gradientTransform="matrix(-0.97375222,0.97375177,-0.97375167,-0.97375214,-826.25345,853.876)"
       cx="340.39288"
       cy="416.98212"
       fx="340.39288"
       fy="416.98212"
       r="77.853027" />
    <linearGradient
       inkscape:collect="always"
       xlink:href="#linearGradient1127"
       id="linearGradient868"
       gradientUnits="userSpaceOnUse"
       gradientTransform="translate(-1904.1417,362.31484)"
       x1="264.42972"
       y1="367.46722"
       x2="414.08813"
       y2="469.14282" />
    <radialGradient
       inkscape:collect="always"
       xlink:href="#linearGradient1083"
       id="radialGradient872"
       gradientUnits="userSpaceOnUse"
       gradientTransform="matrix(-0.97375222,0.97375177,-0.97375167,-0.97375214,-1089.2966,854.81097)"
       cx="340.39288"
       cy="416.98212"
       fx="340.39288"
       fy="416.98212"
       r="77.853027" />
    <linearGradient
       inkscape:collect="always"
       xlink:href="#linearGradient1127"
       id="linearGradient874"
       gradientUnits="userSpaceOnUse"
       gradientTransform="translate(-2167.1848,363.24981)"
       x1="264.42972"
       y1="367.46722"
       x2="414.08813"
       y2="469.14282" />
  </defs>
  <sodipodi:namedview
     id="base"
     pagecolor="#ffffff"
     bordercolor="#666666"
     borderopacity="1.0"
     inkscape:pageopacity="0.0"
     inkscape:pageshadow="2"
     inkscape:zoom="0.24748737"
     inkscape:cx="-6200.643"
     inkscape:cy="-2465.5519"
     inkscape:document-units="mm"
     inkscape:current-layer="layer1"
     showgrid="false"
     inkscape:window-width="1366"
     inkscape:window-height="705"
     inkscape:window-x="-8"
     inkscape:window-y="-8"
     inkscape:window-maximized="1" />
  <metadata
     id="metadata5">
    <rdf:RDF>
      <cc:Work
         rdf:about="">
        <dc:format>image/svg+xml</dc:format>
        <dc:type
           rdf:resource="http://purl.org/dc/dcmitype/StillImage" />
      </cc:Work>
    </rdf:RDF>
  </metadata>
  <g
     inkscape:label="Layer 1"
     inkscape:groupmode="layer"
     id="layer1">
    <rect
       style="fill:#ffff00;fill-opacity:1;stroke:none;stroke-width:4.09577656;stroke-linejoin:round;stroke-miterlimit:4;stroke-dasharray:none;stroke-opacity:0.31979699;opacity:0"
       id="rect4518"
       width="150"
       height="150"
       x="-36.096878"
       y="74.995674"
       ry="0"
       inkscape:export-xdpi="108.37"
       inkscape:export-ydpi="108.37" />
    <rect
       ry="12.477197"
       y="160.91855"
       x="-34.783829"
       height="62.76408"
       width="147.3739"
       id="rect4520"
       style="fill:url(#radialGradient5173);fill-opacity:1;stroke:url(#linearGradient4528);stroke-width:2.62609768;stroke-linejoin:round;stroke-miterlimit:4;stroke-dasharray:none;stroke-opacity:1" />
    <rect
       style="fill:url(#radialGradient1085);fill-opacity:1;stroke:url(#linearGradient1129);stroke-width:4.08699989;stroke-linejoin:round;stroke-miterlimit:4;stroke-dasharray:none;stroke-opacity:1"
       id="rect971"
       width="151.61905"
       height="151.61905"
       x="-242.18198"
       y="-0.88531762"
       ry="20.032738"
       inkscape:export-filename="C:\Users\Blaž\Desktop\SpriteMenuBtn.png"
       inkscape:export-xdpi="26.100464"
       inkscape:export-ydpi="26.100464" />
    <rect
       inkscape:export-ydpi="26.100464"
       inkscape:export-xdpi="26.100464"
       inkscape:export-filename="C:\Users\Blaž\Desktop\SpriteMenuBtn.png"
       ry="18.206224"
       y="391.60974"
       x="-984.33954"
       height="137.79497"
       width="1487.7949"
       id="rect5194"
       style="fill:url(#radialGradient5196);fill-opacity:1;stroke:url(#linearGradient5198);stroke-width:12.20503616;stroke-linejoin:round;stroke-miterlimit:4;stroke-dasharray:none;stroke-opacity:1" />
    <rect
       style="fill:url(#radialGradient5202);fill-opacity:1;stroke:url(#linearGradient5204);stroke-width:8.43425465;stroke-linejoin:round;stroke-miterlimit:4;stroke-dasharray:none;stroke-opacity:1"
       id="rect5200"
       width="691.56573"
       height="141.56575"
       x="-979.81042"
       y="659.13202"
       ry="18.704441"
       inkscape:export-filename="C:\Users\Blaž\Desktop\SpriteMenuBtn.png"
       inkscape:export-xdpi="26.100464"
       inkscape:export-ydpi="26.100464" />
    <rect
       inkscape:export-ydpi="104.40184"
       inkscape:export-xdpi="104.40184"
       inkscape:export-filename="C:\Users\Blaž\Desktop\SpriteMenuBtn.png"
       ry="20.032738"
       y="-31.888582"
       x="-698.67834"
       height="151.61905"
       width="151.61905"
       id="rect5206"
       style="fill:url(#radialGradient5208);fill-opacity:1;stroke:url(#linearGradient5210);stroke-width:4.08699989;stroke-linejoin:round;stroke-miterlimit:4;stroke-dasharray:none;stroke-opacity:1" />
    <rect
       style="fill:url(#radialGradient5222);fill-opacity:1;stroke:url(#linearGradient5224);stroke-width:4.08699989;stroke-linejoin:round;stroke-miterlimit:4;stroke-dasharray:none;stroke-opacity:1"
       id="rect5212"
       width="151.61905"
       height="151.61905"
       x="-469.19623"
       y="-31.888582"
       ry="20.032738"
       inkscape:export-filename="C:\Users\Blaž\Desktop\SpriteMenuBtn.png"
       inkscape:export-xdpi="104.4"
       inkscape:export-ydpi="104.4" />
    <rect
       style="opacity:1;fill:#333333;fill-opacity:1;stroke:none;stroke-width:1.42458951;stroke-linejoin:round;stroke-miterlimit:4;stroke-dasharray:none;stroke-opacity:1"
       id="rect5230"
       width="116.77861"
       height="12.985194"
       x="-681.25812"
       y="37.428345"
       ry="1.0937481"
       inkscape:export-xdpi="104.40184"
       inkscape:export-ydpi="104.40184" />
    <rect
       ry="1.0937481"
       y="37.428345"
       x="-451.776"
       height="12.985194"
       width="116.77861"
       id="rect5232"
       style="opacity:1;fill:#333333;fill-opacity:1;stroke:none;stroke-width:1.42458951;stroke-linejoin:round;stroke-miterlimit:4;stroke-dasharray:none;stroke-opacity:1"
       inkscape:export-xdpi="104.4"
       inkscape:export-ydpi="104.4" />
    <rect
       style="opacity:1;fill:#333333;fill-opacity:1;stroke:none;stroke-width:1.42458951;stroke-linejoin:round;stroke-miterlimit:4;stroke-dasharray:none;stroke-opacity:1"
       id="rect5234"
       width="116.77861"
       height="12.985194"
       x="-14.468363"
       y="386.8941"
       ry="1.0937481"
       transform="rotate(90)"
       inkscape:export-xdpi="104.4"
       inkscape:export-ydpi="104.4" />
    <rect
       inkscape:export-ydpi="104.40184"
       inkscape:export-xdpi="104.40184"
       inkscape:export-filename="C:\Users\Blaž\Desktop\SpriteMenuBtn.png"
       ry="20.032738"
       y="0.62658715"
       x="-981.50342"
       height="151.61905"
       width="151.61905"
       id="rect5236"
       style="fill:url(#radialGradient5238);fill-opacity:1;stroke:url(#linearGradient5240);stroke-width:4.08699989;stroke-linejoin:round;stroke-miterlimit:4;stroke-dasharray:none;stroke-opacity:1" />
    <path
       style="opacity:1;fill:#333333;fill-opacity:1;stroke:none;stroke-width:4.08699989;stroke-linejoin:round;stroke-miterlimit:4;stroke-dasharray:none;stroke-opacity:1"
       id="path5244"
       d="m -1095.6923,-279.56546 c 5.8494,-0.41687 11.6783,-0.65676 17.4819,-1.53801 8.0821,-1.52282 16.1859,-2.69177 24.3876,-3.32 8.77,-0.51321 17.5616,-0.78851 26.3399,-0.39266 9.1051,0.58354 18.1598,1.69773 27.2698,2.26312 7.98062,0.5674 15.97951,1.11261 23.94333,1.90531 7.75576,0.79523 15.53573,1.1548 23.28921,1.96165 6.35452,0.80149 12.57348,2.09112 18.78647,3.60111 5.88693,1.22018 11.84527,2.55778 17.32344,5.07828 5.56781,2.4151 10.63514,5.81624 15.9199,8.77316 4.26693,2.69077 8.63759,5.21979 12.77107,8.11486 3.30149,2.48694 6.4812,5.15272 9.25007,8.22804 2.5864,3.33584 5.03253,6.7678 7.05514,10.47525 1.95654,2.92126 3.77005,5.9009 5.3063,9.06646 1.94738,3.39764 2.64829,7.2198 3.15473,11.04818 0.42772,3.80366 0.43479,7.63949 0.42095,11.46239 0.15185,3.70571 -0.0425,7.35841 -0.592,11.02083 -0.31438,3.38193 -1.38891,6.53114 -2.8565,9.56614 -1.35546,2.44322 -2.77505,4.85193 -4.24029,7.23179 -1.85925,2.62455 -3.73774,5.25155 -5.8135,7.71167 -1.99435,2.47736 -4.4893,4.45543 -7.0819,6.26473 -2.9647,1.97122 -5.6915,4.26589 -8.61885,6.29483 -9.17429,6.32986 -18.43455,12.90277 -28.79931,17.09684 -3.7769,1.47332 -7.44734,2.64379 -11.21892,4.2071 -4.04916,2.06701 -8.31218,3.61652 -12.56255,5.21721 -4.85214,1.43518 -9.45636,3.53711 -14.23813,5.19221 -0.67415,0.31644 -1.34834,0.63287 -2.0225,0.9493 0,0 17.32444,-13.69116 17.32444,-13.69116 v 0 c 0.68316,-0.26493 1.36634,-0.52986 2.04949,-0.7948 4.74041,-1.73515 9.39745,-3.69088 14.20987,-5.22628 4.28599,-1.63283 8.47302,-3.46652 12.64703,-5.36344 3.69123,-1.50906 7.57688,-2.47338 11.14994,-4.27156 7.05739,-3.69373 7.81696,-4.12509 -15.46894,9.13678 -0.55346,0.3152 1.02095,-0.76209 1.54331,-1.12648 5.67682,-3.96007 -2.55987,1.86058 3.18397,-2.04485 0.5433,-0.36941 1.05534,-0.78283 1.583,-1.17425 2.92264,-2.01067 5.81647,-4.03592 8.5048,-6.35876 2.71174,-1.5079 5.11791,-3.41939 7.33612,-5.58785 1.97316,-2.47152 4.01225,-4.86643 5.85859,-7.44694 1.54813,-2.31704 2.80385,-4.7746 4.43506,-7.03387 1.41097,-2.8758 2.91221,-5.68824 3.13409,-8.96532 0.5847,-3.57535 1.08493,-7.10443 0.82563,-10.74713 -0.0283,-3.74375 0.007,-7.49354 -0.30795,-11.22785 -0.38719,-3.61235 -0.99433,-7.19517 -2.88729,-10.36748 -1.48391,-3.1478 -3.29176,-6.08635 -5.1444,-9.02586 -1.93368,-3.56203 -4.25021,-6.87698 -6.85871,-9.98051 -2.65726,-2.91832 -5.63197,-5.56562 -8.84081,-7.86371 -4.15261,-2.74295 -8.29279,-5.50368 -12.56859,-8.05399 -5.13574,-3.06864 -10.24342,-6.24776 -15.77445,-8.57052 -5.48169,-2.24266 -11.28697,-3.5784 -17.07238,-4.79168 -6.11621,-1.47803 -12.27767,-2.64121 -18.5258,-3.43204 -7.69036,-0.83035 -15.41516,-1.22931 -23.10686,-2.0541 -7.97232,-0.67039 -15.95422,-1.24356 -23.93082,-1.858 -9.0483,-0.71394 -18.0624,-1.8557 -27.131,-2.26899 -8.7488,-0.21512 -17.5113,0.0408 -26.2422,0.63656 -8.2156,0.74986 -16.3188,2.11612 -24.4435,3.5207 -5.9979,0.81658 -12.059,0.96283 -18.0246,2.00659 0,0 17.8876,-13.453 17.8876,-13.453 z"
       inkscape:connector-curvature="0" />
    <path
       style="opacity:1;fill:#333333;fill-opacity:1;stroke:none;stroke-width:4.08699989;stroke-linejoin:round;stroke-miterlimit:4;stroke-dasharray:none;stroke-opacity:1"
       id="path5246"
       d="m -1050.4238,-310.7255 c 2.4828,-1.57493 -7.4105,4.21143 -4.8916,2.76383 30.3085,-17.41799 18.677,-11.37978 12.3805,-6.50472 -4.7184,3.79804 -8.7569,8.3322 -13.1499,12.48606 -4.1015,3.77882 -8.2324,7.53921 -12.5714,11.04605 -4.2584,3.18304 -8.3694,6.552 -12.4921,9.90647 -9.6134,8.15391 -20.845,14.31492 -32.1377,19.82202 -3.9394,2.30426 -8.3048,3.81101 -12.1919,6.18978 -1.3056,1.00266 -2.9297,1.25955 -4.402,1.85994 -0.4075,0.1662 -1.5431,0.84736 -1.1612,0.62861 18.5083,-10.60076 22.8266,-4.99653 18.1323,-10.84147 -0.2412,-0.74099 -0.8511,-1.45418 -0.7237,-2.22295 0.034,-0.20468 8.859,-1.97123 9.5813,-2.09796 4.1604,-0.9698 8.013,-0.45314 11.8817,1.21461 5.5294,2.94573 11.1455,5.69435 16.8082,8.37511 9.6466,4.46663 19.1793,9.04827 28.3905,14.36446 8.5218,5.19298 16.8695,10.6431 25.4074,15.809 6.4086,3.18145 12.3507,7.15118 18.2725,11.13786 0,0 -18.4497,11.77535 -18.4497,11.77535 v 0 c -5.7692,-4.05615 -11.6493,-7.93158 -17.8811,-11.25284 -8.4286,-5.22908 -16.5906,-10.86806 -25.1325,-15.91147 -9.2638,-5.25988 -18.7369,-9.82377 -28.5176,-14.04667 -5.8106,-2.5567 -11.5327,-5.29683 -17.3387,-7.86062 -3.679,-1.22659 -7.2492,-1.23141 -11.0381,-0.31463 -2.2879,0.45666 -4.525,0.99608 -6.7799,1.59227 -0.3382,0.0894 -3.0908,0.81448 -3.1967,0.75696 -0.8112,-0.44065 -1.2599,-1.34971 -1.8899,-2.02457 -0.221,-8.32658 17.7362,-10.25227 25.296,-14.86407 4.0324,-1.99791 8.1197,-3.88523 12.0871,-6.01325 7.6812,-4.11439 4.0407,-2.19666 -14.1598,8.30352 -0.7714,0.44501 1.5314,-0.9092 2.2958,-1.36613 2.6099,-1.56026 2.1065,-1.1408 4.4591,-3.07149 0.6856,-0.56274 1.3462,-1.15538 2.0194,-1.73306 4.0732,-3.39762 8.2005,-6.7121 12.398,-9.95407 4.5581,-3.30098 8.6316,-7.21733 12.8549,-10.92311 4.4102,-4.10625 8.4424,-8.58119 12.9617,-12.55871 8.9347,-7.85546 19.9044,-13.03816 30.4996,-18.32622 0,0 -17.6205,13.85611 -17.6205,13.85611 z"
       inkscape:connector-curvature="0" />
    <g
       id="g5254"
       transform="matrix(0.61178344,0,0,0.61178344,-576.62613,178.47928)"
       inkscape:export-xdpi="104.40184"
       inkscape:export-ydpi="104.40184">
      <path
         sodipodi:nodetypes="ccssssscssccccccccccccccccccc"
         inkscape:connector-curvature="0"
         d="m -557.33899,-234.21793 c -4.3158,4.2777 -8.1309,8.75404 -12.62379,12.84195 -3.70332,3.2535 -7.55559,6.66452 -11.23713,9.93186 -8.81216,7.82074 -16.48448,11.0278 -23.90702,17.72248 -12.54764,11.31722 -13.15814,4.59855 -16.52621,6.43346 -1.325,0.72185 -5.24332,2.98915 -3.93369,2.23977 16.12194,-9.22513 24.45359,-12.24929 12.89157,-3.5887 -9.65286,7.23052 -16.13658,10.53039 -27.51292,14.69444 9.52414,-4.6527 8.17091,-15.09266 18.1818,-12.96759 3.00786,0.63849 5.64331,2.36799 8.05743,4.24964 3.25584,2.53771 6.46433,5.1416 9.77593,7.60918 4.50813,3.17012 9.41724,5.72345 13.99683,8.77735 4.5987,2.64767 8.77477,5.95239 13.31092,8.67982 5.96998,3.75149 11.89591,7.56292 17.95754,11.16795 5.89105,4.09411 12.21835,7.4646 18.24336,11.34864 1.98014,1.36571 4.06694,2.53627 6.06171,3.87841 l -18.63741,11.90119 v 0 c -1.94037,-1.35251 -3.942,-2.60469 -5.88666,-3.95145 -5.85414,-3.99375 -12.02311,-7.4736 -17.89342,-11.44312 -6.1246,-3.61293 -12.19417,-7.30995 -18.26697,-11.00817 -4.50723,-2.81774 -8.82486,-5.94127 -13.35503,-8.73068 -4.66489,-3.00918 -9.55749,-5.6631 -14.11504,-8.84129 -3.33425,-2.42139 -6.68806,-4.81852 -9.91309,-7.3846 -2.32077,-1.45004 -4.76187,-2.90253 -7.5179,-3.28528 -11.1479,0.13195 -13.23462,3.81061 11.89432,-13.20869 20.98017,-16.70692 20.48083,-15.96314 37.14394,-28.06194 8.75454,-6.35205 9.11271,-6.13367 13.11355,-10.43149 z"
         id="path5248"
         style="opacity:1;fill:#333333;fill-opacity:1;stroke:none;stroke-width:4.08699989;stroke-linejoin:round;stroke-miterlimit:4;stroke-dasharray:none;stroke-opacity:1" />
      <path
         sodipodi:nodetypes="ccccccccccccccccccccccccccccccccccccc"
         inkscape:connector-curvature="0"
         d="m -610.1867,-190.05597 c 5.60454,-0.61402 11.24998,-0.67221 16.88134,-0.7698 9.1463,-0.094 18.29356,-0.0839 27.44031,-0.0922 10.32113,0.0333 20.64202,0.0633 30.96316,0.0408 7.40103,-0.0354 14.80105,-0.15046 22.20216,-0.17243 5.08707,-0.0538 10.17424,-0.0223 15.26146,-0.0402 4.14335,-0.32135 8.18369,0.21497 12.27315,0.7638 4.00984,0.78937 7.60912,2.72728 11.22473,4.5355 3.32682,1.90791 6.49857,4.0657 9.78488,6.04918 4.64627,3.3467 9.33709,6.56065 13.61641,10.37402 3.65257,3.5119 6.9905,7.22518 9.53989,11.6167 2.23171,3.8128 3.93309,7.8943 5.14189,12.13673 0.86677,3.29312 1.05143,6.69482 1.14141,10.08153 0.0625,3.26786 -0.013,6.5356 -0.0254,9.80351 -0.13322,4.02443 -1.58636,7.78536 -3.27263,11.38385 -1.60083,3.33288 -3.77227,6.35485 -6.00141,9.2912 -1.63222,2.35235 -3.63927,4.39299 -5.66394,6.401761 -1.27017,1.397879 -4.29755,4.291998 -7.9723,7.086484 -7.75353,6.268439 -13.64044,10.195276 -25.29347,12.367625 8.3497,-8.099696 3.58383,-0.440947 18.50136,-17.040772 2.13551,-2.938994 4.55674,-5.696028 6.25925,-8.935348 1.62859,-3.35492 4.07314,-6.41082 4.41233,-10.19795 0.19899,-4.28362 0.45947,-5.63774 0.46847,-8.88194 -0.0363,-3.23213 -0.19681,-6.39022 -0.4167,-10.69636 -0.54628,-4.95671 -1.51466,-9.14125 -3.63743,-12.80487 -2.42361,-4.16072 -4.45881,-9.27187 -7.92273,-12.60525 -4.19505,-3.72364 -6.62906,-7.42419 -13.66808,-10.03894 -3.29941,-1.90374 -5.751,-2.9351 -9.80006,-4.28151 -5.87974,-2.50874 -10.66731,-2.34758 -14.52004,-2.85814 -3.9837,-0.53716 -7.96539,-0.70675 -11.98685,-0.60545 -5.05031,-0.0179 -10.10062,0.014 -15.15075,-0.0404 -7.24025,-0.0224 -14.47927,-0.13966 -21.71938,-0.17891 -10.35106,-0.0284 -20.7019,-0.009 -31.05293,0.0273 -9.19623,0.006 -18.39399,0.005 -27.58734,0.26804 -5.7813,0.20667 -11.62624,0.0656 -25.58808,3.42299 l 19.21877,-16.21227 z"
         id="path5250"
         style="opacity:1;fill:#333333;fill-opacity:1;stroke:none;stroke-width:4.08699989;stroke-linejoin:round;stroke-miterlimit:4;stroke-dasharray:none;stroke-opacity:1" />
    </g>
    <rect
       inkscape:export-ydpi="104.4018"
       inkscape:export-xdpi="104.4018"
       inkscape:export-filename="C:\Users\Blaž\Desktop\kljukicaBtn.png"
       ry="20.032738"
       y="172.30534"
       x="-1283.4641"
       height="151.61905"
       width="151.61905"
       id="rect5256"
       style="fill:url(#radialGradient5258);fill-opacity:1;stroke:url(#linearGradient5260);stroke-width:4.08699989;stroke-linejoin:round;stroke-miterlimit:4;stroke-dasharray:none;stroke-opacity:1" />
    <path
       style="opacity:1;fill:#333333;fill-opacity:1;stroke:none;stroke-width:1.48309338;stroke-linejoin:round;stroke-miterlimit:4;stroke-dasharray:none;stroke-opacity:1"
       id="path5262"
       d="m -1243.9371,247.01388 c 1.399,3.13203 2.4368,6.38068 3.4416,9.65707 1.5286,4.9741 3.0573,9.95273 4.7482,14.87463 1.46,4.41537 3.0234,8.79456 4.4759,13.21239 1.0485,3.24671 1.5893,6.61188 2.0541,9.98138 0.3496,2.66783 0.283,5.3741 0.082,8.05121 -0.6381,6.96037 1.1486,3.03953 -11.089,7.15031 0.6484,-1.9204 1.3988,-3.80997 2.0471,-5.74013 1.1861,-2.78739 2.3934,-5.56425 3.556,-8.36342 1.9016,-4.90565 4.4794,-9.48401 7.0614,-14.05239 3.4522,-5.99313 7.0396,-11.9076 10.5841,-17.84666 3.7865,-6.49004 7.7989,-12.83222 11.9483,-19.09445 4.2363,-6.30981 8.5877,-12.54488 13.2552,-18.54406 4.1616,-5.30693 8.6785,-10.31766 12.9752,-15.51522 4.2129,-4.97745 8.5013,-9.89724 12.986,-14.63255 2.0853,-2.1052 4.0894,-4.28719 6.1239,-6.44064 0,0 10.6931,-3.12024 10.6931,-3.12024 v 0 c -2.1688,2.13763 -4.1965,4.41246 -6.4064,6.5106 -4.5536,4.69785 -8.9104,9.57939 -13.1186,14.58915 -4.3011,5.20732 -8.7916,10.2494 -13.0302,15.50615 -4.7554,5.95407 -9.132,12.18849 -13.4047,18.49654 -4.1004,6.23835 -8.075,12.54455 -11.8239,19.00216 -3.5067,5.93837 -7.1416,11.80254 -10.5368,17.80543 -2.5024,4.46744 -4.9269,8.98297 -6.7172,13.79297 -1.1,2.77846 -2.197,5.55031 -3.4432,8.26416 -0.6458,1.80233 -1.0775,3.68422 -1.8964,5.4187 -13.2957,5.1934 -11.0329,7.55802 -10.3861,0.73067 0.2299,-2.6145 0.4119,-5.24563 0.095,-7.86289 -0.413,-3.31523 -0.9245,-6.62911 -1.8478,-9.8458 -1.4054,-4.42891 -2.8558,-8.84418 -4.3282,-13.25101 -1.6993,-4.92578 -3.1866,-9.9222 -4.8253,-14.86836 -1.0716,-3.20929 -2.1369,-6.41352 -3.8436,-9.35573 0,0 10.5706,-4.50997 10.5706,-4.50997 z"
       inkscape:connector-curvature="0"
       inkscape:export-filename="C:\Users\Blaž\Desktop\kljukicaBtn.png"
       inkscape:export-xdpi="104.4018"
       inkscape:export-ydpi="104.4018" />
    <rect
       style="fill:url(#radialGradient4056);fill-opacity:1;stroke:url(#linearGradient4058);stroke-width:4.08699989;stroke-linejoin:round;stroke-miterlimit:4;stroke-dasharray:none;stroke-opacity:1;opacity:0"
       id="rect4052"
       width="151.61905"
       height="151.61905"
       x="-1489.8391"
       y="-20.462513"
       ry="20.032738"
       inkscape:export-filename="C:\Users\Blaž\Desktop\Kljukica.png"
       inkscape:export-xdpi="104.4018"
       inkscape:export-ydpi="104.4018" />
    <path
       inkscape:export-ydpi="104.4018"
       inkscape:export-xdpi="104.4018"
       inkscape:export-filename="C:\Users\Blaž\Desktop\kljukicaBtn.png"
       inkscape:connector-curvature="0"
       d="m -1450.3121,54.246018 c 1.399,3.13203 2.4368,6.38068 3.4416,9.65707 1.5286,4.9741 3.0573,9.95273 4.7482,14.87463 1.46,4.41537 3.0234,8.79456 4.4759,13.21239 1.0485,3.24671 1.5893,6.61188 2.0541,9.981382 0.3496,2.66783 0.283,5.3741 0.082,8.05121 -0.6381,6.96037 1.1486,3.03953 -11.089,7.15031 0.6484,-1.9204 1.3988,-3.80997 2.0471,-5.74013 1.1861,-2.78739 2.3934,-5.56425 3.556,-8.36342 1.9016,-4.905652 4.4794,-9.484012 7.0614,-14.052392 3.4522,-5.99313 7.0396,-11.9076 10.5841,-17.84666 3.7865,-6.49004 7.7989,-12.83222 11.9483,-19.09445 4.2363,-6.309805 8.5877,-12.544875 13.2552,-18.544055 4.1616,-5.30693 8.6785,-10.31766 12.9752,-15.51522 4.2129,-4.97745 8.5013,-9.8972399 12.986,-14.6325499 2.0853,-2.1052 4.0894,-4.28719 6.1239,-6.44064 0,0 10.6931,-3.12024 10.6931,-3.12024 v 0 c -2.1688,2.13763 -4.1965,4.41246 -6.4064,6.5106 -4.5536,4.69785 -8.9104,9.57939 -13.1186,14.5891499 -4.3011,5.20732 -8.7916,10.2494 -13.0302,15.50615 -4.7554,5.95407 -9.132,12.18849 -13.4047,18.496535 -4.1004,6.23835 -8.075,12.54455 -11.8239,19.00216 -3.5067,5.93837 -7.1416,11.80254 -10.5368,17.80543 -2.5024,4.46744 -4.9269,8.98297 -6.7172,13.79297 -1.1,2.778462 -2.197,5.550312 -3.4432,8.264162 -0.6458,1.80233 -1.0775,3.68422 -1.8964,5.4187 -13.2957,5.1934 -11.0329,7.55802 -10.3861,0.73067 0.2299,-2.6145 0.4119,-5.24563 0.095,-7.86289 -0.413,-3.31523 -0.9245,-6.629112 -1.8478,-9.845802 -1.4054,-4.42891 -2.8558,-8.84418 -4.3282,-13.25101 -1.6993,-4.92578 -3.1866,-9.9222 -4.8253,-14.86836 -1.0716,-3.20929 -2.1369,-6.41352 -3.8436,-9.35573 0,0 10.5706,-4.50997 10.5706,-4.50997 z"
       id="path4054"
       style="opacity:1;fill:#333333;fill-opacity:1;stroke:none;stroke-width:1.48309338;stroke-linejoin:round;stroke-miterlimit:4;stroke-dasharray:none;stroke-opacity:1" />
    <rect
       style="fill:url(#radialGradient4062);fill-opacity:1;stroke:url(#linearGradient4064);stroke-width:4.08699989;stroke-linejoin:round;stroke-miterlimit:4;stroke-dasharray:none;stroke-opacity:1"
       id="rect4060"
       width="151.61905"
       height="151.61905"
       x="-1625.9105"
       y="188.18034"
       ry="20.032738"
       inkscape:export-filename="C:\Users\Blaž\Desktop\Kvadratek.png"
       inkscape:export-xdpi="104.4018"
       inkscape:export-ydpi="104.4018" />
    <rect
       style="fill:url(#radialGradient866);fill-opacity:1;stroke:url(#linearGradient868);stroke-width:4.08699989;stroke-linejoin:round;stroke-miterlimit:4;stroke-dasharray:none;stroke-opacity:1"
       id="rect862"
       width="151.61905"
       height="151.61905"
       x="-1639.5583"
       y="703.48749"
       ry="20.032738"
       inkscape:export-filename="C:\Users\Blaž\Desktop\kljukicaBtn.png"
       inkscape:export-xdpi="104.4018"
       inkscape:export-ydpi="104.4018" />
    <path
       inkscape:export-ydpi="104.4018"
       inkscape:export-xdpi="104.4018"
       inkscape:export-filename="C:\Users\Blaž\Desktop\kljukicaBtn.png"
       inkscape:connector-curvature="0"
       d="m -1600.0314,778.19599 c 1.399,3.13203 2.4368,6.38068 3.4416,9.65707 1.5286,4.9741 3.0573,9.95273 4.7482,14.87463 1.46,4.41537 3.0234,8.79456 4.4759,13.21239 1.0485,3.24671 1.5893,6.61188 2.0541,9.98138 0.3496,2.66783 0.283,5.3741 0.082,8.05121 -0.6381,6.96037 1.1486,3.03953 -11.089,7.15031 0.6484,-1.9204 1.3988,-3.80997 2.0471,-5.74013 1.1861,-2.78739 2.3934,-5.56425 3.556,-8.36342 1.9016,-4.90565 4.4794,-9.48401 7.0614,-14.05239 3.4522,-5.99313 7.0396,-11.9076 10.5841,-17.84666 3.7865,-6.49004 7.7989,-12.83222 11.9483,-19.09445 4.2363,-6.30981 8.5877,-12.54488 13.2552,-18.54406 4.1616,-5.30693 8.6785,-10.31766 12.9752,-15.51522 4.2129,-4.97745 8.5013,-9.89724 12.986,-14.63255 2.0853,-2.1052 4.0894,-4.28719 6.1239,-6.44064 0,0 10.6931,-3.12024 10.6931,-3.12024 v 0 c -2.1688,2.13763 -4.1965,4.41246 -6.4064,6.5106 -4.5536,4.69785 -8.9104,9.57939 -13.1186,14.58915 -4.3011,5.20732 -8.7916,10.2494 -13.0302,15.50615 -4.7554,5.95407 -9.132,12.18849 -13.4047,18.49654 -4.1004,6.23835 -8.075,12.54455 -11.8239,19.00216 -3.5067,5.93837 -7.1416,11.80254 -10.5368,17.80543 -2.5024,4.46744 -4.9269,8.98297 -6.7172,13.79297 -1.1,2.77846 -2.197,5.55031 -3.4432,8.26416 -0.6458,1.80233 -1.0775,3.68422 -1.8964,5.4187 -13.2957,5.1934 -11.0329,7.55802 -10.3861,0.73067 0.2299,-2.6145 0.4119,-5.24563 0.095,-7.86289 -0.413,-3.31523 -0.9245,-6.62911 -1.8478,-9.8458 -1.4054,-4.42891 -2.8558,-8.84418 -4.3282,-13.25101 -1.6993,-4.92578 -3.1866,-9.9222 -4.8253,-14.86836 -1.0716,-3.20929 -2.1369,-6.41352 -3.8436,-9.35573 0,0 10.5706,-4.50997 10.5706,-4.50997 z"
       id="path864"
       style="opacity:1;fill:#005500;fill-opacity:1;stroke:none;stroke-width:1.48309338;stroke-linejoin:round;stroke-miterlimit:4;stroke-dasharray:none;stroke-opacity:1" />
    <rect
       inkscape:export-ydpi="104.4018"
       inkscape:export-xdpi="104.4018"
       inkscape:export-filename="C:\Users\Blaž\Desktop\Krizec.png"
       ry="20.032738"
       y="704.42249"
       x="-1902.6016"
       height="151.61905"
       width="151.61905"
       id="rect870"
       style="fill:url(#radialGradient872);fill-opacity:1;stroke:url(#linearGradient874);stroke-width:4.08699989;stroke-linejoin:round;stroke-miterlimit:4;stroke-dasharray:none;stroke-opacity:1" />
    <g
       id="g900"
       inkscape:export-filename="C:\Users\Blaž\Desktop\Krizec.png"
       inkscape:export-xdpi="104.4018"
       inkscape:export-ydpi="104.4018">
      <path
         sodipodi:nodetypes="cccccccccccccccccccc"
         inkscape:export-ydpi="104.4018"
         inkscape:export-xdpi="104.4018"
         inkscape:export-filename="C:\Users\Blaž\Desktop\kljukicaBtn.png"
         inkscape:connector-curvature="0"
         d="m -1880.1575,841.1544 c 0.6484,-1.9204 1.3988,-3.80997 2.0471,-5.74013 1.1861,-2.78739 2.3934,-5.56425 3.556,-8.36342 1.9016,-4.90565 4.4794,-9.48401 7.0614,-14.05239 3.4522,-5.99313 7.0396,-11.9076 10.5841,-17.84666 3.7865,-6.49004 7.7989,-12.83222 11.9483,-19.09445 4.2363,-6.30981 8.5877,-12.54488 13.2552,-18.54406 4.1616,-5.30693 8.6785,-10.31766 12.9752,-15.51522 4.2129,-4.97745 8.5013,-9.89724 12.986,-14.63255 2.0853,-2.1052 4.0894,-4.28719 6.1239,-6.44064 8.1075,-6.13229 14.0013,1.26959 12.2242,3.39036 -4.5536,4.69785 -8.9104,9.57939 -13.1186,14.58915 -4.3011,5.20732 -8.7916,10.2494 -13.0302,15.50615 -4.7554,5.95407 -9.132,12.18849 -13.4047,18.49654 -4.1004,6.23835 -8.075,12.54455 -11.8239,19.00216 -3.5067,5.93837 -7.1416,11.80254 -10.5368,17.80543 -2.5024,4.46744 -4.9269,8.98297 -6.7172,13.79297 -1.1,2.77846 -2.197,5.55031 -3.4432,8.26416 -0.6458,1.80233 -2.18,6.99168 -2.9989,8.72616 -6.6768,1.45825 -12.7149,-0.23386 -17.6879,0.65644 z"
         id="path876"
         style="opacity:1;fill:#800000;fill-opacity:1;stroke:none;stroke-width:1.48309338;stroke-linejoin:round;stroke-miterlimit:4;stroke-dasharray:none;stroke-opacity:1" />
      <path
         style="opacity:1;fill:#800000;fill-opacity:1;stroke:none;stroke-width:1.49628949;stroke-linejoin:round;stroke-miterlimit:4;stroke-dasharray:none;stroke-opacity:1"
         id="path878"
         d="m -1880.1402,724.01127 c 0.8779,2.0201 1.8405,3.98475 2.7198,6.01581 1.4897,2.88193 2.996,5.74773 4.4668,8.64768 2.4581,5.11009 5.4578,9.71482 8.4596,14.30751 3.9952,6.01173 8.0965,11.90759 12.164,17.83979 4.3686,6.50034 8.9119,12.78865 13.5628,18.95928 4.7348,6.20619 9.5587,12.30501 14.6228,18.07468 4.5082,5.0972 9.2812,9.78959 13.8907,14.73653 4.5004,4.71733 9.0579,9.35457 13.7584,13.7448 2.1702,1.93305 4.2813,3.96881 6.4145,5.96634 5.4844,-0.49846 7.0826,0.73499 16.6543,-0.46569 -4.755,-4.33412 -15.824,-14.75255 -20.3256,-19.50706 -4.6149,-4.95697 -9.3697,-9.68992 -13.9376,-14.7151 -5.1339,-5.7011 -9.98,-11.79403 -14.7466,-17.99079 -4.6037,-6.1539 -9.1081,-12.40961 -13.4386,-18.88129 -4.0341,-5.93918 -8.1691,-11.76891 -12.1157,-17.80325 -2.9157,-4.49583 -6.5616,-9.88508 -9.1018,-14.22081 -2.5403,-4.33574 -3.5576,-6.08605 -4.9529,-8.42586 -1.3953,-2.33981 -3.1257,-4.43873 -4.1236,-6.21549 -4.3343,-7.40225 -13.563,-8.5448 -13.9713,-0.0671 z"
         inkscape:connector-curvature="0"
         inkscape:export-filename="C:\Users\Blaž\Desktop\kljukicaBtn.png"
         inkscape:export-xdpi="104.4018"
         inkscape:export-ydpi="104.4018"
         sodipodi:nodetypes="cccccccccccccccczzccc" />
    </g>
    <rect
       style="fill:none;fill-opacity:1;stroke:none;stroke-width:4.08699989;stroke-linejoin:round;stroke-miterlimit:4;stroke-dasharray:none;stroke-opacity:1"
       id="rect872"
       width="151.61905"
       height="151.61905"
       x="-1918.0159"
       y="941.41534"
       ry="20.032738"
       inkscape:export-filename="C:\Users\Blaž\Desktop\back.png"
       inkscape:export-xdpi="107.21609"
       inkscape:export-ydpi="107.21609" />
    <g
       inkscape:export-ydpi="107.21609"
       inkscape:export-xdpi="107.21609"
       transform="matrix(0.61178344,0,0,0.61178344,-1513.1386,1119.268)"
       id="g879"
       inkscape:export-filename="C:\Users\Blaž\Desktop\back.png">
      <path
         style="opacity:1;fill:#333333;fill-opacity:1;stroke:none;stroke-width:4.08699989;stroke-linejoin:round;stroke-miterlimit:4;stroke-dasharray:none;stroke-opacity:1"
         id="path874"
         d="m -557.33899,-234.21793 c -4.3158,4.2777 -8.1309,8.75404 -12.62379,12.84195 -3.70332,3.2535 -7.55559,6.66452 -11.23713,9.93186 -8.81216,7.82074 -16.48448,11.0278 -23.90702,17.72248 -12.54764,11.31722 -13.15814,4.59855 -16.52621,6.43346 -1.325,0.72185 -5.24332,2.98915 -3.93369,2.23977 16.12194,-9.22513 24.45359,-12.24929 12.89157,-3.5887 -9.65286,7.23052 -16.13658,10.53039 -27.51292,14.69444 9.52414,-4.6527 8.17091,-15.09266 18.1818,-12.96759 3.00786,0.63849 5.64331,2.36799 8.05743,4.24964 3.25584,2.53771 6.46433,5.1416 9.77593,7.60918 4.50813,3.17012 9.41724,5.72345 13.99683,8.77735 4.5987,2.64767 8.77477,5.95239 13.31092,8.67982 5.96998,3.75149 11.89591,7.56292 17.95754,11.16795 5.89105,4.09411 12.21835,7.4646 18.24336,11.34864 1.98014,1.36571 4.06694,2.53627 6.06171,3.87841 l -18.63741,11.90119 v 0 c -1.94037,-1.35251 -3.942,-2.60469 -5.88666,-3.95145 -5.85414,-3.99375 -12.02311,-7.4736 -17.89342,-11.44312 -6.1246,-3.61293 -12.19417,-7.30995 -18.26697,-11.00817 -4.50723,-2.81774 -8.82486,-5.94127 -13.35503,-8.73068 -4.66489,-3.00918 -9.55749,-5.6631 -14.11504,-8.84129 -3.33425,-2.42139 -6.68806,-4.81852 -9.91309,-7.3846 -2.32077,-1.45004 -4.76187,-2.90253 -7.5179,-3.28528 -11.1479,0.13195 -13.23462,3.81061 11.89432,-13.20869 20.98017,-16.70692 20.48083,-15.96314 37.14394,-28.06194 8.75454,-6.35205 9.11271,-6.13367 13.11355,-10.43149 z"
         inkscape:connector-curvature="0"
         sodipodi:nodetypes="ccssssscssccccccccccccccccccc" />
      <path
         style="opacity:1;fill:#333333;fill-opacity:1;stroke:none;stroke-width:4.08699989;stroke-linejoin:round;stroke-miterlimit:4;stroke-dasharray:none;stroke-opacity:1"
         id="path877"
         d="m -610.1867,-190.05597 c 5.60454,-0.61402 11.24998,-0.67221 16.88134,-0.7698 9.1463,-0.094 18.29356,-0.0839 27.44031,-0.0922 10.32113,0.0333 20.64202,0.0633 30.96316,0.0408 7.40103,-0.0354 14.80105,-0.15046 22.20216,-0.17243 5.08707,-0.0538 10.17424,-0.0223 15.26146,-0.0402 4.14335,-0.32135 8.18369,0.21497 12.27315,0.7638 4.00984,0.78937 7.60912,2.72728 11.22473,4.5355 3.32682,1.90791 6.49857,4.0657 9.78488,6.04918 4.64627,3.3467 9.33709,6.56065 13.61641,10.37402 3.65257,3.5119 6.9905,7.22518 9.53989,11.6167 2.23171,3.8128 3.93309,7.8943 5.14189,12.13673 0.86677,3.29312 1.05143,6.69482 1.14141,10.08153 0.0625,3.26786 -0.013,6.5356 -0.0254,9.80351 -0.13322,4.02443 -1.58636,7.78536 -3.27263,11.38385 -1.60083,3.33288 -3.77227,6.35485 -6.00141,9.2912 -1.63222,2.35235 -3.63927,4.39299 -5.66394,6.401761 -1.27017,1.397879 -4.29755,4.291998 -7.9723,7.086484 -7.75353,6.268439 -13.64044,10.195276 -25.29347,12.367625 8.3497,-8.099696 3.58383,-0.440947 18.50136,-17.040772 2.13551,-2.938994 4.55674,-5.696028 6.25925,-8.935348 1.62859,-3.35492 4.07314,-6.41082 4.41233,-10.19795 0.19899,-4.28362 0.45947,-5.63774 0.46847,-8.88194 -0.0363,-3.23213 -0.19681,-6.39022 -0.4167,-10.69636 -0.54628,-4.95671 -1.51466,-9.14125 -3.63743,-12.80487 -2.42361,-4.16072 -4.45881,-9.27187 -7.92273,-12.60525 -4.19505,-3.72364 -6.62906,-7.42419 -13.66808,-10.03894 -3.29941,-1.90374 -5.751,-2.9351 -9.80006,-4.28151 -5.87974,-2.50874 -10.66731,-2.34758 -14.52004,-2.85814 -3.9837,-0.53716 -7.96539,-0.70675 -11.98685,-0.60545 -5.05031,-0.0179 -10.10062,0.014 -15.15075,-0.0404 -7.24025,-0.0224 -14.47927,-0.13966 -21.71938,-0.17891 -10.35106,-0.0284 -20.7019,-0.009 -31.05293,0.0273 -9.19623,0.006 -18.39399,0.005 -27.58734,0.26804 -5.7813,0.20667 -11.62624,0.0656 -25.58808,3.42299 l 19.21877,-16.21227 z"
         inkscape:connector-curvature="0"
         sodipodi:nodetypes="ccccccccccccccccccccccccccccccccccccc" />
    </g>
    <rect
       inkscape:export-ydpi="107.21618"
       inkscape:export-xdpi="107.21618"
       inkscape:export-filename="C:\Users\Blaž\Desktop\forward.png"
       ry="20.032738"
       y="941.41534"
       x="1479.8839"
       height="151.61905"
       width="151.61905"
       id="rect885"
       style="fill:none;fill-opacity:1;stroke:none;stroke-width:4.08699989;stroke-linejoin:round;stroke-miterlimit:4;stroke-dasharray:none;stroke-opacity:1"
       transform="scale(-1,1)" />
    <g
       id="g891"
       transform="matrix(-0.61178344,0,0,0.61178344,-1884.7611,1119.268)"
       inkscape:export-xdpi="107.21618"
       inkscape:export-ydpi="107.21618"
       inkscape:export-filename="C:\Users\Blaž\Desktop\forward.png">
      <path
         sodipodi:nodetypes="ccssssscssccccccccccccccccccc"
         inkscape:connector-curvature="0"
         d="m -557.33899,-234.21793 c -4.3158,4.2777 -8.1309,8.75404 -12.62379,12.84195 -3.70332,3.2535 -7.55559,6.66452 -11.23713,9.93186 -8.81216,7.82074 -16.48448,11.0278 -23.90702,17.72248 -12.54764,11.31722 -13.15814,4.59855 -16.52621,6.43346 -1.325,0.72185 -5.24332,2.98915 -3.93369,2.23977 16.12194,-9.22513 24.45359,-12.24929 12.89157,-3.5887 -9.65286,7.23052 -16.13658,10.53039 -27.51292,14.69444 9.52414,-4.6527 8.17091,-15.09266 18.1818,-12.96759 3.00786,0.63849 5.64331,2.36799 8.05743,4.24964 3.25584,2.53771 6.46433,5.1416 9.77593,7.60918 4.50813,3.17012 9.41724,5.72345 13.99683,8.77735 4.5987,2.64767 8.77477,5.95239 13.31092,8.67982 5.96998,3.75149 11.89591,7.56292 17.95754,11.16795 5.89105,4.09411 12.21835,7.4646 18.24336,11.34864 1.98014,1.36571 4.06694,2.53627 6.06171,3.87841 l -18.63741,11.90119 v 0 c -1.94037,-1.35251 -3.942,-2.60469 -5.88666,-3.95145 -5.85414,-3.99375 -12.02311,-7.4736 -17.89342,-11.44312 -6.1246,-3.61293 -12.19417,-7.30995 -18.26697,-11.00817 -4.50723,-2.81774 -8.82486,-5.94127 -13.35503,-8.73068 -4.66489,-3.00918 -9.55749,-5.6631 -14.11504,-8.84129 -3.33425,-2.42139 -6.68806,-4.81852 -9.91309,-7.3846 -2.32077,-1.45004 -4.76187,-2.90253 -7.5179,-3.28528 -11.1479,0.13195 -13.23462,3.81061 11.89432,-13.20869 20.98017,-16.70692 20.48083,-15.96314 37.14394,-28.06194 8.75454,-6.35205 9.11271,-6.13367 13.11355,-10.43149 z"
         id="path887"
         style="opacity:1;fill:#333333;fill-opacity:1;stroke:none;stroke-width:4.08699989;stroke-linejoin:round;stroke-miterlimit:4;stroke-dasharray:none;stroke-opacity:1" />
      <path
         sodipodi:nodetypes="ccccccccccccccccccccccccccccccccccccc"
         inkscape:connector-curvature="0"
         d="m -610.1867,-190.05597 c 5.60454,-0.61402 11.24998,-0.67221 16.88134,-0.7698 9.1463,-0.094 18.29356,-0.0839 27.44031,-0.0922 10.32113,0.0333 20.64202,0.0633 30.96316,0.0408 7.40103,-0.0354 14.80105,-0.15046 22.20216,-0.17243 5.08707,-0.0538 10.17424,-0.0223 15.26146,-0.0402 4.14335,-0.32135 8.18369,0.21497 12.27315,0.7638 4.00984,0.78937 7.60912,2.72728 11.22473,4.5355 3.32682,1.90791 6.49857,4.0657 9.78488,6.04918 4.64627,3.3467 9.33709,6.56065 13.61641,10.37402 3.65257,3.5119 6.9905,7.22518 9.53989,11.6167 2.23171,3.8128 3.93309,7.8943 5.14189,12.13673 0.86677,3.29312 1.05143,6.69482 1.14141,10.08153 0.0625,3.26786 -0.013,6.5356 -0.0254,9.80351 -0.13322,4.02443 -1.58636,7.78536 -3.27263,11.38385 -1.60083,3.33288 -3.77227,6.35485 -6.00141,9.2912 -1.63222,2.35235 -3.63927,4.39299 -5.66394,6.401761 -1.27017,1.397879 -4.29755,4.291998 -7.9723,7.086484 -7.75353,6.268439 -13.64044,10.195276 -25.29347,12.367625 8.3497,-8.099696 3.58383,-0.440947 18.50136,-17.040772 2.13551,-2.938994 4.55674,-5.696028 6.25925,-8.935348 1.62859,-3.35492 4.07314,-6.41082 4.41233,-10.19795 0.19899,-4.28362 0.45947,-5.63774 0.46847,-8.88194 -0.0363,-3.23213 -0.19681,-6.39022 -0.4167,-10.69636 -0.54628,-4.95671 -1.51466,-9.14125 -3.63743,-12.80487 -2.42361,-4.16072 -4.45881,-9.27187 -7.92273,-12.60525 -4.19505,-3.72364 -6.62906,-7.42419 -13.66808,-10.03894 -3.29941,-1.90374 -5.751,-2.9351 -9.80006,-4.28151 -5.87974,-2.50874 -10.66731,-2.34758 -14.52004,-2.85814 -3.9837,-0.53716 -7.96539,-0.70675 -11.98685,-0.60545 -5.05031,-0.0179 -10.10062,0.014 -15.15075,-0.0404 -7.24025,-0.0224 -14.47927,-0.13966 -21.71938,-0.17891 -10.35106,-0.0284 -20.7019,-0.009 -31.05293,0.0273 -9.19623,0.006 -18.39399,0.005 -27.58734,0.26804 -5.7813,0.20667 -11.62624,0.0656 -25.58808,3.42299 l 19.21877,-16.21227 z"
         id="path889"
         style="opacity:1;fill:#333333;fill-opacity:1;stroke:none;stroke-width:4.08699989;stroke-linejoin:round;stroke-miterlimit:4;stroke-dasharray:none;stroke-opacity:1" />
    </g>
  </g>
</svg>
